<svg width="852" height="360" viewBox="0 0 852 360" fill="none" xmlns="http://www.w3.org/2000/svg">
<path d="M0 115.22L62.339 57.878L96.6728 64.0438L150.38 107.839L202.447 61.5775L247.504 50.4791L272.193 131.867L329.594 64.0438L380.823 73.909L409.832 138.033L424.646 94.256L485.75 57.878L513.44 0L584.505 7.93542V64.0438L633.265 94.256L669.681 61.5775L718.441 85.6239L743.747 64.0438L780.78 73.909L814.727 57.878L851.143 94.256L848.573 236.066L801.148 282.928L801.148 303.892L780.78 352.601L718.441 342.736L723.972 265.037L675.853 303.892L633.265 291.56L584.505 326.088L533.312 342.736L513.44 303.892L485.75 317.456L454.889 291.56L424.646 303.892L380.823 352.601L334.058 342.736L322.243 306.885L286.389 303.892L247.504 360L192.272 342.736L170.969 282.928H99.9892L53.6979 303.892L0 239.151V115.22Z" fill="white"/>
</svg>
