<svg width="667" height="664" viewBox="0 0 667 664" fill="none" xmlns="http://www.w3.org/2000/svg">
<path d="M0.0153058 658.112L170.433 657.669M571.879 247.62L572.305 411.546L659.949 411.318L660.586 656.395L412.263 657.04M659.742 331.79L659.318 168.676M90.0605 333.271L90.2673 412.799L169.795 412.593L170.015 496.99L90.4867 497.197L90.6914 575.913L11.1633 576.12L9.90348 91.6475M9.90348 91.6475L9.684 7.25027L658.893 5.56203L659.318 168.676M9.90348 91.6475L168.96 91.2339M659.318 168.676L495.392 169.102L495.597 247.819L411.2 248.038L411.419 332.436L331.891 332.642L495.816 332.216L496.243 496.141L583.886 495.914L332.317 496.568L332.522 575.284M412.263 657.04L412.05 575.078L584.091 574.63M412.263 657.04L170.433 657.669M170.433 657.669L170.22 575.706L249.748 575.5L249.324 412.386M248.897 248.46L249.117 332.858M249.117 332.858L169.589 333.064L169.369 248.667L89.841 248.874L89.6363 170.157L248.693 169.744L248.488 91.0271L415.659 90.5924M249.117 332.858L249.324 412.386M582.831 90.1576L415.659 90.5924M415.659 90.5924L415.864 169.309L331.467 169.528L331.672 248.245M249.324 412.386L423.807 415.178" stroke="#70D6D8" stroke-width="11.0938"/>
</svg>
