<svg width="687" height="1051" viewBox="0 0 687 1051" fill="none" xmlns="http://www.w3.org/2000/svg">
<g clip-path="url(#clip0_2708_1155)">
<mask id="path-2-inside-1_2708_1155" fill="white">
<path d="M593.557 1050.72C501.513 1221.79 398.026 1343.55 362.412 1322.68C358.271 1320.25 355.23 1316 353.234 1310.11C399.709 1309.51 468.957 1244.62 520.443 1148.94C580.619 1037.09 593.743 925.528 549.76 899.745C548.35 898.918 546.898 898.191 545.407 897.559C517.175 900.19 487.372 922.67 470.134 957.638C446.592 1005.39 455.398 1058.36 489.804 1075.93C492.734 1077.43 495.758 1078.62 498.848 1079.52C484.144 1087.72 471.16 1089.88 461.109 1084.75C428.084 1067.88 438.132 978.091 482.182 877.009C489.673 897.048 508 893.011 529.881 862.807C556.601 825.923 579.412 762.727 584.094 714.968C614.907 682.591 643.408 667.07 662.034 676.163C686.881 602.537 736.984 498.641 803.049 388.887C813.627 371.313 824.254 354.192 834.855 337.603C731.628 519.364 674.754 673.701 705.835 694.369C736.922 715.038 845.282 594.88 957.355 418.948C947.621 436.146 937.437 453.596 926.843 471.196C832.076 628.633 733.608 749.72 681.627 777.525C664.599 798.082 647.851 822.942 632.813 850.89C588.397 933.44 573.781 1015.25 595.418 1047.26C594.8 1048.41 594.179 1049.57 593.557 1050.72ZM583.456 901.436C604.432 888.37 628.426 835.481 646.071 768.816C641.846 751.633 647.383 720.309 661.008 679.233C649.088 678.026 633.892 688.517 617.172 711.66C590.048 749.206 565.889 810.398 552.722 869.688C557.808 897.979 568.443 910.787 583.456 901.436Z"/>
</mask>
<path d="M593.557 1050.72C501.513 1221.79 398.026 1343.55 362.412 1322.68C358.271 1320.25 355.23 1316 353.234 1310.11C399.709 1309.51 468.957 1244.62 520.443 1148.94C580.619 1037.09 593.743 925.528 549.76 899.745C548.35 898.918 546.898 898.191 545.407 897.559C517.175 900.19 487.372 922.67 470.134 957.638C446.592 1005.39 455.398 1058.36 489.804 1075.93C492.734 1077.43 495.758 1078.62 498.848 1079.52C484.144 1087.72 471.16 1089.88 461.109 1084.75C428.084 1067.88 438.132 978.091 482.182 877.009C489.673 897.048 508 893.011 529.881 862.807C556.601 825.923 579.412 762.727 584.094 714.968C614.907 682.591 643.408 667.07 662.034 676.163C686.881 602.537 736.984 498.641 803.049 388.887C813.627 371.313 824.254 354.192 834.855 337.603C731.628 519.364 674.754 673.701 705.835 694.369C736.922 715.038 845.282 594.88 957.355 418.948C947.621 436.146 937.437 453.596 926.843 471.196C832.076 628.633 733.608 749.72 681.627 777.525C664.599 798.082 647.851 822.942 632.813 850.89C588.397 933.44 573.781 1015.25 595.418 1047.26C594.8 1048.41 594.179 1049.57 593.557 1050.72ZM583.456 901.436C604.432 888.37 628.426 835.481 646.071 768.816C641.846 751.633 647.383 720.309 661.008 679.233C649.088 678.026 633.892 688.517 617.172 711.66C590.048 749.206 565.889 810.398 552.722 869.688C557.808 897.979 568.443 910.787 583.456 901.436Z" fill="#70D6D8"/>
<path d="M593.557 1050.72L595.318 1051.67V1051.67L593.557 1050.72ZM362.412 1322.68L361.401 1324.4L361.401 1324.4L362.412 1322.68ZM353.234 1310.11L353.209 1308.11L350.456 1308.15L351.34 1310.76L353.234 1310.11ZM520.443 1148.94L522.204 1149.88L522.204 1149.88L520.443 1148.94ZM549.76 899.745L550.771 898.02L550.771 898.019L549.76 899.745ZM545.407 897.559L546.187 895.717L545.723 895.521L545.221 895.567L545.407 897.559ZM470.134 957.638L468.34 956.754V956.754L470.134 957.638ZM489.804 1075.93L488.894 1077.71L488.894 1077.71L489.804 1075.93ZM498.848 1079.52L499.823 1081.27L504.002 1078.94L499.407 1077.6L498.848 1079.52ZM461.109 1084.75L460.199 1086.53L460.199 1086.53L461.109 1084.75ZM482.182 877.009L484.055 876.309L482.324 871.678L480.349 876.21L482.182 877.009ZM529.881 862.807L531.501 863.98V863.98L529.881 862.807ZM584.094 714.968L582.645 713.589L582.171 714.088L582.104 714.773L584.094 714.968ZM662.034 676.163L661.157 677.96L663.202 678.959L663.929 676.803L662.034 676.163ZM803.049 388.887L801.335 387.855V387.855L803.049 388.887ZM834.855 337.603L836.594 338.591L833.169 336.526L834.855 337.603ZM705.835 694.369L704.727 696.034L704.727 696.034L705.835 694.369ZM957.355 418.948L959.096 419.933L955.669 417.873L957.355 418.948ZM926.843 471.196L928.556 472.227V472.227L926.843 471.196ZM681.627 777.525L680.684 775.761L680.338 775.947L680.087 776.249L681.627 777.525ZM632.813 850.89L631.052 849.943V849.943L632.813 850.89ZM595.418 1047.26L597.182 1048.2L597.751 1047.14L597.075 1046.14L595.418 1047.26ZM583.456 901.436L584.513 903.134L584.513 903.134L583.456 901.436ZM646.071 768.816L648.004 769.327L648.135 768.834L648.013 768.338L646.071 768.816ZM661.008 679.233L662.906 679.862L663.691 677.494L661.209 677.243L661.008 679.233ZM617.172 711.66L615.551 710.489V710.489L617.172 711.66ZM552.722 869.688L550.77 869.254L550.683 869.646L550.754 870.041L552.722 869.688ZM593.557 1050.72L591.796 1049.78C545.819 1135.23 497.012 1208.31 455.3 1257.38C434.432 1281.94 415.412 1300.39 399.473 1311.4C391.5 1316.91 384.396 1320.48 378.292 1322.06C372.206 1323.64 367.279 1323.21 363.424 1320.95L362.412 1322.68L361.401 1324.4C366.449 1327.36 372.547 1327.69 379.297 1325.94C386.028 1324.19 393.571 1320.34 401.746 1314.69C418.104 1303.4 437.386 1284.64 458.347 1259.97C500.292 1210.62 549.251 1137.29 595.318 1051.67L593.557 1050.72ZM362.412 1322.68L363.424 1320.95C359.823 1318.84 357.024 1315.06 355.128 1309.47L353.234 1310.11L351.34 1310.76C353.436 1316.94 356.719 1321.66 361.401 1324.4L362.412 1322.68ZM353.234 1310.11L353.26 1312.11C377.29 1311.8 406.699 1294.97 436.342 1266.63C466.077 1238.2 496.381 1197.88 522.204 1149.88L520.443 1148.94L518.682 1147.99C493.02 1195.68 462.957 1235.65 433.578 1263.74C404.106 1291.91 375.653 1307.82 353.209 1308.11L353.234 1310.11ZM520.443 1148.94L522.204 1149.88C552.383 1093.79 570.807 1037.7 576.147 992.302C578.817 969.608 578.23 949.487 574.136 933.339C570.041 917.192 562.384 904.827 550.771 898.02L549.76 899.745L548.749 901.47C559.128 907.555 566.323 918.804 570.258 934.322C574.193 949.84 574.81 969.434 572.175 991.835C566.905 1036.63 548.679 1092.24 518.682 1147.99L520.443 1148.94ZM549.76 899.745L550.771 898.019C549.286 897.149 547.757 896.382 546.187 895.717L545.407 897.559L544.627 899.4C546.039 899.999 547.414 900.688 548.749 901.47L549.76 899.745ZM545.407 897.559L545.221 895.567C516.116 898.28 485.796 921.345 468.34 956.754L470.134 957.638L471.928 958.523C488.949 923.995 518.234 902.1 545.593 899.55L545.407 897.559ZM470.134 957.638L468.34 956.754C456.403 980.969 452.631 1006.57 456.266 1028.43C459.9 1050.29 470.983 1068.56 488.894 1077.71L489.804 1075.93L490.713 1074.15C474.219 1065.73 463.697 1048.73 460.212 1027.77C456.727 1006.82 460.323 982.063 471.928 958.523L470.134 957.638ZM489.804 1075.93L488.894 1077.71C491.938 1079.27 495.079 1080.51 498.29 1081.44L498.848 1079.52L499.407 1077.6C496.436 1076.74 493.53 1075.59 490.713 1074.15L489.804 1075.93ZM498.848 1079.52L497.874 1077.77C483.381 1085.86 471.176 1087.65 462.019 1082.97L461.109 1084.75L460.199 1086.53C471.144 1092.12 484.907 1089.59 499.823 1081.27L498.848 1079.52ZM461.109 1084.75L462.019 1082.97C454.489 1079.12 449.161 1070.99 446.218 1058.91C443.279 1046.85 442.799 1031.14 444.732 1012.67C448.594 975.738 462.045 928.225 484.015 877.808L482.182 877.009L480.349 876.21C458.269 926.876 444.671 974.796 440.753 1012.25C438.795 1030.97 439.243 1047.18 442.332 1059.86C445.416 1072.52 451.217 1081.94 460.199 1086.53L461.109 1084.75ZM482.182 877.009L480.309 877.71C482.273 882.964 485.042 886.902 488.65 889.182C492.316 891.499 496.591 891.941 501.168 890.677C510.118 888.205 520.513 879.148 531.501 863.98L529.881 862.807L528.262 861.633C517.368 876.67 507.659 884.734 500.103 886.821C496.426 887.837 493.348 887.419 490.787 885.801C488.168 884.146 485.837 881.075 484.055 876.309L482.182 877.009ZM529.881 862.807L531.501 863.98C558.449 826.782 581.372 763.241 586.084 715.163L584.094 714.968L582.104 714.773C577.453 762.214 554.754 825.064 528.262 861.633L529.881 862.807ZM584.094 714.968L585.543 716.347C600.868 700.244 615.518 688.444 628.543 681.796C641.608 675.127 652.668 673.816 661.157 677.96L662.034 676.163L662.912 674.366C652.774 669.417 640.27 671.319 626.725 678.233C613.141 685.166 598.133 697.315 582.645 713.589L584.094 714.968ZM662.034 676.163L663.929 676.803C688.713 603.361 738.74 499.601 804.762 389.918L803.049 388.887L801.335 387.855C735.227 497.681 685.048 601.713 660.14 675.524L662.034 676.163ZM803.049 388.887L804.762 389.918C815.332 372.359 825.949 355.254 836.54 338.68L834.855 337.603L833.169 336.526C822.559 353.13 811.923 370.266 801.335 387.855L803.049 388.887ZM834.855 337.603L833.116 336.615C781.468 427.556 741.387 511.685 718.1 575.712C706.461 607.711 698.983 634.781 696.381 655.212C695.082 665.421 694.984 674.086 696.255 680.926C697.523 687.752 700.212 693.032 704.727 696.034L705.835 694.369L706.942 692.704C703.687 690.539 701.354 686.474 700.187 680.195C699.023 673.928 699.075 665.724 700.349 655.718C702.896 635.718 710.26 608.969 721.859 577.079C745.045 513.33 785.014 429.411 836.594 338.591L834.855 337.603ZM705.835 694.369L704.727 696.034C709.266 699.052 715.018 699.352 721.489 697.616C727.953 695.883 735.387 692.061 743.616 686.447C760.088 675.21 780.173 656.496 802.705 631.73C847.792 582.17 902.969 508.046 959.042 420.022L957.355 418.948L955.669 417.873C899.669 505.781 844.629 579.703 799.746 629.038C777.292 653.719 757.453 672.165 741.362 683.142C733.31 688.636 726.302 692.184 720.453 693.753C714.609 695.32 710.175 694.853 706.942 692.703L705.835 694.369ZM957.355 418.948L955.615 417.962C945.889 435.145 935.714 452.58 925.129 470.164L926.843 471.196L928.556 472.227C939.159 454.612 949.352 437.146 959.096 419.933L957.355 418.948ZM926.843 471.196L925.129 470.164C877.783 548.821 829.525 618.375 786.632 671.719C765.184 698.392 745.094 720.992 727.143 738.644C709.168 756.319 693.428 768.944 680.684 775.761L681.627 777.525L682.571 779.288C695.817 772.203 711.878 759.265 729.947 741.496C748.04 723.704 768.236 700.98 789.749 674.226C832.776 620.716 881.135 551.008 928.556 472.227L926.843 471.196ZM681.627 777.525L680.087 776.249C662.967 796.917 646.147 821.888 631.052 849.943L632.813 850.89L634.574 851.838C649.555 823.996 666.23 799.248 683.167 778.801L681.627 777.525ZM632.813 850.89L631.052 849.943C608.764 891.366 593.926 932.652 587.38 967.661C584.107 985.165 582.898 1001.15 583.892 1014.83C584.885 1028.48 588.085 1039.98 593.761 1048.38L595.418 1047.26L597.075 1046.14C591.933 1038.53 588.846 1027.8 587.882 1014.54C586.919 1001.29 588.083 985.665 591.312 968.396C597.769 933.86 612.446 892.964 634.574 851.838L632.813 850.89ZM595.418 1047.26L593.655 1046.31C593.038 1047.47 592.418 1048.62 591.796 1049.78L593.557 1050.72L595.318 1051.67C595.941 1050.51 596.562 1049.36 597.182 1048.2L595.418 1047.26ZM583.456 901.436L584.513 903.134C590.087 899.662 595.704 893.657 601.247 885.722C606.808 877.762 612.38 867.734 617.825 856.072C628.715 832.746 639.161 802.739 648.004 769.327L646.071 768.816L644.137 768.304C635.336 801.558 624.963 831.328 614.201 854.38C608.819 865.906 603.357 875.717 597.968 883.431C592.561 891.171 587.312 896.678 582.398 899.738L583.456 901.436ZM646.071 768.816L648.013 768.338C645.999 760.147 646.273 748.345 648.818 733.318C651.354 718.338 656.113 700.342 662.906 679.862L661.008 679.233L659.109 678.603C652.278 699.199 647.456 717.403 644.874 732.65C642.3 747.85 641.918 760.301 644.129 769.293L646.071 768.816ZM661.008 679.233L661.209 677.243C654.574 676.571 647.307 679.177 639.713 684.698C632.104 690.23 623.983 698.818 615.551 710.489L617.172 711.66L618.793 712.832C627.081 701.36 634.917 693.13 642.066 687.933C649.23 682.724 655.522 680.688 660.806 681.223L661.008 679.233ZM617.172 711.66L615.551 710.489C588.212 748.331 563.971 809.809 550.77 869.254L552.722 869.688L554.675 870.121C567.807 810.988 591.883 750.08 618.793 712.832L617.172 711.66ZM552.722 869.688L550.754 870.041C553.311 884.266 557.32 895.028 562.901 901.039C565.738 904.095 569.057 906 572.831 906.388C576.583 906.774 580.504 905.631 584.513 903.134L583.456 901.436L582.398 899.738C578.901 901.917 575.863 902.679 573.24 902.409C570.638 902.142 568.165 900.83 565.832 898.317C561.071 893.189 557.219 883.401 554.691 869.334L552.722 869.688Z" fill="black" mask="url(#path-2-inside-1_2708_1155)"/>
<mask id="path-4-inside-2_2708_1155" fill="white">
<path d="M202.403 505.54C201.627 509.543 200.869 513.526 200.131 517.484C201.194 513.428 202.265 509.392 203.341 505.377C203.028 505.431 202.716 505.487 202.403 505.54ZM142.004 -50.378C136.787 -47.8679 132.271 -44.3618 128.621 -39.8145C109.669 -16.2022 119.682 28.4116 150.18 70.2839C141.311 90.8508 129.333 112.733 114.645 134.363C66.7301 204.925 7.81843 246.528 -18.2597 228.67C-23.0001 246.475 -22.8719 258.999 -16.8694 263.762C0.579421 277.607 61.0507 220.639 118.196 136.522C132.104 116.05 144.531 95.8548 155.126 76.8173C162.106 85.7034 170.002 94.4083 178.735 102.697C140.89 134.025 103.732 199.329 81.9338 280.266C71.0752 320.585 65.3598 359.848 64.3788 395.089C67.357 379.117 71.0707 362.742 75.5391 346.163C109.851 218.86 175.607 127.618 222.412 142.369C252.275 151.782 267.206 202.07 265.19 270.309C263.896 274.011 262.606 277.755 261.321 281.539C262.452 281.637 263.578 281.745 264.696 281.861C262.697 317.76 256.233 358.025 245.032 399.583C239.976 418.34 234.237 436.316 227.978 453.284C245.944 421.925 261.785 383.467 273.321 340.632C280.924 312.403 286.005 284.69 288.706 258.514C317.179 197.492 343.496 162.868 361.675 168.079C377.426 172.595 384.641 206.32 383.988 259.589C376.551 256.148 369.881 252.269 364.099 247.995C359.243 252.774 356.802 257.544 357.166 262.157C357.815 270.381 367.302 277.068 383.31 281.912C381.538 319.632 376.511 364.992 368.408 415.376C369.859 414.214 371.317 413.059 372.779 411.912C382.427 366.741 389.753 323.797 394.683 284.814C405.803 287.202 419.04 288.917 433.912 289.893C431.112 294.58 428.543 299.424 426.225 304.404C430.086 299.394 434.23 294.641 438.628 290.175C467.391 291.728 501.819 290.618 538.636 286.405C565.505 283.331 590.863 278.919 613.491 273.632C646.314 298.009 669.031 337.836 672.596 384.994C674.674 412.479 669.988 439.068 660.061 462.756C685.526 432.299 699.795 391.741 696.567 349.051C693.935 314.241 680.093 283.594 659.04 260.538C693.223 248.41 714.084 234.313 713.067 221.433C712.311 211.847 699.549 204.347 678.451 199.424C669.633 213.902 654.417 227.575 634.543 239.325C608.597 221.75 576.676 213.202 542.943 217.256C502.52 222.114 467.365 244.123 443.59 275.537C426.488 273.412 410.785 269.795 397.032 264.893C407.906 165.211 401.806 95.5605 377.32 88.3912C355.328 81.9544 323.231 127.302 290.851 203.502C290.278 185.323 288.32 168.531 285.051 153.604C299.133 152.968 310.866 147.997 318.657 138.291C331.991 121.678 330.987 94.6675 318.597 65.5299C316.519 69.2129 314.141 72.7381 311.462 76.0744C310.979 76.6757 310.489 77.268 309.992 77.85C307.889 90.4966 302.301 103.385 293.302 114.583C288.633 120.391 283.418 125.283 277.901 129.21C269.002 105.93 255.714 90.0372 238.455 84.5929C225.905 80.6347 212.385 82.5591 198.612 89.4608C190.842 84.9205 183.321 79.3432 176.254 72.7249C171.911 68.6575 167.904 64.3517 164.239 59.8586C190.757 8.63114 201.989 -31.4006 190.074 -40.8559C183.955 -45.7109 172.546 -41.8586 157.845 -31.1809C172.116 -18.4578 171.075 12.8649 157.686 51.1082C135.941 19.3785 129.942 -19.4705 142.004 -50.378ZM520.992 248.821C545.476 245.878 569.009 249.979 589.945 259.637C568.719 266.994 545.001 272.473 519.824 275.405C496.687 278.1 474.429 278.396 453.916 276.622C473.239 261.732 496.087 251.814 520.992 248.821Z"/>
</mask>
<path d="M202.403 505.54C201.627 509.543 200.869 513.526 200.131 517.484C201.194 513.428 202.265 509.392 203.341 505.377C203.028 505.431 202.716 505.487 202.403 505.54ZM142.004 -50.378C136.787 -47.8679 132.271 -44.3618 128.621 -39.8145C109.669 -16.2022 119.682 28.4116 150.18 70.2839C141.311 90.8508 129.333 112.733 114.645 134.363C66.7301 204.925 7.81843 246.528 -18.2597 228.67C-23.0001 246.475 -22.8719 258.999 -16.8694 263.762C0.579421 277.607 61.0507 220.639 118.196 136.522C132.104 116.05 144.531 95.8548 155.126 76.8173C162.106 85.7034 170.002 94.4083 178.735 102.697C140.89 134.025 103.732 199.329 81.9338 280.266C71.0752 320.585 65.3598 359.848 64.3788 395.089C67.357 379.117 71.0707 362.742 75.5391 346.163C109.851 218.86 175.607 127.618 222.412 142.369C252.275 151.782 267.206 202.07 265.19 270.309C263.896 274.011 262.606 277.755 261.321 281.539C262.452 281.637 263.578 281.745 264.696 281.861C262.697 317.76 256.233 358.025 245.032 399.583C239.976 418.34 234.237 436.316 227.978 453.284C245.944 421.925 261.785 383.467 273.321 340.632C280.924 312.403 286.005 284.69 288.706 258.514C317.179 197.492 343.496 162.868 361.675 168.079C377.426 172.595 384.641 206.32 383.988 259.589C376.551 256.148 369.881 252.269 364.099 247.995C359.243 252.774 356.802 257.544 357.166 262.157C357.815 270.381 367.302 277.068 383.31 281.912C381.538 319.632 376.511 364.992 368.408 415.376C369.859 414.214 371.317 413.059 372.779 411.912C382.427 366.741 389.753 323.797 394.683 284.814C405.803 287.202 419.04 288.917 433.912 289.893C431.112 294.58 428.543 299.424 426.225 304.404C430.086 299.394 434.23 294.641 438.628 290.175C467.391 291.728 501.819 290.618 538.636 286.405C565.505 283.331 590.863 278.919 613.491 273.632C646.314 298.009 669.031 337.836 672.596 384.994C674.674 412.479 669.988 439.068 660.061 462.756C685.526 432.299 699.795 391.741 696.567 349.051C693.935 314.241 680.093 283.594 659.04 260.538C693.223 248.41 714.084 234.313 713.067 221.433C712.311 211.847 699.549 204.347 678.451 199.424C669.633 213.902 654.417 227.575 634.543 239.325C608.597 221.75 576.676 213.202 542.943 217.256C502.52 222.114 467.365 244.123 443.59 275.537C426.488 273.412 410.785 269.795 397.032 264.893C407.906 165.211 401.806 95.5605 377.32 88.3912C355.328 81.9544 323.231 127.302 290.851 203.502C290.278 185.323 288.32 168.531 285.051 153.604C299.133 152.968 310.866 147.997 318.657 138.291C331.991 121.678 330.987 94.6675 318.597 65.5299C316.519 69.2129 314.141 72.7381 311.462 76.0744C310.979 76.6757 310.489 77.268 309.992 77.85C307.889 90.4966 302.301 103.385 293.302 114.583C288.633 120.391 283.418 125.283 277.901 129.21C269.002 105.93 255.714 90.0372 238.455 84.5929C225.905 80.6347 212.385 82.5591 198.612 89.4608C190.842 84.9205 183.321 79.3432 176.254 72.7249C171.911 68.6575 167.904 64.3517 164.239 59.8586C190.757 8.63114 201.989 -31.4006 190.074 -40.8559C183.955 -45.7109 172.546 -41.8586 157.845 -31.1809C172.116 -18.4578 171.075 12.8649 157.686 51.1082C135.941 19.3785 129.942 -19.4705 142.004 -50.378ZM520.992 248.821C545.476 245.878 569.009 249.979 589.945 259.637C568.719 266.994 545.001 272.473 519.824 275.405C496.687 278.1 474.429 278.396 453.916 276.622C473.239 261.732 496.087 251.814 520.992 248.821Z" fill="#70D6D8"/>
<path d="M202.403 505.54L200.443 505.185L200.711 503.802L202.095 503.566L202.403 505.54ZM200.131 517.484L202.062 517.967L198.168 517.143L200.131 517.484ZM203.341 505.377L203.025 503.404L206.072 502.872L205.269 505.87L203.341 505.377ZM142.004 -50.378L141.161 -52.1813L145.694 -54.362L143.863 -49.6713L142.004 -50.378ZM128.621 -39.8145L127.072 -41.0565L127.072 -41.0566L128.621 -39.8145ZM150.18 70.2839L151.799 69.0877L152.466 70.0034L152.012 71.0566L150.18 70.2839ZM114.645 134.363L116.291 135.474L116.291 135.474L114.645 134.363ZM-18.2597 228.67L-20.1889 228.179L-19.4521 225.412L-17.1173 227.011L-18.2597 228.67ZM-16.8694 263.762L-18.1224 265.339L-18.1225 265.339L-16.8694 263.762ZM118.196 136.522L119.842 137.633V137.633L118.196 136.522ZM155.126 76.8173L153.385 75.8605L154.857 73.2158L156.701 75.5643L155.126 76.8173ZM178.735 102.697L180.119 101.233L181.75 102.781L179.994 104.234L178.735 102.697ZM81.9338 280.266L80.0062 279.769V279.769L81.9338 280.266ZM64.3788 395.089L66.3419 395.43L62.3823 395.062L64.3788 395.089ZM75.5391 346.163L73.6115 345.666L73.6115 345.666L75.5391 346.163ZM222.412 142.369L223.035 140.458L223.036 140.458L222.412 142.369ZM265.19 270.309L267.187 270.339L267.177 270.651L267.074 270.947L265.19 270.309ZM261.321 281.539L261.122 283.535L258.616 283.319L259.431 280.918L261.321 281.539ZM264.696 281.861L264.929 279.869L266.795 280.061L266.691 281.944L264.696 281.861ZM245.032 399.583L246.959 400.08L246.959 400.08L245.032 399.583ZM227.978 453.284L229.706 454.262L226.106 452.612L227.978 453.284ZM273.321 340.632L275.249 341.128L275.249 341.128L273.321 340.632ZM288.706 258.514L286.72 258.337L286.755 257.997L286.899 257.687L288.706 258.514ZM361.675 168.079L362.249 166.153L362.249 166.153L361.675 168.079ZM383.988 259.589L385.985 259.585L385.947 262.712L383.13 261.409L383.988 259.589ZM364.098 247.995L362.71 246.576L363.935 245.37L365.298 246.377L364.098 247.995ZM357.166 262.157L355.175 262.343L355.175 262.343L357.166 262.157ZM383.31 281.912L383.912 279.994L385.377 280.437L385.305 281.977L383.31 281.912ZM368.408 415.376L369.641 416.934L365.621 420.154L366.436 415.085L368.408 415.376ZM372.779 411.912L374.732 412.305L374.578 413.027L373.995 413.483L372.779 411.912ZM394.683 284.814L392.702 284.59L392.979 282.394L395.128 282.856L394.683 284.814ZM433.912 289.893L434.071 287.895L437.294 288.106L435.622 290.904L433.912 289.893ZM426.225 304.404L427.799 305.615L424.417 303.579L426.225 304.404ZM438.628 290.175L437.217 288.778L437.859 288.126L438.764 288.175L438.628 290.175ZM538.636 286.405L538.835 288.395V288.395L538.636 286.405ZM613.491 273.632L613.065 271.682L613.962 271.473L614.695 272.017L613.491 273.632ZM672.596 384.994L674.588 384.814V384.814L672.596 384.994ZM660.061 462.756L661.583 464.03L658.221 462.003L660.061 462.756ZM696.567 349.051L698.559 348.872L698.559 348.872L696.567 349.051ZM659.04 260.538L657.558 261.902L655.522 259.672L658.398 258.651L659.04 260.538ZM713.067 221.433L715.059 221.246L715.059 221.246L713.067 221.433ZM678.451 199.424L676.75 198.398L677.515 197.143L678.93 197.473L678.451 199.424ZM634.543 239.325L635.539 241.047L634.446 241.693L633.408 240.99L634.543 239.325ZM542.943 217.256L542.733 215.268L542.733 215.268L542.943 217.256ZM443.59 275.537L445.175 276.733L444.468 277.667L443.317 277.524L443.59 275.537ZM397.032 264.893L396.34 266.781L394.877 266.26L395.047 264.704L397.032 264.893ZM377.32 88.3912L377.905 86.4681L377.905 86.4681L377.32 88.3912ZM290.851 203.502L292.687 204.264L288.855 203.594L290.851 203.502ZM285.051 153.604L283.1 154.06L282.585 151.712L284.989 151.603L285.051 153.604ZM318.657 138.291L320.206 139.534L320.206 139.534L318.657 138.291ZM318.597 65.5299L316.862 64.5627L318.861 61.0189L320.436 64.7222L318.597 65.5299ZM311.462 76.0744L313.01 77.317L313.01 77.317L311.462 76.0744ZM309.992 77.85L308.022 77.5481L308.114 76.9912L308.482 76.5602L309.992 77.85ZM293.302 114.583L294.85 115.826L294.85 115.826L293.302 114.583ZM277.901 129.21L279.041 130.837L276.944 132.33L276.035 129.95L277.901 129.21ZM238.455 84.5929L239.078 82.6817L239.079 82.6817L238.455 84.5929ZM198.612 89.4608L199.485 91.2497L198.514 91.7359L197.588 91.1948L198.612 89.4608ZM176.254 72.7249L174.88 74.1976V74.1976L176.254 72.7249ZM164.239 59.8586L162.686 61.1399L161.861 60.1296L162.469 58.956L164.239 59.8586ZM190.074 -40.8559L191.327 -42.4332L191.327 -42.4332L190.074 -40.8559ZM157.845 -31.1809L156.506 -29.6758L154.658 -31.3227L156.688 -32.7971L157.845 -31.1809ZM157.686 51.1082L159.57 51.7475L158.256 55.4995L156.035 52.2584L157.686 51.1082ZM520.992 248.821L520.782 246.832V246.832L520.992 248.821ZM589.945 259.637L590.801 257.815L595.3 259.89L590.573 261.529L589.945 259.637ZM519.824 275.405L520.026 277.395L520.026 277.395L519.824 275.405ZM453.916 276.622L453.717 278.618L448.642 278.179L452.714 275.041L453.916 276.622ZM202.403 505.54L204.363 505.895C203.588 509.894 202.831 513.871 202.094 517.825L200.131 517.484L198.168 517.143C198.907 513.18 199.665 509.193 200.443 505.185L202.403 505.54ZM200.131 517.484L198.2 517.001C199.264 512.941 200.336 508.901 201.412 504.883L203.341 505.377L205.269 505.87C204.194 509.882 203.124 513.915 202.062 517.967L200.131 517.484ZM203.341 505.377L203.656 507.35C203.352 507.402 203.028 507.46 202.711 507.514L202.403 505.54L202.095 503.566C202.403 503.513 202.704 503.46 203.025 503.404L203.341 505.377ZM142.004 -50.378L142.847 -48.5747C137.89 -46.1894 133.619 -42.87 130.17 -38.5724L128.621 -39.8145L127.072 -41.0566C130.922 -45.8535 135.685 -49.5463 141.161 -52.1813L142.004 -50.378ZM128.621 -39.8145L130.17 -38.5724C121.221 -27.4224 118.93 -11.0718 122.814 7.95888C126.69 26.9544 136.672 48.3189 151.799 69.0877L150.18 70.2839L148.562 71.4802C133.19 50.3766 122.917 28.4981 118.9 8.81556C114.891 -10.8318 117.07 -28.5942 127.072 -41.0565L128.621 -39.8145ZM150.18 70.2839L152.012 71.0566C143.088 91.7493 131.047 113.744 116.291 135.474L114.645 134.363L113 133.252C127.62 111.721 139.534 89.9524 148.349 69.5113L150.18 70.2839ZM114.645 134.363L116.291 135.474C92.235 170.9 65.3665 199.139 41.1409 216.304C29.0342 224.882 17.4961 230.76 7.22862 233.334C-3.04247 235.908 -12.2585 235.22 -19.4021 230.329L-18.2597 228.67L-17.1173 227.011C-11.2217 231.048 -3.29459 231.857 6.31211 229.448C15.9225 227.039 26.9966 221.455 38.867 213.044C62.5956 196.231 89.1405 168.388 113 133.252L114.645 134.363ZM-18.2597 228.67L-16.3304 229.16C-18.6765 237.972 -19.7779 245.339 -19.5969 251.014C-19.4141 256.744 -17.9438 260.338 -15.6163 262.185L-16.8694 263.762L-18.1225 265.339C-21.7974 262.423 -23.3925 257.373 -23.5894 251.199C-23.7881 244.969 -22.5833 237.172 -20.1889 228.179L-18.2597 228.67ZM-16.8694 263.762L-15.6163 262.185C-13.9525 263.505 -11.6701 264.085 -8.6006 263.73C-5.50225 263.372 -1.73271 262.069 2.65725 259.777C11.4325 255.195 22.2552 246.888 34.4207 235.427C58.724 212.532 88.0344 177.386 116.551 135.411L118.196 136.522L119.842 137.633C91.2127 179.775 61.7146 215.171 37.1336 238.328C24.857 249.894 13.7186 258.49 4.46225 263.324C-0.163633 265.74 -4.42756 267.273 -8.19929 267.709C-11.9998 268.148 -15.4241 267.48 -18.1224 265.339L-16.8694 263.762ZM118.196 136.522L116.551 135.411C130.426 114.986 142.821 94.8427 153.385 75.8605L155.126 76.8173L156.866 77.7741C146.241 96.867 133.782 117.113 119.842 137.633L118.196 136.522ZM155.126 76.8173L156.701 75.5643C163.622 84.3751 171.455 93.0097 180.119 101.233L178.735 102.697L177.352 104.161C168.55 95.807 160.589 87.0317 153.55 78.0703L155.126 76.8173ZM178.735 102.697L179.994 104.234C142.607 135.183 105.605 200.027 83.8615 280.762L81.9338 280.266L80.0062 279.769C101.858 198.631 139.173 132.867 177.477 101.16L178.735 102.697ZM81.9338 280.266L83.8615 280.762C73.0412 320.939 67.3515 360.045 66.3753 395.116L64.3788 395.089L62.3823 395.062C63.368 359.651 69.1093 320.23 80.0062 279.769L81.9338 280.266ZM64.3788 395.089L62.4157 394.748C65.4038 378.723 69.1293 362.297 73.6115 345.666L75.5391 346.163L77.4667 346.66C73.0121 363.188 69.3103 379.51 66.3419 395.43L64.3788 395.089ZM75.5391 346.163L73.6115 345.666C90.8131 281.845 115.919 226.967 142.678 189.838C156.052 171.281 169.909 157.059 183.488 148.401C197.076 139.738 210.584 136.534 223.035 140.458L222.412 142.369L221.788 144.281C210.837 140.829 198.575 143.498 185.597 151.773C172.611 160.052 159.108 173.831 145.904 192.153C119.505 228.783 94.5768 283.178 77.4667 346.66L75.5391 346.163ZM222.412 142.369L223.036 140.458C238.878 145.451 250.372 161.14 257.656 183.636C264.964 206.207 268.198 236.087 267.187 270.339L265.19 270.309L263.194 270.278C264.198 236.292 260.974 206.909 253.855 184.922C246.712 162.862 235.809 148.7 221.788 144.281L222.412 142.369ZM265.19 270.309L267.074 270.947C265.782 274.643 264.494 278.382 263.211 282.161L261.321 281.539L259.431 280.918C260.719 277.128 262.011 273.378 263.306 269.67L265.19 270.309ZM261.321 281.539L261.52 279.544C262.665 279.642 263.802 279.752 264.929 279.869L264.696 281.861L264.464 283.853C263.354 283.738 262.24 283.631 261.122 283.535L261.321 281.539ZM264.696 281.861L266.691 281.944C264.683 317.994 258.194 358.397 246.959 400.08L245.032 399.583L243.104 399.086C254.272 357.652 260.711 317.526 262.702 281.778L264.696 281.861ZM245.032 399.583L246.959 400.08C241.888 418.894 236.131 436.929 229.85 453.955L227.978 453.284L226.106 452.612C232.344 435.703 238.064 417.786 243.104 399.086L245.032 399.583ZM227.978 453.284L226.25 452.305C244.119 421.114 259.897 382.822 271.393 340.136L273.321 340.632L275.249 341.128C263.672 384.113 247.769 422.736 229.706 454.262L227.978 453.284ZM273.321 340.632L271.393 340.136C278.969 312.008 284.03 284.402 286.72 258.337L288.706 258.514L290.693 258.692C287.98 284.979 282.879 312.798 275.249 341.128L273.321 340.632ZM288.706 258.514L286.899 257.687C301.161 227.121 314.938 203.043 327.495 187.226C333.769 179.324 339.818 173.381 345.559 169.742C351.307 166.098 356.962 164.637 362.249 166.153L361.675 168.079L361.101 170.005C357.299 168.916 352.848 169.829 347.658 173.119C342.462 176.413 336.743 181.963 330.606 189.693C318.342 205.141 304.724 228.885 290.513 259.342L288.706 258.514ZM361.675 168.079L362.249 166.153C366.807 167.46 370.557 170.83 373.597 175.714C376.633 180.593 379.055 187.124 380.927 195.064C384.672 210.949 386.313 232.885 385.985 259.585L383.988 259.589L381.991 259.593C382.317 233.023 380.676 211.462 377.039 196.039C375.22 188.325 372.925 182.249 370.199 177.87C367.477 173.495 364.419 170.957 361.101 170.005L361.675 168.079ZM383.988 259.589L383.13 261.409C375.591 257.921 368.803 253.977 362.899 249.613L364.098 247.995L365.298 246.377C370.959 250.561 377.511 254.375 384.846 257.768L383.988 259.589ZM364.098 247.995L365.487 249.415C360.821 254.007 358.861 258.22 359.157 261.97L357.166 262.157L355.175 262.343C354.743 256.868 357.665 251.541 362.71 246.576L364.098 247.995ZM357.166 262.157L359.157 261.97C359.419 265.3 361.48 268.569 365.681 271.686C369.881 274.803 376.016 277.605 383.912 279.994L383.31 281.912L382.708 283.83C374.595 281.375 367.983 278.411 363.275 274.918C358.568 271.425 355.561 267.238 355.175 262.343L357.166 262.157ZM383.31 281.912L385.305 281.977C383.529 319.792 378.491 365.231 370.38 415.667L368.408 415.376L366.436 415.085C374.531 364.754 379.547 319.471 381.315 281.846L383.31 281.912ZM368.408 415.376L367.175 413.818C368.632 412.651 370.095 411.492 371.563 410.341L372.779 411.912L373.995 413.483C372.539 414.625 371.087 415.776 369.641 416.934L368.408 415.376ZM372.779 411.912L370.827 411.52C380.463 366.399 387.779 323.511 392.702 284.59L394.683 284.814L396.664 285.038C391.726 324.083 384.39 367.084 374.732 412.305L372.779 411.912ZM394.683 284.814L395.128 282.856C406.13 285.218 419.268 286.923 434.071 287.895L433.912 289.893L433.754 291.892C418.813 290.911 405.475 289.186 394.238 286.773L394.683 284.814ZM433.912 289.893L435.622 290.904C432.857 295.531 430.321 300.313 428.033 305.23L426.225 304.404L424.417 303.579C426.765 298.534 429.367 293.628 432.203 288.882L433.912 289.893ZM426.225 304.404L424.651 303.194C428.563 298.119 432.761 293.303 437.217 288.778L438.628 290.175L440.039 291.572C435.7 295.978 431.61 300.669 427.799 305.615L426.225 304.404ZM438.628 290.175L438.764 288.175C467.4 289.721 501.714 288.618 538.438 284.416L538.636 286.405L538.835 288.395C501.923 292.619 467.383 293.735 438.492 292.175L438.628 290.175ZM538.636 286.405L538.438 284.416C565.235 281.349 590.517 276.95 613.065 271.682L613.491 273.632L613.918 275.583C591.21 280.887 565.775 285.313 538.835 288.395L538.636 286.405ZM613.491 273.632L614.695 272.017C647.989 296.744 670.981 337.101 674.588 384.814L672.596 384.994L670.604 385.174C667.082 338.571 644.639 299.274 612.288 275.248L613.491 273.632ZM672.596 384.994L674.588 384.814C676.69 412.623 671.949 439.531 661.9 463.51L660.061 462.756L658.221 462.003C668.027 438.604 672.658 412.335 670.604 385.174L672.596 384.994ZM660.061 462.756L658.538 461.483C683.675 431.418 697.762 391.379 694.576 349.231L696.567 349.051L698.559 348.872C701.827 392.104 687.377 433.18 661.583 464.03L660.061 462.756ZM696.567 349.051L694.576 349.231C691.977 314.865 678.315 284.634 657.558 261.902L659.04 260.538L660.522 259.174C681.871 282.554 695.893 313.617 698.559 348.872L696.567 349.051ZM659.04 260.538L658.398 258.651C675.409 252.616 688.972 246.134 698.115 239.639C707.41 233.035 711.492 226.89 711.076 221.619L713.067 221.433L715.059 221.246C715.659 228.855 709.819 236.199 700.393 242.896C690.813 249.702 676.855 256.332 659.682 262.425L659.04 260.538ZM713.067 221.433L711.076 221.619C710.77 217.74 708.011 213.932 702.316 210.385C696.653 206.858 688.422 203.813 677.972 201.375L678.451 199.424L678.93 197.473C689.578 199.958 698.277 203.125 704.458 206.974C710.609 210.805 714.608 215.54 715.059 221.246L713.067 221.433ZM678.451 199.424L680.151 200.45C671.102 215.308 655.589 229.192 635.539 241.047L634.543 239.325L633.547 237.604C653.245 225.957 668.164 212.496 676.75 198.398L678.451 199.424ZM634.543 239.325L633.408 240.99C607.841 223.67 576.394 215.25 543.153 219.245L542.943 217.256L542.733 215.268C576.959 211.155 609.354 219.829 635.677 237.661L634.543 239.325ZM542.943 217.256L543.153 219.245C503.318 224.032 468.644 245.723 445.175 276.733L443.59 275.537L442.006 274.34C466.086 242.523 501.721 220.197 542.733 215.268L542.943 217.256ZM443.59 275.537L443.317 277.524C426.092 275.385 410.247 271.738 396.34 266.781L397.032 264.893L397.725 263.005C411.324 267.852 426.883 271.44 443.864 273.549L443.59 275.537ZM397.032 264.893L395.047 264.704C400.476 214.928 401.655 172.754 398.449 142.187C396.846 126.893 394.155 114.619 390.418 105.78C386.66 96.8908 382.014 91.86 376.735 90.3143L377.32 88.3912L377.905 86.4681C384.869 88.507 390.167 94.8711 394.1 104.172C398.053 113.524 400.799 126.237 402.422 141.712C405.67 172.683 404.461 215.176 399.018 265.083L397.032 264.893ZM377.32 88.3912L376.735 90.3143C372.036 88.9389 366.539 90.2386 360.197 94.5934C353.855 98.9477 346.927 106.192 339.58 116.135C324.897 136.006 308.851 166.225 292.687 204.264L290.851 203.502L289.016 202.739C305.231 164.579 321.423 134.025 336.382 113.78C343.855 103.667 351.099 96.0182 357.972 91.2988C364.845 86.58 371.608 84.6251 377.905 86.4681L377.32 88.3912ZM290.851 203.502L288.855 203.594C288.285 185.517 286.339 168.848 283.1 154.06L285.051 153.604L287.002 153.148C290.301 168.213 292.271 185.13 292.848 203.41L290.851 203.502ZM285.051 153.604L284.989 151.603C298.651 150.986 309.773 146.188 317.108 137.049L318.657 138.291L320.206 139.534C311.96 149.807 299.614 154.95 285.112 155.604L285.051 153.604ZM318.657 138.291L317.108 137.049C329.715 121.341 329.066 95.2825 316.758 66.3375L318.597 65.5299L320.436 64.7222C332.908 94.0526 334.266 122.015 320.206 139.534L318.657 138.291ZM318.597 65.5299L320.332 66.497C318.201 70.2753 315.76 73.8928 313.01 77.317L311.462 76.0744L309.913 74.8317C312.522 71.5835 314.838 68.1506 316.862 64.5627L318.597 65.5299ZM311.462 76.0744L313.01 77.317C312.515 77.9336 312.012 78.5416 311.501 79.1398L309.992 77.85L308.482 76.5602C308.965 75.9944 309.442 75.4178 309.913 74.8317L311.462 76.0744ZM309.992 77.85L311.962 78.1518C309.801 91.1442 304.068 104.357 294.85 115.826L293.302 114.583L291.754 113.339C300.535 102.413 305.976 89.849 308.022 77.5481L309.992 77.85ZM293.302 114.583L294.85 115.826C290.067 121.777 284.715 126.799 279.041 130.837L277.901 129.21L276.76 127.582C282.12 123.767 287.2 119.006 291.754 113.339L293.302 114.583ZM277.901 129.21L276.035 129.95C267.238 106.939 254.275 91.6915 237.83 86.5041L238.455 84.5929L239.079 82.6817C257.152 88.3828 270.765 104.921 279.767 128.47L277.901 129.21ZM238.455 84.5929L237.831 86.5041C225.89 82.738 212.914 84.5203 199.485 91.2497L198.612 89.4608L197.74 87.6718C211.857 80.5978 225.92 78.5313 239.078 82.6817L238.455 84.5929ZM198.612 89.4608L197.588 91.1948C189.69 86.5798 182.052 80.9145 174.88 74.1976L176.254 72.7249L177.629 71.2522C184.59 77.7718 191.994 83.2612 199.636 87.7267L198.612 89.4608ZM176.254 72.7249L174.88 74.1976C170.472 70.0697 166.406 65.6998 162.686 61.1399L164.239 59.8586L165.792 58.5772C169.403 63.0035 173.35 67.2454 177.629 71.2522L176.254 72.7249ZM164.239 59.8586L162.469 58.956C175.694 33.4085 185.058 10.7424 189.638 -6.64861C191.931 -15.3538 192.995 -22.6297 192.797 -28.2346C192.597 -33.8928 191.13 -37.4456 188.821 -39.2786L190.074 -40.8559L191.327 -42.4332C194.975 -39.5385 196.573 -34.5416 196.789 -28.4338C197.007 -22.2725 195.84 -14.5659 193.5 -5.67782C188.813 12.1177 179.302 35.0813 166.009 60.7611L164.239 59.8586ZM190.074 -40.8559L188.821 -39.2785C186.502 -41.1185 182.919 -41.5352 177.742 -39.9305C172.592 -38.3339 166.272 -34.8459 159.001 -29.5647L157.845 -31.1809L156.688 -32.7971C164.118 -38.1936 170.854 -41.9706 176.613 -43.7558C182.345 -45.5329 187.527 -45.4483 191.327 -42.4332L190.074 -40.8559ZM157.845 -31.1809L159.184 -32.686C166.943 -25.7682 170.287 -14.0493 170.135 0.386187C169.982 14.8809 166.308 32.5008 159.57 51.7475L157.686 51.1082L155.803 50.469C162.453 31.4724 165.994 14.3092 166.141 0.401016C166.288 -13.5664 163.017 -23.8705 156.506 -29.6758L157.845 -31.1809ZM157.686 51.1082L156.035 52.2584C133.993 20.0946 127.797 -19.4434 140.146 -51.0847L142.004 -50.378L143.863 -49.6713C132.086 -19.4975 137.89 18.6623 159.337 49.958L157.686 51.1082ZM520.992 248.821L520.782 246.832C545.643 243.844 569.545 248.01 590.801 257.815L589.945 259.637L589.089 261.458C568.474 251.949 545.308 247.912 521.202 250.809L520.992 248.821ZM589.945 259.637L590.573 261.529C569.203 268.936 545.342 274.446 520.026 277.395L519.824 275.405L519.621 273.416C544.66 270.5 568.234 265.052 589.317 257.745L589.945 259.637ZM519.824 275.405L520.026 277.395C496.761 280.105 474.368 280.404 453.717 278.618L453.916 276.622L454.116 274.627C474.489 276.389 496.612 276.096 519.621 273.416L519.824 275.405ZM453.916 276.622L452.714 275.041C472.307 259.942 495.494 249.872 520.782 246.832L520.992 248.821L521.202 250.809C496.679 253.757 474.171 263.522 455.119 278.204L453.916 276.622Z" fill="black" mask="url(#path-4-inside-2_2708_1155)"/>
<mask id="path-6-inside-3_2708_1155" fill="white">
<path d="M248.854 517.656C243.116 547.304 236.102 578.363 227.833 610.216C207.15 689.893 181.985 761.57 156.746 816.597C168.934 810.253 181.893 806.712 195.132 806.585C200.691 806.532 206.094 807.086 211.315 808.196C183.462 814.81 157.986 831.189 138.28 853.852C129.086 870.896 120.027 885.404 111.322 896.947C104.627 912.599 100.23 929.556 98.6894 947.245C98.419 950.351 98.2421 953.432 98.1534 956.487C100.87 968.536 102.142 981.251 101.825 994.303C113.613 1045.19 152.197 1082.32 202.024 1086.68C191.768 1091.08 181.048 1093.51 170.137 1093.61C137.481 1093.92 110.154 1073.4 93.9331 1041.06C89.9576 1053.61 84.6706 1065.31 78.3275 1075.99C82.9787 1055.31 84.8611 1034.98 84.2357 1015.79C80.451 1002.32 78.277 987.613 77.9804 972.074C67.3448 932.263 43.843 902.381 10.8539 892.921C-42.763 877.545 -103.718 921.193 -135.827 993.364C-134.745 986.136 -133.174 978.857 -131.088 971.582C-109.543 896.451 -41.3964 850.08 21.1212 868.008C28.106 870.011 34.7243 872.733 40.9421 876.091C33.0585 813.101 46.1423 699.583 78.835 573.642C84.6306 551.316 90.7797 529.618 97.182 508.738C54.0404 700.585 46.4707 852.122 82.3697 860.935C119.925 870.152 191.843 719.935 248.854 517.656Z"/>
</mask>
<path d="M248.854 517.656C243.116 547.304 236.102 578.363 227.833 610.216C207.15 689.893 181.985 761.57 156.746 816.597C168.934 810.253 181.893 806.712 195.132 806.585C200.691 806.532 206.094 807.086 211.315 808.196C183.462 814.81 157.986 831.189 138.28 853.852C129.086 870.896 120.027 885.404 111.322 896.947C104.627 912.599 100.23 929.556 98.6894 947.245C98.419 950.351 98.2421 953.432 98.1534 956.487C100.87 968.536 102.142 981.251 101.825 994.303C113.613 1045.19 152.197 1082.32 202.024 1086.68C191.768 1091.08 181.048 1093.51 170.137 1093.61C137.481 1093.92 110.154 1073.4 93.9331 1041.06C89.9576 1053.61 84.6706 1065.31 78.3275 1075.99C82.9787 1055.31 84.8611 1034.98 84.2357 1015.79C80.451 1002.32 78.277 987.613 77.9804 972.074C67.3448 932.263 43.843 902.381 10.8539 892.921C-42.763 877.545 -103.718 921.193 -135.827 993.364C-134.745 986.136 -133.174 978.857 -131.088 971.582C-109.543 896.451 -41.3964 850.08 21.1212 868.008C28.106 870.011 34.7243 872.733 40.9421 876.091C33.0585 813.101 46.1423 699.583 78.835 573.642C84.6306 551.316 90.7797 529.618 97.182 508.738C54.0404 700.585 46.4707 852.122 82.3697 860.935C119.925 870.152 191.843 719.935 248.854 517.656Z" fill="#70D6D8"/>
<path d="M248.854 517.656L250.818 518.036L246.929 517.114L248.854 517.656ZM227.833 610.216L229.769 610.719V610.719L227.833 610.216ZM156.746 816.597L154.928 815.763L152.497 821.063L157.669 818.371L156.746 816.597ZM195.132 806.585L195.113 804.586V804.586L195.132 806.585ZM211.315 808.196L211.778 810.142L211.731 806.239L211.315 808.196ZM138.28 853.852L136.771 852.539L136.625 852.707L136.52 852.902L138.28 853.852ZM111.322 896.947L109.725 895.742L109.579 895.936L109.483 896.16L111.322 896.947ZM98.6894 947.245L96.697 947.071V947.071L98.6894 947.245ZM98.1534 956.487L96.1542 956.428L96.1469 956.68L96.2024 956.926L98.1534 956.487ZM101.825 994.303L99.8261 994.254L99.8199 994.507L99.8771 994.754L101.825 994.303ZM202.024 1086.68L202.812 1088.52L202.198 1084.69L202.024 1086.68ZM170.137 1093.61L170.156 1095.61L170.156 1095.61L170.137 1093.61ZM93.9331 1041.06L95.7209 1040.16L93.5135 1035.76L92.0265 1040.45L93.9331 1041.06ZM78.3275 1075.99L76.3763 1075.55L80.047 1077.01L78.3275 1075.99ZM84.2357 1015.79L86.2346 1015.72L86.2267 1015.48L86.1611 1015.25L84.2357 1015.79ZM77.9804 972.074L79.9801 972.035L79.9754 971.792L79.9127 971.557L77.9804 972.074ZM10.8539 892.921L11.4052 890.998L11.4052 890.998L10.8539 892.921ZM-135.827 993.364L-137.805 993.068L-134 994.177L-135.827 993.364ZM-131.088 971.582L-133.01 971.03V971.03L-131.088 971.582ZM21.1212 868.008L21.6725 866.085L21.6725 866.085L21.1212 868.008ZM40.9421 876.091L39.9916 877.851L43.4089 879.697L42.9266 875.843L40.9421 876.091ZM78.835 573.642L76.8992 573.139V573.139L78.835 573.642ZM97.182 508.738L99.1333 509.177L95.2699 508.152L97.182 508.738ZM82.3697 860.935L81.8929 862.877L81.893 862.877L82.3697 860.935ZM248.854 517.656L246.891 517.276C241.161 546.881 234.156 577.9 225.898 609.714L227.833 610.216L229.769 610.719C238.048 578.826 245.072 547.726 250.818 518.036L248.854 517.656ZM227.833 610.216L225.898 609.714C205.238 689.3 180.109 760.863 154.928 815.763L156.746 816.597L158.564 817.431C183.861 762.276 209.063 690.485 229.769 610.719L227.833 610.216ZM156.746 816.597L157.669 818.371C169.611 812.155 182.262 808.709 195.151 808.585L195.132 806.585L195.113 804.586C181.523 804.715 168.257 808.351 155.822 814.823L156.746 816.597ZM195.132 806.585L195.151 808.585C200.564 808.534 205.821 809.073 210.9 810.152L211.315 808.196L211.731 806.239C206.367 805.1 200.818 804.531 195.113 804.586L195.132 806.585ZM211.315 808.196L210.853 806.25C182.546 812.972 156.717 829.6 136.771 852.539L138.28 853.852L139.79 855.164C159.254 832.778 184.379 816.648 211.778 810.142L211.315 808.196ZM138.28 853.852L136.52 852.902C127.358 869.887 118.352 884.303 109.725 895.742L111.322 896.947L112.919 898.151C121.702 886.504 130.814 871.905 140.041 854.801L138.28 853.852ZM111.322 896.947L109.483 896.16C102.708 912.001 98.2565 929.164 96.697 947.071L98.6894 947.245L100.682 947.418C102.203 929.947 106.547 913.197 113.161 897.733L111.322 896.947ZM98.6894 947.245L96.697 947.071C96.4231 950.216 96.244 953.336 96.1542 956.428L98.1534 956.487L100.153 956.545C100.24 953.529 100.415 950.485 100.682 947.418L98.6894 947.245ZM98.1534 956.487L96.2024 956.926C98.8826 968.812 100.138 981.363 99.8261 994.254L101.825 994.303L103.825 994.351C104.145 981.138 102.858 968.259 100.104 956.047L98.1534 956.487ZM101.825 994.303L99.8771 994.754C111.833 1046.36 151.046 1084.23 201.849 1088.68L202.024 1086.68L202.198 1084.69C153.348 1080.42 115.393 1044.01 103.774 993.851L101.825 994.303ZM202.024 1086.68L201.235 1084.84C191.201 1089.15 180.741 1091.51 170.118 1091.61L170.137 1093.61L170.156 1095.61C181.355 1095.5 192.336 1093.02 202.812 1088.52L202.024 1086.68ZM170.137 1093.61L170.118 1091.61C138.422 1091.91 111.698 1072.02 95.7209 1040.16L93.9331 1041.06L92.1453 1041.95C108.61 1074.79 136.539 1095.93 170.156 1095.61L170.137 1093.61ZM93.9331 1041.06L92.0265 1040.45C88.0971 1052.86 82.8728 1064.42 76.608 1074.96L78.3275 1075.99L80.047 1077.01C86.4685 1066.2 91.8182 1054.36 95.8398 1041.66L93.9331 1041.06ZM78.3275 1075.99L80.2787 1076.42C84.9659 1055.59 86.8657 1035.09 86.2346 1015.72L84.2357 1015.79L82.2368 1015.85C82.8565 1034.87 80.9915 1055.03 76.3763 1075.55L78.3275 1075.99ZM84.2357 1015.79L86.1611 1015.25C82.4248 1001.95 80.2736 987.413 79.9801 972.035L77.9804 972.074L75.9808 972.112C76.2804 987.812 78.4772 1002.69 82.3103 1016.33L84.2357 1015.79ZM77.9804 972.074L79.9127 971.557C69.1659 931.331 45.2956 900.717 11.4052 890.998L10.8539 892.921L10.3026 894.843C42.3905 904.045 65.5237 933.195 76.0482 972.59L77.9804 972.074ZM10.8539 892.921L11.4052 890.998C-16.1274 883.103 -45.3856 890.414 -71.6925 908.669C-97.9968 926.923 -121.478 956.19 -137.655 992.551L-135.827 993.364L-134 994.177C-118.068 958.367 -95.0169 929.724 -69.412 911.956C-43.8096 894.189 -15.7817 887.363 10.3026 894.843L10.8539 892.921ZM-135.827 993.364L-133.85 993.66C-132.78 986.518 -131.227 979.324 -129.165 972.133L-131.088 971.582L-133.01 971.03C-135.121 978.39 -136.71 985.754 -137.805 993.068L-135.827 993.364ZM-131.088 971.582L-129.165 972.133C-107.825 897.719 -40.5703 852.397 20.5698 869.93L21.1212 868.008L21.6725 866.085C-42.2225 847.762 -111.26 895.184 -133.01 971.03L-131.088 971.582ZM21.1212 868.008L20.5698 869.93C27.4142 871.893 33.8988 874.56 39.9916 877.851L40.9421 876.091L41.8925 874.332C35.5497 870.906 28.7978 868.128 21.6725 866.085L21.1212 868.008ZM40.9421 876.091L42.9266 875.843C35.0909 813.235 48.0968 700.013 80.7709 574.144L78.835 573.642L76.8992 573.139C44.1876 699.153 31.0262 812.968 38.9575 876.34L40.9421 876.091ZM78.835 573.642L80.7709 574.144C86.5592 551.846 92.7004 530.176 99.0942 509.325L97.182 508.738L95.2699 508.152C88.859 529.06 82.702 550.785 76.8992 573.139L78.835 573.642ZM97.182 508.738L95.2308 508.3C73.6447 604.291 60.9424 690.261 58.1376 753.386C56.736 784.931 57.8002 810.88 61.5108 829.554C63.365 838.886 65.9021 846.52 69.2045 852.152C72.511 857.79 76.6999 861.602 81.8929 862.877L82.3697 860.935L82.8465 858.992C79.0647 858.064 75.6373 855.213 72.6549 850.128C69.6685 845.036 67.2444 837.886 65.4341 828.775C61.8155 810.563 60.7375 784.985 62.1336 753.563C64.9244 690.755 77.5778 605.033 99.1333 509.177L97.182 508.738ZM82.3697 860.935L81.893 862.877C87.3189 864.209 93.12 862.594 99.0434 858.813C104.97 855.03 111.239 848.946 117.763 840.89C130.82 824.767 145.19 800.374 160.117 769.476C189.984 707.651 222.254 619.409 250.779 518.199L248.854 517.656L246.929 517.114C218.443 618.182 186.248 706.188 156.515 767.737C141.641 798.526 127.427 822.601 114.655 838.373C108.265 846.264 102.309 851.984 96.8913 855.441C91.4707 858.901 86.8092 859.965 82.8464 858.992L82.3697 860.935Z" fill="black" mask="url(#path-6-inside-3_2708_1155)"/>
</g>
<defs>
<clipPath id="clip0_2708_1155">
<rect width="687" height="1051" rx="40" fill="white"/>
</clipPath>
</defs>
</svg>
