<svg width="1920" height="255" viewBox="0 0 1920 255" fill="none" xmlns="http://www.w3.org/2000/svg">
<g clip-path="url(#clip0_2768_22)">
<path fill-rule="evenodd" clip-rule="evenodd" d="M51.7304 231.333C53.2325 231.018 56.1343 230.035 58.1809 229.147C62.9494 227.078 61.9572 226.017 54.6112 225.331L49 224.807L49 228.356V231.905L51.7304 231.333ZM49.3982 -10.1846C49.6175 -10.1846 50.4156 -11.3817 51.1726 -12.8444C52.8385 -16.0671 52.4437 -22.4453 50.3954 -25.3681C49.0563 -27.2811 49 -27.0164 49 -18.7731C49 -14.0491 49.1789 -10.1846 49.3982 -10.1846ZM76.5556 -804.264C79.0556 -798.764 76.5813 -798.894 82.936 -797.801C89.2898 -796.708 95.4236 -795.201 96.5661 -794.453C98.9739 -792.874 100.248 -790.002 100.248 -786.149C100.248 -783.267 98.7286 -781.509 90.8482 -775.268C85.8991 -771.349 85.1749 -769.346 87.7272 -766.629C90.1745 -764.025 95.1581 -762.563 110.329 -760.003C134.143 -755.983 142.992 -755.753 146.309 -759.07C147.577 -760.337 147.571 -760.749 146.227 -764.531C143.865 -771.182 144.193 -772.377 150.174 -778.895C153.779 -782.824 156.154 -786.325 157.314 -789.427C158.271 -791.983 159.694 -795.052 160.478 -796.249C161.819 -798.294 161.819 -798.486 160.475 -799.468C158.619 -800.826 143.209 -801.844 134.893 -801.159C127.498 -800.55 120.53 -801.4 110.317 -804.155C103.848 -805.901 102.76 -806.517 97.6482 -811.317C91.1028 -817.464 92.5159 -815.592 82.936 -818.141C79.0941 -819.163 77.5556 -819.264 77.5556 -819.264C77.0556 -819.264 76.5556 -818.141 76.5556 -818.141L76.0556 -814.764V-810.764V-808.264L76.5556 -804.264ZM52.5705 -864.946C56.6577 -865.599 57.8322 -866.456 57.1341 -868.277C56.7149 -869.367 50.8113 -872.992 49.4537 -872.992C49.2042 -872.992 49 -871.053 49 -868.683V-864.375L52.5705 -864.946ZM93.0009 14.3907C96.8402 14.3932 103.152 14.6428 107.027 14.9444C112.861 15.398 114.005 15.2905 113.681 14.3168C112.806 11.6922 107.77 9.81122 101.684 9.83475C95.9875 9.85743 87.5174 11.9636 86.5 13.6094C86.2211 14.0606 88.9473 14.3882 93.0009 14.3907ZM84.6855 -67.5739C85.0619 -67.3412 87.5352 -66.3406 90.1816 -65.3501C94.0059 -63.9194 95.2434 -63.7589 96.2171 -64.5671C97.6352 -65.7442 97.841 -70.6236 96.5725 -72.9944C94.7099 -76.4734 84 -73.6169 84 -69.6406C84 -68.7367 84.3083 -67.8067 84.6855 -67.5739ZM77.2693 227.846C84.4919 229.903 105.563 228.748 119.398 225.537C124.345 224.39 130.521 223.037 133.123 222.531C138.334 221.518 144.933 218.488 145.424 216.882C145.618 216.252 142.556 216.944 137.485 218.678C126.688 222.369 121.43 223.146 97.3903 224.596C78.9899 225.706 73.0973 226.658 77.2693 227.846ZM103.481 -259.281C105.723 -255.628 114.9 -247.23 128.816 -236.097C142.192 -225.397 161.895 -210.675 166.814 -207.706C170.573 -205.438 173.894 -205.572 173.477 -207.975C172.88 -211.412 165.963 -220.206 156.204 -229.933C148.143 -237.969 143.367 -241.848 133.171 -248.641C118.303 -258.547 109.828 -263.046 105.552 -263.301C101.906 -263.519 101.438 -262.611 103.481 -259.281ZM126.079 -16.3444C130.864 -14.3449 138.585 -15.2732 148.135 -18.9949C160.666 -23.8794 166.915 -27.5407 174.255 -34.2995C178 -37.7482 183.606 -42.2143 186.713 -44.2238C189.821 -46.2343 192.902 -48.5287 193.562 -49.3234C194.365 -50.2904 194.96 -54.1256 195.363 -60.9306C195.694 -66.5199 196.217 -73.7332 196.524 -76.9585C197.042 -82.3949 196.979 -82.7376 195.667 -81.6497C194.889 -81.0036 192.791 -77.9859 191.004 -74.9438C187.494 -68.9672 183.568 -64.8632 177.396 -60.718C173.424 -58.0506 172.896 -57.1013 170.789 -48.8303C168.986 -41.7472 167.51 -39.809 158.89 -33.2023C149.275 -25.8319 146.066 -24.4179 133.579 -22.0505C128.629 -21.1121 124.207 -20.1157 123.754 -19.8359C122.161 -18.8513 122.963 -17.6466 126.079 -16.3444ZM128.894 120.875C132.958 131.13 133.758 132.636 135.142 132.636C136.774 132.636 138.893 127.762 138.893 124.007C138.893 119.851 135.082 112.851 131.672 110.744C125.793 107.111 124.831 110.621 128.894 120.875ZM127.268 -442.638C127.91 -440.879 128.666 -440.328 130.432 -440.328C135.024 -440.328 137.237 -445.759 133.665 -448.261C131.077 -450.075 129.136 -449.896 127.599 -447.702C126.12 -445.59 126.13 -445.753 127.268 -442.638ZM130.686 153.083C131.527 154.211 133.605 154.826 138.388 155.362C145.851 156.199 149.877 158.191 155.57 163.861C162 167.405 159 163.859 163 165.859C165.5 167.359 174 164.859 174 164.859C174 164.859 174.964 164.631 176 164.359C178.736 163.644 180.433 160.859 181 159.861C189.899 144.185 178.337 159.941 165.154 152.216C162.007 150.371 159.848 149.862 153.224 149.404C143.82 148.751 141.636 147.811 138.065 142.873C136.622 140.879 134.993 139.397 134.445 139.58C131.385 140.6 128.665 150.373 130.686 153.083ZM149.036 -463.545C151.193 -460.801 152.335 -460.723 152.335 -463.318C152.335 -465.377 149.442 -469.732 148.073 -469.732C146.654 -469.732 147.266 -465.794 149.036 -463.545ZM151.081 86.6472C152.56 92.5155 154.34 96.1751 157.209 99.2415C161.594 103.929 162.538 101.57 160.316 91.4704C158.745 84.3277 158.759 78.1032 160.363 69.6465C161.989 61.0731 161.744 56.7305 159.612 56.3264C157.639 55.9517 154.346 59.0206 152.098 63.3263C149.833 67.6647 149.312 79.6263 151.081 86.6472ZM163.99 45.1998C164.668 46.2054 165.595 46.0382 169.803 44.1496C175.729 41.4898 176.173 41.4637 184.064 43.3095C192.904 45.377 193.816 44.8654 197.804 35.6022C202.305 25.1452 202.239 24.7226 195.63 21.6301C192.465 20.1489 189.538 19.2979 188.614 19.5911C187.743 19.8675 184.8 21.8258 182.075 23.9421C179.349 26.0592 174.63 29.245 171.588 31.0218C168.546 32.7987 165.57 34.8402 164.974 35.5576C163.589 37.227 162.935 43.6346 163.99 45.1998ZM169.863 -386.944C173.59 -380.832 185.327 -374.181 190.63 -375.175C202.062 -377.32 196.754 -391.113 181.981 -397.647C176.42 -400.107 171.917 -400.084 169.894 -397.587C167.855 -395.069 167.841 -390.26 169.863 -386.944ZM186.916 -421.425C189.334 -417.034 194.232 -413.042 199.796 -410.926C203.243 -409.615 202.386 -411.782 197.186 -417.529C192.417 -422.8 188.249 -425.693 186.756 -424.771C185.729 -424.136 185.759 -423.528 186.916 -421.425ZM192.555 -964.621C194.855 -963.392 198.892 -963.497 202.191 -964.876C207.346 -967.03 213.847 -976.65 212.507 -980.142C211.719 -982.197 210.503 -981.54 207.784 -977.588C205.04 -973.601 202.572 -971.982 195.644 -969.629C191.074 -968.076 189.84 -966.075 192.555 -964.621ZM199.592 -344.019C203.429 -338.277 209.359 -334.472 214.469 -334.472C219.113 -334.472 220.999 -336.047 222.077 -340.824C223.098 -345.35 221.855 -347.73 217.456 -349.676C213.42 -351.461 201.619 -353.163 198.654 -352.387C196.06 -351.709 196.384 -348.819 199.592 -344.019ZM199.938 -113.73C200.808 -111.576 202.707 -112.785 203.586 -116.053C204.596 -119.802 204.02 -124.399 202.254 -126.708C201.243 -128.028 200.986 -128.061 200.251 -126.962C199.396 -125.685 199.16 -115.66 199.938 -113.73ZM208.565 -32.8679C209.368 -28.8513 210.832 -26.3595 212.746 -25.7512C213.628 -25.4715 217.142 -24.9296 220.552 -24.5473C223.964 -24.1642 228.026 -23.1939 229.58 -22.3907C234.125 -20.0401 247.905 -6.20828 248.996 -2.89987C251.077 3.40526 248.17 7.95033 238.438 13.6094C228.927 19.1383 228.641 20.7958 236.584 24.368C240.583 26.1667 242.186 26.3474 254.83 26.4196C271.487 26.5146 274.574 27.4362 284.235 35.1913C287.7 37.973 294.541 42.3089 299.438 44.825C308.866 49.6717 310.588 51.0386 310.138 53.3254C308.812 60.0683 286.487 62.2433 256.041 58.5955C237.294 56.3499 229.408 57.2589 237.959 60.6807C244.897 63.4565 259.544 65.729 293.476 69.2962C303.747 70.3766 308.784 72.1988 327.744 81.6939C338.238 86.9489 350.037 93.4128 353.965 96.0583C361.362 101.04 381.481 111.222 388.83 113.702C394.618 115.656 400.626 116.298 401.4 115.045C402.41 113.412 396.132 108.238 386.678 102.912C380.796 99.5986 375.833 95.9752 371.608 91.909C366.232 86.7355 364.444 85.5635 359.426 83.9219C348.095 80.2144 344.634 77.4723 340.853 69.2071C338.732 64.5696 335.482 50.7169 335.482 46.3112C335.482 41.9544 337.675 38.593 341.671 36.8254C346.984 34.4756 385.605 32.8944 394.156 34.6772C410.011 37.9831 430.653 50.7521 433.044 58.7325C434.449 63.4229 432.688 65.6568 424.726 69.2852C415.617 73.4363 415.218 74.6814 421.854 78.2603C429.031 82.1316 440.55 85.745 445.965 85.8248C450.488 85.8911 451.795 85.4728 458.542 81.7947L466.072 77.6907L477.438 77.1715C490.01 76.5977 491.536 76.1012 498.046 70.4673C503.367 65.8626 506.311 64.4772 511.848 63.9757C517.219 63.4884 523.483 64.878 533.728 68.8282C545.361 73.3145 551.394 79.239 551.394 86.1759C551.394 92.0274 548.481 96.6389 537.335 108.43C533.978 111.981 531.231 115.248 531.231 115.689C531.231 117.189 535.453 117.559 542.533 116.679C550.132 115.735 555.146 114.239 559.673 111.569C564.358 108.805 572.058 101.702 573.516 98.8013C574.674 96.4977 576.068 89.2415 578.005 75.4501C578.498 71.9333 576.009 68.3947 570.892 65.3409C555.479 56.144 558.131 45.3115 578.276 35.183C590.109 29.234 610.755 23.7724 618.69 24.4924C628.075 25.3434 639.718 33.68 644.179 42.7432C645.43 45.2846 647.237 48.2032 648.195 49.2298C650.469 51.6679 655 53.1196 658.354 52.4853C662.037 51.7897 666.491 48.9366 666.491 47.274C666.491 46.5171 663.372 42.7088 659.56 38.8098C655.59 34.7503 651.007 28.961 648.833 25.2603C643.156 15.5963 642.669 15.4308 620.75 15.7156C611.071 15.8416 598.997 16.4919 593.919 17.1614C580.724 18.9022 575.648 18.7753 572.931 16.6381C570.343 14.6033 570.273 14.1068 572.055 10.3531C573.83 6.61121 579.304 3.27003 589.751 -0.450043C610.864 -7.96747 628.653 -15.8705 637.064 -21.47C646.801 -27.9524 649.101 -29.0109 659.35 -31.7295C663.748 -32.8965 672.359 -36.3712 679.933 -40.0367C694.792 -47.2265 709.226 -51.3994 724.459 -52.9091C742.446 -54.691 762.822 -49.1932 767.081 -41.4078C770.2 -35.7059 770.162 -33.2989 766.784 -22.615C762.555 -9.24109 763.471 -8.31191 777.385 -11.864C781.002 -12.7881 787.693 -13.8593 792.252 -14.2449C797.568 -14.6944 801.313 -15.4496 802.688 -16.3511C805.494 -18.1901 807.393 -21.7136 806.333 -23.1132C805.892 -23.6946 803.403 -27.3768 800.801 -31.296C789.787 -47.8876 789.705 -51.2187 800.042 -61.8799C808.639 -70.7457 810.111 -75.6831 806.725 -84.2944C804.416 -90.1677 803.295 -91.275 797.673 -93.2367C795.064 -94.1465 790.966 -95.7461 788.566 -96.7913C784.697 -98.4757 783.819 -98.5765 780.833 -97.6818C776.221 -96.3006 773.229 -93.582 767.329 -85.4084C758.552 -73.2493 754.974 -71.0179 742.177 -69.7225C737.746 -69.2738 729.962 -67.9355 724.88 -66.7493C718.888 -65.3505 712.062 -64.4406 705.469 -64.1634L695.3 -63.7349L692.867 -66.7845C691.212 -68.8588 689.749 -69.8333 688.289 -69.8333C684.668 -69.8333 678.383 -65.0875 666.743 -53.5644C655.427 -42.3613 649.13 -37.9087 644.604 -37.9087C643.299 -37.9087 639.799 -38.4732 636.825 -39.1621C628.88 -41.0053 626.734 -40.0745 614.189 -29.3486C611.068 -26.6796 606.961 -23.7038 605.063 -22.736C601.464 -20.8995 585.384 -16.9266 581.498 -16.9131C580.266 -16.9089 576.763 -18.2287 573.715 -19.846C570.666 -21.4632 567.516 -22.7831 566.714 -22.778C564.069 -22.7637 556.901 -18.8421 554.248 -15.9579C552.815 -14.4003 550.439 -10.9776 548.969 -8.35309C546.201 -3.4098 538.803 4.02023 534.362 6.31628C532.558 7.24882 530.174 7.54037 526.189 7.31522C521.276 7.03798 519.952 6.57674 515.739 3.67496C511.528 0.77485 510.31 0.349747 506.161 0.334625C501.807 0.318663 501.383 0.482493 501.128 2.28708C500.909 3.83291 502.401 5.73998 508.059 11.1495L515.269 18.0419V22.3467C515.269 28.8056 513.295 30.5866 497.38 38.4947C487.305 43.501 482.38 45.4703 478.442 46.0667C472.726 46.9329 466.246 46.1348 462.422 44.0933C461.223 43.4531 457.783 41.5897 454.78 39.9532C450.909 37.8444 446.627 36.444 440.078 35.1451C426.201 32.3937 423.574 30.685 419.074 21.4839C416.03 15.2586 414.516 14.6621 404.814 15.8677C392.201 17.4337 387.707 17.0262 377.736 13.4095C372.748 11.5999 364.937 8.41325 360.378 6.32806C350.639 1.87289 342.11 0.0834299 337.644 1.55701C334.492 2.59708 334.204 3.144 333.38 9.64908C332.464 16.8901 328.088 21.9535 320.407 24.6638C307.922 29.0694 298.418 20.0859 301.313 6.61792C301.891 3.92784 301.552 3.15829 297.327 -2.42014C290.441 -11.5136 290.209 -15.4152 296.044 -24.013C299.903 -29.6981 300.797 -32.3924 299.39 -34.0886C298.842 -34.7489 295.68 -36.3074 292.365 -37.5533C285.045 -40.303 282.554 -42.3789 282.554 -45.7293C282.554 -47.7977 284.233 -49.8577 292.533 -57.9742C301.539 -66.782 303.51 -68.259 312.748 -73.1334C326.342 -80.3072 327.078 -81.2288 327.089 -91.1112C327.096 -97.4482 327.449 -99.5636 329.078 -103.018C331.445 -108.037 333.43 -109.962 340.085 -113.695C342.848 -115.245 345.684 -117.541 346.386 -118.798C347.559 -120.897 347.525 -121.344 345.984 -124.233C344.632 -126.766 343.757 -127.434 341.503 -127.651C338.565 -127.932 338.518 -127.892 326.392 -114.78C324.682 -112.932 321.208 -110.325 318.671 -108.986C316.135 -107.648 308.388 -103.038 301.457 -98.7403C290.08 -91.6866 287.917 -90.6734 279.194 -88.3119C273.88 -86.8736 269.189 -85.3563 268.769 -84.9405C268.311 -84.4876 268.597 -81.6732 269.48 -77.9178C272.25 -66.1561 268.897 -60.0955 256.511 -54.4818C253.507 -53.1208 248.214 -50.6626 244.749 -49.0193C237.185 -45.4328 231.928 -45.1018 226.5 -47.8708C224.56 -48.8605 221.819 -49.6704 220.41 -49.6704C217.13 -49.6704 210.618 -46.6224 209.018 -44.3381C207.735 -42.5058 207.553 -37.9246 208.565 -32.8679ZM209.289 -804.336C210.829 -801.958 217.369 -800.646 227.526 -800.68C237.674 -800.713 258.508 -799.314 284.326 -796.866C297.045 -795.661 299.797 -795.662 315.411 -796.878C338.454 -798.673 342.427 -799.887 337.666 -803.683C334.629 -806.104 326.686 -808.758 317.525 -810.411C313.425 -811.15 306.998 -812.719 303.243 -813.897C294.819 -816.54 281.12 -823.457 278.146 -826.569C275.1 -829.756 273.461 -836.071 274.815 -839.402C277.727 -846.565 277.706 -846.429 276.37 -849.552L275.076 -852.578L265.416 -853.155C260.104 -853.472 252.618 -854.285 248.782 -854.959C236.555 -857.112 221.209 -856.187 220.074 -853.229C219.84 -852.619 220.815 -850.36 222.239 -848.209C224.489 -844.813 228.059 -833.583 230.998 -820.658C231.8 -817.128 228.976 -814.76 220.184 -811.59C212.101 -808.675 208.172 -806.061 209.289 -804.336ZM211.16 201.353C212.633 204.643 216.34 207.532 217.544 206.328C218.215 205.657 215.168 200.763 212.545 198.299C209.799 195.719 209.214 197.008 211.16 201.353ZM227.557 247.313C228.313 248.962 228.652 252.402 228.539 257.259C228.379 264.154 228.508 264.798 230.35 266.29C235.026 270.077 238.868 267.541 238.868 260.667C238.868 253.046 232.969 243.533 228.244 243.533C226.002 243.533 225.952 243.81 227.557 247.313ZM249.79 -1009.51C250.252 -1009.8 250.63 -1010.2 250.63 -1010.4C250.63 -1010.61 250.252 -1010.77 249.79 -1010.77C249.327 -1010.77 248.949 -1010.37 248.949 -1009.88C248.949 -1009.39 249.327 -1009.23 249.79 -1009.51ZM252.304 -294.046C253.461 -292.095 257.8 -290.505 260.275 -291.127C263.313 -291.89 263.011 -294.628 259.661 -296.698C254.842 -299.674 250.003 -297.93 252.304 -294.046ZM288.225 -852.031C305.103 -850.181 310.419 -850.069 317.478 -851.41C328.181 -853.443 333.452 -855.824 339.306 -861.271C342.176 -863.94 345.608 -866.679 346.934 -867.358C352.952 -870.438 370.115 -875.454 378.665 -876.632C388.462 -877.982 391.964 -879.605 392.47 -883.033C393.038 -886.876 391.811 -888.808 386.939 -891.737C374.755 -899.062 365.349 -900.065 357.766 -894.848C352.001 -890.882 348.761 -889.944 335.901 -888.519C329.723 -887.834 323.74 -886.92 322.605 -886.488C321.469 -886.056 318.597 -883.977 316.222 -881.867C311.331 -877.525 306.77 -875.042 297.691 -871.783C288.707 -868.557 286.128 -866.756 284.973 -862.903C284.437 -861.114 282.729 -858.42 281.177 -856.915C279.624 -855.41 278.354 -853.939 278.354 -853.646C278.354 -853.353 282.796 -852.625 288.225 -852.031ZM311.78 140.456C315.066 143.43 323.913 145.606 325.651 143.868C326.74 142.779 324.31 140.003 320.922 138.464C317.346 136.84 313.98 136.436 311.608 137.347C309.887 138.007 309.93 138.781 311.78 140.456ZM330.026 -329.775C331.222 -329.475 332.409 -329.439 332.665 -329.695C333.487 -330.517 332.073 -331.952 330.441 -331.952C327.933 -331.952 327.632 -330.376 330.026 -329.775ZM334.432 -762.32C341.399 -762.793 348.331 -764.61 351.039 -766.675C353.721 -768.72 351.156 -769.826 345.144 -769.219C335.178 -768.211 327.921 -765.686 327.921 -763.226C327.921 -762.068 328.835 -761.942 334.432 -762.32ZM331.313 -404.203C331.792 -404.203 335.479 -405.467 339.505 -407.013C343.53 -408.558 350.321 -410.68 354.595 -411.728C358.869 -412.775 362.366 -413.987 362.366 -414.421C362.366 -416.393 347.688 -420.581 343.783 -419.723C340.8 -419.068 336.17 -415.21 332.817 -410.588C330.425 -407.288 329.698 -404.203 331.313 -404.203ZM333.869 -27.6171C336.32 -23.4089 344.642 -28.3346 358.273 -42.0597C368.113 -51.9681 370.908 -55.6907 369.535 -57.0643C369.234 -57.3642 365.136 -55.6504 360.426 -53.2552C355.717 -50.86 349.45 -47.9447 346.5 -46.777C339.732 -44.0995 335.632 -40.9919 334.133 -37.4046C332.768 -34.1373 332.648 -29.7132 333.869 -27.6171ZM352.779 -948.271C353.506 -947.991 356.064 -947.763 358.463 -947.763C362.091 -947.763 363.349 -947.329 365.955 -945.181C367.677 -943.761 369.087 -941.859 369.087 -940.953C369.087 -938.39 366.696 -933.288 364.345 -930.833C361.196 -927.547 362.017 -925.877 368.29 -922.803C378.911 -917.598 391.876 -917.432 401.835 -922.375C405.754 -924.32 407.153 -925.72 411.247 -931.8C416.778 -940.015 426.184 -949.304 431.652 -951.951C436.911 -954.498 447.787 -956.218 457.39 -956.023C466.957 -955.828 469.494 -956.912 470.366 -961.563C471.51 -967.66 467.255 -973.824 459.67 -977.059C452.491 -980.122 442.14 -983.048 438.484 -983.048C434.488 -983.048 433.679 -982.384 430.167 -976.226C427.248 -971.11 424.358 -969.85 412.03 -968.324C391.76 -965.814 388.411 -964.855 382.949 -959.991C376.27 -954.045 366.636 -950.283 358.083 -950.283C352.58 -950.283 350.042 -949.32 352.779 -948.271ZM353.936 -590.308C355.162 -589.55 360.762 -592.724 363.782 -595.887C367.135 -599.399 372.448 -608.171 372.448 -610.193C372.448 -611.029 371.975 -611.71 371.397 -611.706C369.376 -611.69 361.792 -606.777 359.155 -603.774C354.393 -598.35 351.79 -591.634 353.936 -590.308ZM359.381 -795.191C365.92 -789.023 367.425 -783.176 364.412 -775.646C363.179 -772.564 363.137 -771.887 364.132 -771.205C365.55 -770.234 376.316 -770.933 379.69 -772.215C384.576 -774.073 385.004 -775.018 384.46 -782.738C384.041 -788.668 384.258 -790.635 385.852 -795.354L387.74 -800.944L385.952 -802.733C381.706 -806.979 355.548 -804.597 355.685 -799.976C355.706 -799.241 357.37 -797.088 359.381 -795.191ZM370.977 -1004.58C376.673 -1003.05 382.156 -1004.77 381.563 -1007.89C380.919 -1011.28 369.087 -1010.02 369.087 -1006.57C369.087 -1005.74 369.924 -1004.86 370.977 -1004.58ZM374.671 -310.687C376.573 -308.784 388.83 -311.941 388.83 -314.333C388.83 -315.297 387.903 -315.503 384.63 -315.27C377.561 -314.764 372.789 -312.569 374.671 -310.687ZM419.243 233.919C420.43 235.107 421.809 235.276 427.434 234.922C440.563 234.097 469.322 222.149 467.046 218.465C465.081 215.286 431.789 219.652 422.723 224.277C417.871 226.752 416.334 231.011 419.243 233.919ZM438.52 -480.392C438.838 -480.073 440.137 -479.814 441.408 -479.814C443.504 -479.814 443.804 -480.209 444.629 -484.056C445.737 -489.224 445.802 -492.678 444.778 -492.045C444.361 -491.787 442.754 -489.401 441.208 -486.745C437.663 -480.65 437.841 -481.071 438.52 -480.392ZM443.347 -883.336C443.878 -879.091 444.576 -875.353 444.899 -875.031C446.063 -873.868 450.828 -876.71 453.198 -879.981C456.592 -884.667 456.372 -887.239 452.257 -890.957C450.082 -892.922 448.064 -893.995 446.544 -893.995C444.387 -893.995 442.034 -892.627 442.28 -891.516C442.337 -891.262 442.816 -887.581 443.347 -883.336ZM445.182 -455.45C446.085 -452.31 446.353 -449.201 446.019 -445.748C445.666 -442.106 445.854 -440.218 446.682 -439.085C447.798 -437.558 447.872 -437.569 448.857 -439.41C449.516 -440.64 449.676 -442.772 449.311 -445.428C448.597 -450.616 450.565 -454.134 456.767 -458.759C463.071 -463.46 466.026 -464.804 475.271 -467.178C484.658 -469.589 486.223 -470.879 484.178 -474.523C482.352 -477.779 476.287 -480.592 469.787 -481.198C463.619 -481.775 447.51 -479.525 445.765 -477.843C444.022 -476.163 443.623 -460.871 445.182 -455.45ZM446.696 -294.51C447.809 -290.32 449.547 -284.971 450.557 -282.621C452.609 -277.854 455.941 -274.144 456.851 -275.616C457.163 -276.122 457.638 -285.521 457.906 -296.505C458.421 -317.616 457.792 -323.766 454.842 -326.435C453.478 -327.67 453.185 -327.64 451.182 -326.065C448.141 -323.673 445.444 -315.949 445.024 -308.428C444.755 -303.593 445.143 -300.357 446.696 -294.51ZM451.839 -210.974C453.74 -209.396 455.77 -211.445 455.453 -214.619C455.11 -218.046 453.478 -218.345 451.889 -215.27C450.289 -212.177 450.29 -212.26 451.839 -210.974ZM458.413 -995.852C458.993 -994.809 460.26 -993.4 461.228 -992.722C463.788 -990.928 484.839 -985.397 486.771 -986.009C487.673 -986.296 489.689 -988.529 491.252 -990.971C494.466 -995.997 496.931 -997.981 503.646 -1000.95C511.11 -1004.25 510.94 -1004.77 501.827 -1006.49C487.834 -1009.12 468.333 -1009.86 463.715 -1007.93C458.282 -1005.66 455.935 -1000.31 458.413 -995.852ZM474.923 -505.449C477.364 -503.941 481.352 -503.415 484.309 -504.211C487.841 -505.162 492.845 -508.958 492.118 -510.135C490.844 -512.196 474.712 -509.729 474.272 -507.406C474.128 -506.641 474.421 -505.76 474.923 -505.449ZM478.513 -241.855C482.394 -238.26 485.024 -236.56 485.024 -237.647C485.024 -238.489 476.39 -247.099 475.547 -247.099C473.998 -247.099 475.262 -244.865 478.513 -241.855ZM494.115 -228.515C497.879 -225.034 502.526 -221.844 507.379 -219.41C516.97 -214.599 517.077 -214.57 513.588 -217.688C505.617 -224.812 489.769 -235.322 488.664 -234.217C488.475 -234.028 490.929 -231.462 494.115 -228.515ZM501.448 -1030.38C502.684 -1029.91 508.358 -1030.2 521.633 -1031.43C526.697 -1031.9 528.747 -1031.63 535.495 -1029.65C544.929 -1026.87 550.477 -1026.66 562.316 -1028.61C575.175 -1030.73 576.798 -1031.35 583.52 -1036.7C592.111 -1043.52 593.347 -1044.24 599.588 -1046.02C606.112 -1047.89 613.287 -1048.21 628.304 -1047.31C641.271 -1046.54 643.652 -1047.26 647.98 -1053.28C651.602 -1058.33 655.48 -1060.73 663.55 -1062.92C675.794 -1066.23 676.824 -1067.27 679.469 -1078.93C680.555 -1083.72 682.105 -1089.29 682.914 -1091.3C684.155 -1094.39 684.201 -1095.07 683.208 -1095.69C681.37 -1096.86 664.092 -1096.57 658.616 -1095.28C651.766 -1093.67 649.435 -1091.73 648.542 -1086.89C647.387 -1080.65 644.636 -1078.54 634.647 -1076.28C630.032 -1075.23 623.873 -1073.2 620.96 -1071.77C616.238 -1069.44 615.423 -1068.66 613.445 -1064.54C609.862 -1057.08 608.585 -1056.3 596.667 -1054.42C590.943 -1053.51 581.155 -1052.19 574.917 -1051.49C557.34 -1049.51 543.793 -1045.84 536.329 -1041.05C529.787 -1036.86 526.273 -1035.82 516.12 -1035.1C506.079 -1034.39 500.146 -1033.13 500.146 -1031.71C500.146 -1031.25 500.732 -1030.66 501.448 -1030.38ZM505.185 -174.141C508.525 -163.26 509.577 -161.26 511.134 -162.817C512.715 -164.398 513.642 -170.445 512.847 -173.983C511.436 -180.266 506.129 -187.451 502.9 -187.451C501.339 -187.451 501.644 -185.674 505.185 -174.141ZM504.832 128.49C507.989 131.11 517.923 128.217 520.79 123.841C522.894 120.629 521.643 119.744 515.858 120.348C510.428 120.916 506.508 122.744 504.632 125.584C503.615 127.123 503.641 127.502 504.832 128.49ZM518.3 -480.083C519.843 -479.49 527.569 -481.734 529.928 -483.459C532.516 -485.352 531.01 -487.375 527.015 -487.375C523.074 -487.375 519.069 -485.567 517.814 -483.22C516.657 -481.06 516.714 -480.691 518.3 -480.083ZM523.023 -846.318C523.989 -844.296 526.536 -843.788 527.542 -845.416C527.878 -845.96 528.373 -848.701 528.642 -851.507L529.131 -856.609L538.294 -858.909C548.417 -861.449 551.023 -862.983 549.633 -865.581C548.165 -868.323 543.724 -870.465 539.497 -870.468C534.713 -870.472 532.449 -868.21 529.989 -860.975C528.997 -858.056 527.768 -856.003 526.835 -855.707C523.767 -854.733 521.578 -849.341 523.023 -846.318ZM557.1 276.547C560.41 279.779 562.316 280.492 562.316 278.497C562.316 277.23 555.857 270.417 554.655 270.417C552.869 270.417 554.175 273.691 557.1 276.547ZM578.955 222.178C582.799 231.628 583.789 233.298 584.886 232.191C586.039 231.028 592.55 214.055 592.555 212.198C592.563 209.89 587.028 201.75 585.017 201.112C582.926 200.449 581.44 201.518 578.138 206.063C575.027 210.345 575.154 212.834 578.955 222.178ZM590.227 302.714C592.532 304.329 594.573 304.385 595.832 302.868C597.979 300.281 594.486 297.475 590.399 298.501C587.853 299.14 587.777 300.998 590.227 302.714ZM601.018 -461.717C602.611 -460.731 603.004 -462.168 601.541 -463.631C600.232 -464.941 600.121 -464.944 600.121 -463.661C600.121 -462.896 600.524 -462.021 601.018 -461.717ZM632.551 222.38C634.214 223.752 639.187 226.898 643.602 229.373C648.016 231.847 653.497 235.573 655.782 237.654L659.935 241.436L660.766 249.415C661.223 253.804 662.036 257.817 662.573 258.335C667.205 262.789 682.431 261.469 683.104 256.555C683.239 255.565 681.427 252.35 678.693 248.728C673.487 241.834 673.108 239.929 675.476 232.596C676.882 228.243 676.877 228.169 675.064 226.7C669.718 222.372 651.865 216.909 640.395 216.093C629.532 215.319 626.719 217.574 632.551 222.38ZM637.774 -606.672C639.539 -606.672 643.036 -607.277 645.545 -608.017C650.614 -609.51 671.913 -620.755 676.697 -624.465C680.812 -627.655 684.446 -633.587 686.587 -640.605C688.063 -645.444 689.226 -647.318 693.682 -652.042C696.612 -655.149 700.2 -660.072 701.653 -662.981C704.2 -668.076 705.125 -673.042 703.528 -673.042C701.679 -673.042 695.39 -664.373 691.57 -656.559C689.284 -651.883 686.582 -647.29 685.564 -646.352C684.546 -645.415 680.311 -642.65 676.152 -640.208C670.849 -637.095 666.459 -633.592 661.45 -628.479C656.382 -623.305 652.114 -619.912 646.748 -616.789C639.43 -612.531 634.566 -608.764 634.566 -607.355C634.566 -606.98 636.01 -606.672 637.774 -606.672ZM647.126 -1022.98C650.326 -1021.32 656.458 -1021.34 660.427 -1023.01L663.55 -1024.33L661.593 -1025.93C659.612 -1027.55 654.716 -1029.24 651.972 -1029.25C649.361 -1029.26 644.648 -1026.87 644.648 -1025.54C644.648 -1024.83 645.763 -1023.68 647.126 -1022.98ZM667.901 -764.786C668.242 -763.936 670.334 -763.822 677.385 -764.268C685.883 -764.806 686.708 -764.714 690.991 -762.753C693.5 -761.605 696.907 -759.476 698.563 -758.021C700.991 -755.89 701.753 -755.594 702.5 -756.494C704.711 -759.158 703.976 -763.965 700.806 -767.576C696.893 -772.032 692.455 -773.964 684.945 -774.479C674.996 -775.16 670.933 -774.293 668.967 -771.068C667.34 -768.4 667.076 -766.844 667.901 -764.786ZM677.223 -709.75C677.806 -707.081 681.061 -706.577 688.55 -707.999C696.639 -709.535 700.756 -709.084 705.833 -706.109C707.833 -704.937 709.663 -704.172 709.9 -704.409C711.006 -705.516 708.819 -708.666 704.864 -711.664C702.473 -713.477 700.097 -715.647 699.583 -716.485C698.715 -717.906 696.767 -724.208 695.551 -729.541C694.775 -732.935 692.999 -732.413 687.507 -727.175C679.867 -719.887 676.321 -713.88 677.223 -709.75ZM678.814 354.639C679.188 356.008 681.486 356.109 711.919 356.109H744.622V353.151C744.622 348.461 742.838 348.074 727.186 349.367C715.778 350.309 711.934 350.279 699.256 349.143C682.416 347.635 678.738 347.982 678.542 351.099C678.471 352.237 678.593 353.83 678.814 354.639ZM698.122 -1095.87C706.38 -1093.25 709.463 -1092.85 713.314 -1093.88C717.15 -1094.92 721.657 -1099.37 724.497 -1104.94L726.288 -1108.45L724.507 -1110.23C722.879 -1111.85 721.809 -1112.01 712.041 -1112C703.32 -1111.99 700.771 -1111.7 698.176 -1110.42C694.395 -1108.55 693.649 -1107.33 692.92 -1101.84L692.369 -1097.69L698.122 -1095.87ZM705.942 -822.023C707.244 -816.556 712.612 -809.385 713.826 -811.49C714.479 -812.621 715.333 -838.134 714.767 -839.597C713.288 -843.42 708.298 -839.543 706.345 -833.053C705.042 -828.724 704.949 -826.192 705.942 -822.023ZM725.638 -727.23C727.237 -723.607 729.961 -721.49 733.022 -721.49C738.506 -721.49 743.245 -731.21 741.293 -738.457C740.25 -742.329 738.506 -743.613 734.29 -743.613C727.185 -743.613 722.403 -734.559 725.638 -727.23ZM742.27 -767.304C743.707 -765.867 745.187 -766.057 745.872 -767.766C746.872 -770.265 748.701 -777.619 748.397 -777.923C747.537 -778.784 744.292 -776.716 742.888 -774.412C741.036 -771.375 740.809 -768.765 742.27 -767.304ZM758.539 -703.266C759.724 -702.815 761.331 -702.446 762.11 -702.445C766.099 -702.441 780.196 -698.264 783.046 -696.241C784.785 -695.007 787.493 -693.063 789.063 -691.922C792.333 -689.543 794.923 -689.312 798.366 -691.092C801.313 -692.616 804.491 -696.901 804.117 -698.844C803.806 -700.462 801.131 -701.4 796.473 -701.522C792.22 -701.635 787.895 -703.535 786.279 -706.001C785.553 -707.11 784.721 -709.756 784.428 -711.884C783.978 -715.171 784.364 -716.836 787.004 -722.981C789.355 -728.454 790.109 -731.355 790.109 -734.92C790.109 -741.768 789.084 -742.163 784.287 -737.16C779.454 -732.119 775.536 -730.579 769.495 -731.345C760.517 -732.484 760.986 -732.598 761.171 -729.33C761.88 -716.761 761.847 -716.466 759.075 -711.082C757.595 -708.207 756.384 -705.457 756.384 -704.97C756.384 -704.483 757.354 -703.717 758.539 -703.266ZM773.521 -129.215C774.629 -128.187 778.27 -126.467 781.612 -125.391C785.782 -124.047 788.789 -122.418 791.2 -120.197C797.18 -114.684 801.185 -113.975 808.111 -117.2C813.267 -119.601 817.028 -123.951 818.865 -129.638C820.465 -134.591 820.568 -136.891 819.337 -140.139C817.12 -145.992 812.404 -147.878 808.22 -144.587C804.464 -141.632 799.091 -140.191 789.569 -139.587C779.749 -138.965 774.154 -137.06 772.374 -133.735C771.185 -131.514 771.23 -131.338 773.521 -129.215ZM774.928 203.514C776.545 205.569 777.14 205.727 783.261 205.727C786.886 205.727 790.471 205.489 791.227 205.2C792.944 204.541 801.751 192.736 801.751 191.094C801.751 189.134 797.701 186.519 791.885 184.722C779.057 180.76 773.187 184.409 773.187 196.346C773.187 200.086 773.613 201.842 774.928 203.514ZM820.864 -174.688C824.488 -171.308 826.432 -170.645 832.57 -170.695C838.601 -170.746 843.835 -172.087 844.368 -173.721C844.793 -175.023 835.847 -181.356 831.922 -182.531C827.849 -183.752 823.079 -182.812 820.56 -180.292C818.021 -177.754 818.046 -177.317 820.864 -174.688ZM875.472 -79.1176C884.54 -73.5711 885.865 -71.6724 887.732 -61.5497L888.761 -55.9713L894.318 -56.1931C899.633 -56.4048 899.973 -56.2998 902.092 -53.7811C904.93 -50.4088 906.557 -46.5132 908.195 -39.1688C910.19 -30.2291 913.018 -25.2051 919.705 -18.7236C926.232 -12.3974 932.271 -8.88153 938.707 -7.66083C943.199 -6.80894 945.412 -7.21893 945.412 -8.90338C945.412 -9.48559 941.853 -12.3092 937.503 -15.1774C928.186 -21.3212 920.09 -29.4167 917.575 -35.1035C914.634 -41.7539 914.483 -51.1969 917.166 -60.5525C919.551 -68.8664 919.824 -71.133 918.533 -71.9303C918.074 -72.2143 914.593 -70.5357 910.797 -68.1993C907.002 -65.8638 902.935 -63.9542 901.761 -63.9567C899.698 -63.9609 892.686 -70.9911 882.134 -83.6316C878.805 -87.6196 876.45 -88.3959 873.106 -86.6064C870.064 -84.9783 871.064 -81.8135 875.472 -79.1176ZM874.715 -48.8983C877.038 -47.6549 879.519 -47.7591 882.342 -49.2192C885.01 -50.5987 886.398 -53.0309 884.517 -53.0309C883.055 -53.0309 873.888 -50.6769 873.382 -50.1711C873.182 -49.9703 873.781 -49.3982 874.715 -48.8983ZM879.82 -687.686C882.147 -684.187 887.363 -680.114 892.692 -677.633C897.212 -675.53 901.726 -674.91 901.726 -676.393C901.726 -676.851 899.797 -679.356 897.438 -681.959C888.975 -691.305 888.745 -696.224 896.521 -701.561C900.009 -703.955 899.829 -706.307 895.961 -708.908C886.388 -715.344 879.487 -710.565 878.553 -696.853C878.165 -691.159 878.337 -689.915 879.82 -687.686ZM895.647 94.4948C897.728 97.6117 904.534 98.2678 907.837 95.6702C909.012 94.746 911.365 91.4376 913.066 88.3191C914.766 85.2006 917.323 81.4301 918.747 79.9397C920.997 77.5865 921.216 76.9657 920.418 75.214C919.913 74.1051 918.376 72.8062 917.002 72.3273C913.891 71.2427 912.272 72.0224 904.341 78.43C897.018 84.347 893.371 91.0856 895.647 94.4948ZM911.177 14.7327C914.176 17.5488 920.628 21.9913 922.939 22.8323C925.362 23.7144 924.743 20.0078 921.889 16.5465C917.99 11.8157 908.447 7.93017 908.447 11.0739C908.447 11.6763 909.676 13.3229 911.177 14.7327ZM921.931 356.076C931.883 356.044 932.272 355.978 929.975 354.733C927.039 353.144 914.196 353.383 912.521 355.059C911.681 355.899 913.563 356.103 921.931 356.076ZM960.201 53.4548C961.048 55.3325 962.719 54.573 965.583 51.0092C967.128 49.087 971.916 43.785 976.224 39.2265C980.533 34.668 984.058 30.3943 984.058 29.7289C984.058 27.5429 981.074 26.6616 977.077 27.6681C968.595 29.8037 960.761 39.1492 960.075 47.9495C959.883 50.4001 959.94 52.8768 960.201 53.4548ZM961.077 -93.0947C961.395 -92.7763 963.103 -92.5167 964.875 -92.5167C968.591 -92.5167 969.442 -94.6674 966.061 -95.5159C962.475 -96.4157 959.298 -94.8724 961.077 -93.0947ZM985.846 356.08C991.641 356.051 991.904 355.972 989.939 354.849C987.159 353.261 982.016 353.261 980.697 354.849C979.783 355.951 980.433 356.106 985.846 356.08ZM985.228 101.552C986.334 101.552 990.02 100.997 993.419 100.318C996.818 99.6389 1000.92 98.9778 1002.53 98.8475C1009.63 98.2763 1004.05 92.3198 996.407 92.3139C991.652 92.3097 988.442 93.7917 985.418 97.3857C982.692 100.624 982.65 101.552 985.228 101.552ZM1024.76 -22.2655C1026.46 -21.6144 1027.74 -22.5831 1027.74 -24.5162C1027.74 -26.2259 1027.08 -26.4846 1024.87 -25.637C1023.21 -24.9976 1023.14 -22.8889 1024.76 -22.2655ZM1038.31 -4.38516C1041.57 -0.511352 1045.07 1.01346 1050.85 1.07394C1056.98 1.13779 1062.47 -1.21791 1062.88 -4.09366C1063.03 -5.13373 1062.96 -5.98395 1062.74 -5.98395C1062.51 -5.98395 1057.49 -6.94672 1051.58 -8.12289C1045.66 -9.29907 1039.87 -10.1493 1038.7 -10.0132C1035.79 -9.67125 1035.64 -7.55747 1038.31 -4.38516ZM1042.19 337.931C1046.75 342.298 1058.3 348.407 1063.17 349.02C1065.95 349.372 1067.46 349.074 1069.55 347.759C1072.98 345.605 1075.53 340.675 1074.26 338.631C1073.07 336.707 1055.45 330.927 1049.17 330.4C1043.2 329.898 1039.2 330.875 1038.8 332.928C1038.63 333.823 1039.97 335.802 1042.19 337.931ZM1059.63 199.591C1061.84 203.219 1064.03 204.515 1074.59 208.462C1093.53 215.542 1095.35 216.102 1097.6 215.538C1102.8 214.233 1100.68 210.299 1092.58 206.221C1089.5 204.667 1083.78 201.455 1079.88 199.084C1073.34 195.111 1066.35 192.285 1063.06 192.285C1061.29 192.285 1057.99 194.638 1057.99 195.904C1057.99 196.455 1058.73 198.114 1059.63 199.591ZM1107.81 314.943C1110.53 314.943 1119.42 301.986 1122.3 293.834C1124.54 287.463 1123.25 275.689 1119.62 269.472C1117.57 265.954 1111.29 261.084 1109.64 261.72C1107.94 262.37 1108.08 265.593 1110.17 274.341C1112.36 283.462 1111.98 292.066 1108.84 304.433C1106.4 314.044 1106.31 314.943 1107.81 314.943ZM1122.68 341.925C1123.78 343.796 1130.47 346.539 1136.67 347.659C1148.04 349.712 1158.24 344.212 1166.36 331.658C1171.81 323.213 1172.22 319.564 1169.73 301.081C1169.17 296.923 1168.17 292.486 1167.52 291.222C1166.04 288.353 1162.61 287.382 1159.7 289.006C1156.6 290.739 1156.5 294.442 1159.38 300.859C1162.78 308.432 1162.54 313.625 1158.38 322.034C1153.15 332.62 1146.05 339.288 1137.26 341.861C1134.22 342.751 1133.1 342.655 1128.48 341.094C1121.41 338.705 1120.85 338.786 1122.68 341.925ZM1130.8 51.4242C1131.82 52.4475 1139.95 52.0039 1144.4 50.6815C1151.01 48.7199 1153.88 45.7416 1154.4 40.3186C1154.64 37.8361 1154.37 34.5108 1153.79 32.7449C1152.84 29.8641 1152.95 29.2265 1155.04 25.2115C1158.19 19.1929 1158.65 14.4227 1156.36 11.5217C1152.53 6.66833 1143.55 4.23785 1137.97 6.54819C1134.29 8.07133 1134.55 10.1204 1138.85 13.4145C1145.2 18.2797 1147.99 21.2394 1150.06 25.283C1151.17 27.4622 1152.08 29.4079 1152.08 29.6071C1152.08 29.8062 1147.17 34.1908 1141.16 39.3508C1130.99 48.0915 1129.36 49.9851 1130.8 51.4242ZM1154.9 -1003.87C1156.86 -996.865 1166.13 -982.654 1172.97 -976.145C1180.98 -968.535 1186.56 -965.863 1193.2 -966.465C1202.21 -967.282 1213.29 -975.067 1209.11 -977.648C1208.6 -977.966 1203.75 -978.534 1198.35 -978.909C1186.99 -979.699 1181.5 -981.437 1173.73 -986.691C1166.02 -991.916 1165.09 -993.565 1165.19 -1001.81C1165.31 -1010.4 1167.32 -1019.8 1169.87 -1023.61C1173.92 -1029.66 1187.54 -1044.26 1192.19 -1047.53C1198.43 -1051.92 1201.38 -1055.06 1200.29 -1056.15C1199.75 -1056.7 1197.9 -1056.21 1194.89 -1054.74C1191.56 -1053.11 1186.87 -1049.04 1177.68 -1039.83C1170.73 -1032.86 1163.32 -1025.75 1161.2 -1024.04C1154.84 -1018.9 1152.65 -1011.89 1154.9 -1003.87ZM1171.2 0.71521C1171.54 0.703448 1173.53 -1.98916 1175.61 -5.26816C1178.21 -9.38056 1181.81 -13.3123 1187.19 -17.9456C1194.51 -24.2541 1198.06 -28.6135 1196.86 -29.8208C1195.78 -30.8978 1191.15 -30.2938 1187.71 -28.6278C1178.35 -24.0979 1170.57 -12.8108 1170.57 -3.77106C1170.57 -1.29185 1170.85 0.726972 1171.2 0.71521ZM1174.47 -730.027C1176.7 -729.044 1180.15 -728.056 1182.15 -727.831C1185.26 -727.48 1186.12 -727.748 1188.19 -729.734C1189.52 -731.007 1191.08 -733.188 1191.66 -734.583C1192.58 -736.822 1192.52 -737.259 1191.09 -738.333C1188.96 -739.932 1182.08 -739.183 1175.72 -736.662C1169.46 -734.178 1169.13 -732.392 1174.47 -730.027ZM1200.6 -819.931C1207.95 -813.765 1223.29 -809.401 1224.7 -813.074C1225.01 -813.889 1224.25 -816.439 1222.89 -819.112C1219.73 -825.368 1216.63 -827.028 1209.03 -826.537C1200.81 -826.007 1196.96 -822.988 1200.6 -819.931ZM1212.67 -1094.31C1215.88 -1092.65 1220.1 -1093.26 1222.32 -1095.72C1223.86 -1097.42 1223.86 -1097.48 1222.27 -1098.64C1220.64 -1099.84 1213.83 -1100.26 1211.38 -1099.32C1209.16 -1098.46 1209.86 -1095.77 1212.67 -1094.31ZM1223.94 151.128C1233.84 154.394 1259.26 152.936 1260.76 149.016C1261.94 145.957 1250.8 143.167 1237.35 143.151C1224.91 143.135 1220.97 144.242 1220.97 147.759C1220.97 149.75 1221.47 150.313 1223.94 151.128ZM1227.06 -743.82C1230.01 -741.07 1241.19 -736.051 1244.38 -736.051C1245.95 -736.051 1248.64 -736.471 1250.35 -736.984C1252.9 -737.747 1253.95 -737.666 1256.12 -736.542C1259.11 -734.997 1270.71 -721.401 1275.43 -713.916C1281.14 -704.844 1283.52 -702.112 1286.78 -700.87C1289.6 -699.798 1290.11 -699.81 1291.28 -700.981C1293.03 -702.731 1291.98 -705.738 1286.53 -714.641C1280.34 -724.768 1275.72 -734.944 1274.35 -741.504C1272.41 -750.771 1273.66 -757.027 1279.59 -767.887C1284.77 -777.358 1295.3 -790.216 1299.57 -792.276C1301.13 -793.032 1306.99 -793.744 1315.49 -794.209C1340.77 -795.595 1345.43 -793.948 1355.95 -779.915C1363.39 -769.978 1376.28 -754.804 1378.53 -753.331C1383.49 -750.077 1384.48 -753.085 1381.02 -760.916C1376.89 -770.253 1378.96 -777.044 1385.67 -776.144C1392.64 -775.209 1405.15 -764.196 1407.83 -756.632C1408.65 -754.323 1409.87 -750.86 1410.54 -748.936C1411.94 -744.922 1415.01 -743.124 1424.38 -740.818C1435.74 -738.023 1443.37 -733.032 1445.32 -727.13C1446.48 -723.601 1445.97 -721.187 1442.72 -714.873C1441.36 -712.235 1440.24 -709.485 1440.24 -708.763C1440.24 -708.041 1441.74 -705.829 1443.57 -703.847C1450.94 -695.846 1450.5 -690.029 1441.65 -678.701C1439.57 -676.037 1437.02 -672.117 1435.99 -669.988C1434.44 -666.781 1433.36 -665.784 1429.68 -664.159C1423.84 -661.574 1411.44 -652.715 1408.77 -649.215C1407.61 -647.687 1406.42 -645.274 1406.14 -643.853C1405.61 -641.213 1406.98 -635.643 1408.37 -634.783C1408.8 -634.521 1410.57 -635.434 1412.3 -636.813C1414.04 -638.191 1417.81 -640.102 1420.69 -641.059C1433.21 -645.228 1451.98 -641.444 1456.4 -633.859C1457.77 -631.498 1457.83 -630.603 1456.96 -625.325C1455.78 -618.185 1456.37 -615.289 1459.22 -614.205C1460.4 -613.759 1465.04 -613.153 1469.54 -612.858C1479.51 -612.206 1481.41 -612.912 1481.41 -617.259C1481.41 -620.744 1482.3 -622.638 1486.17 -627.434C1489.43 -631.469 1493.4 -633.014 1497.49 -631.842C1498.93 -631.43 1502.31 -628.986 1505.01 -626.409C1507.71 -623.834 1512.07 -620.743 1514.69 -619.541C1521.6 -616.38 1522.91 -617.065 1527.74 -626.375C1529.88 -630.509 1531.47 -634.322 1531.27 -634.847C1530.4 -637.112 1524.35 -638.782 1513.18 -639.843C1500.89 -641.011 1501.28 -640.876 1489.5 -648.101C1486.79 -649.767 1480.95 -652.334 1476.53 -653.807C1466.94 -657.002 1464.61 -658.958 1464.61 -663.818C1464.61 -667.858 1465.55 -669.949 1469.03 -673.624C1471.27 -675.998 1471.49 -676.673 1470.95 -679.504C1470.62 -681.264 1470.03 -684.405 1469.64 -686.484C1468.45 -692.872 1469.76 -695.757 1476.81 -702.247C1480.26 -705.432 1483.09 -708.639 1483.09 -709.374C1483.09 -710.109 1481.67 -711.558 1479.94 -712.594C1472.51 -717.031 1469.97 -721.656 1472.3 -726.498C1473.86 -729.744 1477.8 -732.189 1485.71 -734.824C1493.3 -737.351 1497.12 -740.041 1496.26 -742.262C1494.81 -746.061 1468.59 -753.369 1452.38 -754.495C1442.48 -755.183 1440.99 -755.652 1437.77 -759.094C1436.04 -760.943 1435.65 -762.394 1435.25 -768.335C1434.83 -774.727 1434.53 -775.682 1432.06 -778.61C1430.56 -780.386 1428.29 -783.539 1427.02 -785.619C1423.76 -790.942 1423.92 -797.497 1427.59 -808.722C1432.83 -824.753 1437.37 -830.088 1450.42 -835.534C1470.07 -843.728 1475.53 -846.708 1475.53 -849.225C1475.53 -852.126 1458.31 -856.717 1451.08 -855.745C1444.98 -854.926 1442.35 -852.803 1438.92 -845.924C1434.32 -836.725 1432.65 -834.959 1423.15 -829.303C1416.98 -825.625 1411.46 -821.335 1404.29 -814.628C1391.78 -802.925 1387.8 -800.741 1379.02 -800.741C1373.88 -800.741 1370.95 -801.351 1363.01 -804.075C1357.66 -805.909 1350.27 -808.32 1346.57 -809.431C1342.87 -810.543 1336.64 -812.817 1332.71 -814.483C1324.23 -818.079 1322.13 -818.222 1318.34 -815.464C1315.78 -813.6 1304.71 -805.948 1299.26 -802.269C1298.1 -801.493 1293.92 -799.845 1289.95 -798.608C1285.98 -797.371 1280.57 -795.266 1277.92 -793.929C1272.11 -790.995 1268.82 -790.883 1258.75 -793.277C1250.97 -795.126 1247.56 -794.965 1246.69 -792.711C1246.41 -791.984 1246.94 -787.934 1247.86 -783.712C1249.84 -774.652 1249.96 -770.613 1248.37 -766.799C1246.55 -762.443 1244.17 -761.255 1237.27 -761.255C1233.47 -761.255 1230.95 -760.868 1230.41 -760.205C1229.24 -758.752 1225.17 -748.384 1225.17 -746.844C1225.17 -746.151 1226.02 -744.791 1227.06 -743.82ZM1267.88 -635.123C1269.83 -632.935 1270.91 -632.447 1273.97 -632.379C1277.22 -632.306 1277.71 -632.533 1277.95 -634.206C1278.32 -636.806 1275.74 -644.323 1273.81 -646.247C1271.84 -648.222 1268.96 -647.141 1266.9 -643.646C1264.91 -640.283 1265.15 -638.17 1267.88 -635.123ZM1274.57 237.652C1278.77 237.652 1302.21 223.753 1307.01 218.427C1308.58 216.673 1308.58 216.649 1306.87 216.649C1305.91 216.649 1302.07 217.818 1298.32 219.247C1285 224.334 1267.82 237.652 1274.57 237.652ZM1297.17 323.135C1297.81 324.85 1304.6 324.353 1309.9 322.202C1316.32 319.591 1334.94 307.759 1336.6 305.237C1338.35 302.554 1337.38 301.272 1334.1 301.956C1332.64 302.259 1326.16 304.779 1319.69 307.556C1303.72 314.411 1295.92 319.808 1297.17 323.135ZM1298.71 -969.383C1301.49 -965.3 1306.29 -962.885 1311.62 -962.885C1313.92 -962.885 1316.04 -963.257 1316.32 -963.712C1316.6 -964.168 1315.12 -965.744 1313.04 -967.215C1307.64 -971.019 1306.34 -974.226 1306.9 -982.356C1307.45 -990.441 1306.6 -990.782 1300.66 -984.848C1296.89 -981.075 1296.58 -980.456 1296.58 -976.642C1296.58 -973.611 1297.15 -971.685 1298.71 -969.383ZM1321.18 274.595C1321.83 275.873 1323.85 277.302 1326.42 278.307C1342.07 284.417 1343.06 284.973 1346.53 289.63L1349.9 294.138L1355.37 293.743C1362.17 293.251 1371.35 289.014 1371.35 286.372C1371.35 283.748 1365.7 280.292 1353.57 275.498C1341.3 270.645 1333.86 268.773 1326.79 268.751C1320.47 268.731 1318.99 270.27 1321.18 274.595ZM1352.59 -186.611C1353.35 -186.611 1356.77 -189.511 1360.18 -193.054C1370.52 -203.812 1377.56 -216.015 1373.42 -216.015C1370.79 -216.015 1364.9 -211.969 1360.89 -207.409C1353.85 -199.398 1348.74 -186.611 1352.59 -186.611ZM1416.09 -616.956C1419.1 -614.134 1426.83 -612.016 1426.79 -614.023C1426.78 -614.692 1419.52 -618.891 1416.18 -620.159C1413.56 -621.155 1413.51 -619.372 1416.09 -616.956ZM1458.59 152.383C1460.85 158.769 1463 160.835 1467.38 160.835C1471.41 160.835 1474.63 158.732 1476.69 154.746C1477.91 152.388 1477.91 151.798 1476.69 147.889C1475.95 145.537 1474.77 141.448 1474.06 138.802C1472.59 133.335 1470.76 131.838 1466.5 132.636C1460.92 133.684 1456.77 139.05 1456.9 145.056C1456.94 146.572 1457.69 149.87 1458.59 152.383ZM1462.24 -181.482C1465.15 -179.918 1476.45 -179.485 1478.24 -180.867C1480.53 -182.632 1478.85 -184.049 1473.41 -184.934C1465.03 -186.297 1457.57 -183.993 1462.24 -181.482ZM1498.91 -1012.45C1500.55 -1010.68 1503.41 -1009.35 1509.56 -1007.49C1514.18 -1006.08 1518.81 -1004.34 1519.85 -1003.6C1523.29 -1001.18 1524.49 -997.659 1523.86 -991.83L1523.3 -986.575L1526.66 -986.008C1532.47 -985.025 1553.05 -988.087 1559.91 -990.954C1565.43 -993.263 1565.37 -994.319 1559.37 -1000.08C1553.34 -1005.87 1551.98 -1008.95 1554.05 -1012.11C1556.19 -1015.37 1558.6 -1016.46 1570.49 -1019.53C1597.33 -1026.47 1620.03 -1035.81 1620.03 -1039.91C1620.03 -1041.47 1610.48 -1041.36 1601.97 -1039.72C1598.27 -1039 1590.03 -1037.69 1583.66 -1036.79C1577.28 -1035.9 1567.08 -1033.85 1560.97 -1032.24C1553.9 -1030.36 1542.73 -1028.37 1530.14 -1026.72C1508.87 -1023.94 1503.03 -1022.66 1499.71 -1020.05C1496.52 -1017.54 1496.28 -1015.27 1498.91 -1012.45ZM1508.72 -708.326C1511.91 -707.113 1516.33 -707.297 1517.49 -708.689C1519.05 -710.566 1515.64 -711.972 1511.16 -711.301C1506.71 -710.633 1505.75 -709.456 1508.72 -708.326ZM1531.88 -840.76C1533.85 -838.255 1537.46 -837.782 1538.28 -839.921C1539.4 -842.843 1534.53 -846.718 1531.66 -845.184C1529.71 -844.141 1529.75 -843.473 1531.88 -840.76ZM1534.65 -587.927C1535.29 -587.684 1540.05 -586.808 1545.23 -585.982C1554.48 -584.507 1554.71 -584.509 1557.66 -586.124C1561.24 -588.078 1563.77 -592.596 1563.96 -597.342C1564.15 -602.152 1563.11 -602.932 1558.13 -601.69C1552.39 -600.26 1538.8 -594.186 1535.93 -591.764C1533.23 -589.499 1532.93 -588.587 1534.65 -587.927ZM1544.44 -160.668C1550.22 -148.439 1554.77 -145.477 1571.01 -143.373C1586.87 -141.318 1596.26 -137.408 1600.42 -131.119C1602.2 -128.419 1602.71 -126.433 1603.13 -120.366C1603.44 -116.106 1604.14 -112.341 1604.79 -111.561C1605.41 -110.811 1608.06 -109.149 1610.67 -107.868C1615.11 -105.688 1616.3 -105.509 1629.27 -105.083C1642.14 -104.66 1643.44 -104.468 1647.4 -102.413C1650.26 -100.928 1652.88 -98.5841 1655.34 -95.3067C1659.46 -89.835 1666.94 -80.6348 1669.98 -77.3105C1672.46 -74.5952 1677.1 -72.3957 1690.1 -67.7667C1695.69 -65.7756 1702.64 -63.2518 1705.54 -62.1588C1710.12 -60.4357 1710.92 -60.3383 1711.6 -61.4254C1712.65 -63.1191 1711.99 -65.5831 1708.14 -74.2448C1704.44 -82.6007 1703.99 -86.2065 1706.57 -86.882C1707.5 -87.1248 1710.81 -86.7912 1713.93 -86.1401C1720.85 -84.6901 1727.73 -84.6103 1729.08 -85.9637C1729.63 -86.5182 1730.09 -87.9876 1730.09 -89.2285C1730.09 -91.7934 1729.36 -92.221 1716.65 -97.1138C1707.9 -100.479 1700.02 -102.566 1695.99 -102.586C1691.68 -102.607 1683.79 -107.221 1675.23 -114.74C1665.91 -122.921 1664.97 -123.472 1655.32 -126.417C1650.93 -127.756 1644.12 -130.922 1637.67 -134.62C1622.62 -143.256 1599.98 -154.07 1589.76 -157.511C1564.13 -166.136 1547.09 -170.503 1543.5 -169.363C1541.3 -168.663 1541.49 -166.905 1544.44 -160.668ZM1548.71 -631.909C1557.35 -625.651 1566.79 -624.471 1572.62 -628.921C1576.72 -632.046 1582.38 -640.86 1582.05 -643.616C1581.84 -645.424 1581.32 -645.778 1578.54 -646.006C1572.47 -646.503 1550.32 -640.393 1546.87 -637.276C1544.63 -635.242 1544.8 -634.743 1548.71 -631.909ZM1580.72 -179.284C1586.31 -174.801 1605.58 -169.441 1622.13 -167.762C1629.13 -167.053 1635.7 -168.455 1639.77 -171.527C1655.87 -183.677 1656.49 -183.834 1692.28 -184.892C1717.84 -185.647 1726.92 -186.563 1728.12 -188.512C1729.28 -190.389 1722.42 -194.829 1712.22 -198.801C1706.57 -201 1697.03 -204.882 1691.02 -207.425C1676.67 -213.501 1674.22 -213.731 1666.1 -209.771C1660.67 -207.125 1658.6 -206.601 1651.05 -205.985C1645.24 -205.511 1640.46 -204.573 1636.83 -203.2C1629.98 -200.604 1618.07 -197.17 1610.32 -195.561C1603.94 -194.236 1587.29 -187.594 1582.86 -184.603C1579.85 -182.577 1579.06 -180.614 1580.72 -179.284ZM1595.05 51.1949C1599.09 57.2009 1608.24 62.1988 1611.75 60.322C1613.82 59.2155 1613.75 58.8173 1610.72 54.247C1606.29 47.5529 1597.82 41.7376 1594.41 43.0465C1592.54 43.764 1592.87 47.9612 1595.05 51.1949ZM1599.34 132.636C1599.98 132.636 1605.74 129.191 1612.16 124.98C1618.57 120.769 1628.35 115.132 1633.89 112.456C1649.75 104.802 1655.29 99.5406 1652.93 94.373C1651.4 91.0058 1648.19 91.6603 1643.22 96.3532C1640.68 98.7501 1635.12 102.379 1629.56 105.264C1618.61 110.947 1608.51 118.639 1602.47 125.894C1598.03 131.233 1597.38 132.636 1599.34 132.636ZM1612.07 174.903C1615.59 176.582 1617.79 176.737 1617.31 175.273C1616.86 173.904 1610.71 171.862 1609.8 172.778C1609.41 173.166 1610.43 174.123 1612.07 174.903ZM1624.73 -517.08C1628.88 -513.915 1635.96 -513.35 1640.76 -515.799C1652.5 -521.787 1654.33 -535.759 1645.67 -553.325C1641.98 -560.828 1631.13 -573.521 1629.66 -572.056C1629.48 -571.877 1631.21 -565.708 1633.51 -558.348C1635.97 -550.44 1637.67 -543.409 1637.66 -541.164C1637.62 -533.774 1633.11 -527.605 1625.29 -524.253C1620.78 -522.32 1620.62 -520.22 1624.73 -517.08ZM1628.85 -688.712C1631.34 -686.214 1635.98 -685.394 1644.33 -685.973C1648.76 -686.279 1658.43 -686.876 1665.82 -687.299C1676.58 -687.915 1680.43 -688.482 1685.14 -690.138C1688.4 -691.285 1695.88 -692.814 1701.94 -693.573C1716.51 -695.396 1727.12 -697.946 1729.83 -700.275C1731.89 -702.042 1731.99 -702.534 1731.84 -709.504C1731.73 -714.552 1732.12 -718.211 1733.1 -721.144C1734.22 -724.508 1734.33 -725.973 1733.61 -728.006C1733.11 -729.428 1731.87 -734.18 1730.86 -738.566C1729.06 -746.346 1728.88 -746.676 1723.66 -752.083C1719.23 -756.677 1717.99 -758.619 1716.43 -763.431L1714.55 -769.236L1709.92 -770.737C1703.89 -772.696 1702.04 -774.864 1702.73 -779.174C1703.02 -780.968 1703.8 -783.5 1704.48 -784.802C1705.71 -787.181 1713.41 -797.128 1719.34 -804.01C1723.1 -808.366 1723.28 -810.102 1720.34 -813.604C1718.47 -815.821 1718.22 -816.743 1718.64 -819.818C1719.46 -825.798 1722.04 -829.751 1727.57 -833.508C1734.32 -838.095 1735.32 -839.819 1735.71 -847.628C1736.36 -860.397 1737.44 -862.361 1747.38 -868.835C1752.17 -871.958 1753.47 -872.422 1757.2 -872.337C1759.57 -872.283 1763.34 -871.8 1765.57 -871.263C1768.59 -870.54 1770.59 -870.528 1773.34 -871.22C1779.01 -872.647 1784.44 -872.315 1792.09 -870.071C1799.66 -867.848 1808.2 -866.602 1810.31 -867.411C1812.34 -868.19 1810.23 -871.625 1804.14 -877.432C1797.84 -883.433 1794.94 -884.681 1784.23 -885.998C1773.94 -887.261 1767.48 -890.1 1757.39 -897.796C1745.65 -906.757 1741.56 -908.173 1737.24 -904.773C1733.5 -901.83 1731.81 -897.043 1731.79 -889.317C1731.76 -877.983 1730.28 -874.6 1721.64 -866.064C1712.78 -857.303 1711.82 -855.055 1713.77 -847.527C1714.48 -844.798 1714.82 -841.475 1714.53 -840.144C1713.8 -836.81 1704.98 -829.036 1695.52 -823.383C1686.5 -817.991 1680.52 -812.451 1680.52 -809.478C1680.52 -807.252 1681.79 -806.473 1688 -804.902C1690.04 -804.387 1692.78 -802.891 1694.09 -801.578C1698.69 -796.981 1697.02 -792.379 1686.91 -781.838C1677.83 -772.375 1671.82 -763.634 1670.44 -757.897C1669.46 -753.817 1669.51 -753.41 1671.17 -751.745C1672.74 -750.176 1674.29 -749.896 1684.09 -749.406C1690.21 -749.1 1695.98 -748.555 1696.9 -748.195C1702.85 -745.875 1706.88 -739.866 1706.75 -733.513C1706.63 -728.073 1705.75 -726.259 1697.77 -715.131C1688.51 -702.215 1685.25 -700.582 1674.98 -703.698C1670.18 -705.154 1662.22 -705.308 1657.42 -704.038C1655.57 -703.549 1649.87 -703.076 1644.75 -702.987C1633.8 -702.797 1631.72 -701.863 1629.22 -696.022C1627.26 -691.459 1627.21 -690.35 1628.85 -688.712ZM1632.05 -1042.76C1634.26 -1041.92 1646.29 -1039.99 1649.39 -1039.97C1652.15 -1039.96 1655.49 -1043.9 1655.15 -1046.79C1654.82 -1049.66 1650.63 -1051.75 1643.79 -1052.47C1636.92 -1053.18 1634.97 -1052.55 1632.34 -1048.76C1629.61 -1044.82 1629.56 -1043.71 1632.05 -1042.76ZM1650.21 147.412C1651.74 153.615 1653.17 153.426 1658.76 146.288C1661.2 143.169 1666.18 137.497 1669.82 133.684C1677.63 125.505 1677.92 123.947 1671.69 123.543C1666.19 123.187 1662.3 124.415 1657.63 127.982C1651.83 132.412 1648.6 140.869 1650.21 147.412ZM1669.87 23.2776L1671.82 25.1082L1676.56 21.4234C1679.85 18.8703 1682.46 17.5656 1685.05 17.1766C1689.41 16.5221 1693.91 13.7506 1695.41 10.7933C1697.59 6.47678 1696.18 1.14199 1692.3 -0.93396C1689.07 -2.66461 1687.53 -0.508013 1684.83 9.55835C1684.33 11.4066 1682.95 13.9589 1681.77 15.2292C1679.93 17.1959 1678.94 17.5395 1675.09 17.5395C1672.61 17.5395 1669.98 17.7689 1669.25 18.0495C1667.33 18.7846 1667.61 21.1604 1669.87 23.2776ZM1674.45 75.1846C1675.25 76.1617 1679.1 79.1122 1683.01 81.7426C1688.64 85.5316 1690.56 86.4137 1692.25 85.9945C1695.38 85.2182 1698.02 82.429 1700.78 76.9749C1702.17 74.2252 1706.33 68.8753 1710.41 64.5705C1716.84 57.7781 1720.78 51.8292 1720.83 48.8081C1720.87 46.3549 1717.81 47.0388 1707.64 51.7594C1701.73 54.4982 1692.77 58.2208 1687.72 60.033C1677.28 63.7774 1672.95 66.9993 1672.98 70.9865C1672.99 72.3181 1673.65 74.2075 1674.45 75.1846ZM1674.01 -1053.4C1675.66 -1051.22 1678.82 -1050.4 1692.56 -1048.6C1705.87 -1046.85 1712.9 -1044.87 1722.95 -1040.06C1731.88 -1035.77 1735.51 -1036.05 1743.53 -1041.6C1752.04 -1047.5 1754.48 -1048.39 1764.98 -1049.38C1774.61 -1050.29 1779.04 -1051.99 1779.48 -1054.93C1779.61 -1055.84 1777.77 -1060.54 1775.39 -1065.39C1770.6 -1075.13 1770.05 -1078.69 1772.64 -1083.17C1775.24 -1087.67 1778.72 -1088.9 1788.9 -1088.91C1796.07 -1088.91 1798.2 -1089.21 1800.33 -1090.5C1803.86 -1092.66 1804.48 -1095.29 1801.84 -1097.01C1800.03 -1098.2 1797.49 -1098.24 1777.76 -1097.41C1754.28 -1096.41 1750.35 -1095.8 1747.2 -1092.65C1744.77 -1090.22 1744.72 -1088.57 1746.89 -1082.4C1749.22 -1075.78 1749.04 -1073.54 1745.93 -1070C1742.67 -1066.27 1741.35 -1065.56 1735.81 -1064.51C1730.64 -1063.53 1722.02 -1064.8 1706.64 -1068.8C1694.96 -1071.84 1687.34 -1072.14 1682.03 -1069.76C1677.58 -1067.77 1675.89 -1065.92 1674.24 -1061.24C1672.68 -1056.83 1672.64 -1055.2 1674.01 -1053.4ZM1679.21 -153.006C1682.83 -153.006 1683.84 -154.423 1681 -155.504C1678.49 -156.457 1676.32 -155.84 1676.32 -154.176C1676.32 -153.402 1677.3 -153.006 1679.21 -153.006ZM1695.29 122.885C1696.02 123.166 1698.07 123.395 1699.84 123.395C1703.86 123.395 1705.72 122.71 1705.72 121.227C1705.72 118.257 1695.53 116.096 1694.47 118.843C1693.63 121.047 1693.89 122.347 1695.29 122.885ZM1695.72 -509.727C1699.37 -499.126 1706.91 -490.652 1731.01 -470.112C1743.97 -459.059 1752.32 -452.762 1757.56 -450.098C1760.4 -448.652 1762.87 -448.306 1762.83 -449.359C1762.81 -449.706 1759.5 -453.794 1755.48 -458.444C1745.86 -469.544 1725.25 -489.222 1714.62 -497.466C1709.96 -501.077 1704.63 -505.594 1702.78 -507.503C1699.7 -510.687 1699.39 -511.438 1699 -516.541C1698.53 -522.8 1697.25 -524.066 1695.27 -520.235C1693.6 -516.994 1693.65 -515.754 1695.72 -509.727ZM1709.4 -954.014C1711.77 -948.921 1720.77 -938.935 1720.82 -941.344C1720.86 -943.679 1715.98 -952.364 1712.24 -956.621C1707.1 -962.461 1705.95 -961.413 1709.4 -954.014ZM1730.36 -585.79C1735.16 -581.806 1750.09 -580.672 1757.07 -583.761C1763.57 -586.635 1772.48 -595.705 1770.62 -597.559C1770.06 -598.117 1766.87 -596.97 1761.07 -594.128C1749.87 -588.642 1744.85 -587.677 1736.91 -589.484C1733.64 -590.227 1730.58 -590.596 1730.11 -590.303C1728.89 -589.55 1729.04 -586.888 1730.36 -585.79ZM1745.42 -425.358C1748.31 -422.244 1752.46 -417.357 1754.64 -414.498C1760.21 -407.193 1763.68 -405.544 1773.35 -405.609C1777.51 -405.638 1784.88 -406.327 1789.74 -407.142C1796.43 -408.268 1800.38 -408.471 1806.12 -407.989C1814.83 -407.258 1818.65 -407.256 1821.55 -407.984C1825.2 -408.901 1821.84 -410.698 1814.52 -411.744C1804.82 -413.131 1796.53 -415.53 1785.54 -420.132C1774.3 -424.834 1765.02 -428.215 1753.02 -431.967C1744.24 -434.712 1740.17 -434.816 1740.17 -432.297C1740.17 -431.595 1742.53 -428.472 1745.42 -425.358ZM1742.12 -21.007C1744.9 -13.5627 1747.81 -10.3971 1760.99 -0.523132C1765.93 3.17341 1771.07 7.78402 1772.42 9.72302C1774.66 12.9474 1774.92 14.0925 1775.49 23.165C1776.14 33.4036 1777.07 37.2976 1779.84 41.2747C1782.35 44.8805 1784.42 45.5602 1794.78 46.1936C1803.37 46.7187 1805.4 47.1656 1813.1 50.2329C1817.87 52.1308 1824.1 54.9074 1826.96 56.4045L1832.16 59.1256L1850.61 59.3827C1860.76 59.5239 1869.83 59.4399 1870.77 59.1962C1871.72 58.9518 1873.12 57.6302 1873.89 56.2592C1874.87 54.5226 1876.33 53.4859 1878.72 52.8423C1880.61 52.3341 1882.69 51.0831 1883.33 50.0616C1884.03 48.9686 1884.75 44.5738 1885.08 39.3827C1885.39 34.531 1886.24 28.2931 1886.96 25.5207C1888.67 18.9064 1888.62 8.92658 1886.83 4.10175C1883.13 -5.93017 1875.4 -14.0306 1867.5 -16.1696C1861.1 -17.9002 1849.81 -15.7033 1849.81 -12.7276C1849.81 -11.985 1852.49 -10.4668 1856.72 -8.81937C1860.52 -7.33739 1864.75 -5.32611 1866.12 -4.34988C1869.38 -2.02862 1874.14 5.88701 1876.73 13.286C1879.98 22.6088 1879.4 26.1054 1873.1 34.9981C1868.88 40.9588 1866.12 42.7432 1861.15 42.7432C1854.76 42.7432 1849.18 38.0705 1848.13 31.846C1847.24 26.6053 1845.64 25.9424 1833.87 25.9323C1825.06 25.9256 1823.22 25.6736 1819.55 23.9656C1811.46 20.196 1807.38 12.8499 1810.15 7.03796C1810.87 5.52406 1813.19 2.34001 1815.3 -0.0375366C1817.41 -2.41509 1819.14 -4.69434 1819.14 -5.10349C1819.14 -7.97251 1815.25 -11.0247 1811.59 -11.0247C1810.62 -11.0247 1807.54 -9.8317 1804.74 -8.37241C1798.55 -5.15641 1793.36 -4.74309 1790.54 -7.24414C1789.5 -8.16828 1787.8 -10.8147 1786.76 -13.125C1784.35 -18.4968 1782.48 -20.1493 1773.98 -24.3877C1769.44 -26.6535 1765.82 -29.1966 1763.48 -31.7564C1756.89 -38.9781 1756.28 -39.5192 1754.22 -40.0359C1751.23 -40.7869 1746.62 -38.5379 1743.93 -35.022C1741.16 -31.3918 1740.42 -25.5949 1742.12 -21.007ZM1779.29 -730.65C1782.55 -727.4 1790.85 -730.37 1796.7 -736.872C1801.61 -742.333 1803.91 -750.779 1801.51 -754.534C1800.51 -756.092 1799.53 -755.544 1789.98 -748.109C1778.68 -739.316 1775.62 -734.322 1779.29 -730.65ZM1779.38 -787.488C1779.61 -786.899 1782.7 -784.196 1786.24 -781.482C1789.78 -778.768 1794.36 -774.807 1796.42 -772.681C1798.48 -770.555 1800.6 -768.816 1801.12 -768.816C1802.24 -768.816 1804.02 -772.414 1804.02 -774.672C1804.02 -777.127 1800.09 -781.201 1796.64 -782.319C1794.92 -782.876 1790.59 -784.791 1787.02 -786.576C1779.04 -790.567 1778.09 -790.679 1779.38 -787.488ZM1812.3 -666.705C1815.97 -660.691 1824.12 -656.109 1834.07 -654.473C1845.16 -652.648 1843.75 -654.663 1826.48 -665.336C1818.87 -670.036 1812.22 -673.882 1811.69 -673.882C1810.21 -673.882 1810.58 -669.536 1812.3 -666.705ZM1817.55 -565.074C1820.07 -560.283 1825.05 -554.528 1834.81 -545.118C1839.84 -540.259 1845.34 -533.91 1848.25 -529.589C1854.17 -520.783 1858.51 -517.399 1864.02 -517.281C1871.2 -517.127 1874.34 -523.171 1871.75 -532.111C1869.72 -539.086 1868.36 -540.31 1861.14 -541.676C1857.71 -542.323 1854.14 -543.363 1853.2 -543.987C1852.26 -544.612 1849.22 -548.291 1846.44 -552.164C1840.52 -560.409 1834.7 -564.748 1824.18 -568.765C1815.24 -572.179 1814.13 -571.557 1817.55 -565.074ZM1830.87 -849.888C1834.24 -843.036 1839.78 -836.974 1847.07 -832.156C1853.65 -827.809 1853.72 -827.796 1865.35 -828.891C1870.77 -829.401 1872.7 -829.178 1879.19 -827.29C1891.89 -823.595 1905.67 -822.475 1905.67 -825.138C1905.67 -825.602 1904.76 -827.391 1903.65 -829.113C1901 -833.222 1900.28 -837.021 1901.47 -840.631C1902.73 -844.468 1905.37 -846.439 1912.23 -848.676C1922.93 -852.166 1925.52 -854.152 1921.85 -856.049C1916.61 -858.754 1908.26 -857.751 1898.05 -853.191C1886.39 -847.982 1872.3 -846.377 1861.89 -849.074C1859.16 -849.781 1852.4 -852.052 1846.87 -854.119C1835.33 -858.439 1828.93 -859.311 1828.6 -856.609C1828.48 -855.685 1829.51 -852.661 1830.87 -849.888ZM1917.59 -6.0083C1920.88 -4.00461 1924.77 -3.81475 1927.23 -5.53952C1929.68 -7.25673 1938.44 -22.8385 1938.44 -25.4824C1938.44 -28.7202 1934.05 -33.0536 1931.12 -32.7167C1929.13 -32.489 1928.67 -31.9328 1928.08 -29.0873C1926 -19.0487 1924.73 -17.003 1918.18 -13.1116C1914.25 -10.771 1914.03 -8.17918 1917.59 -6.0083ZM1948.74 -145.444C1950.49 -145.444 1958.76 -151.377 1962.8 -155.534C1967.55 -160.409 1971.77 -167.901 1970.49 -169.179C1968.57 -171.095 1956.47 -160.113 1950.4 -150.946C1947.43 -146.465 1947.13 -145.444 1948.74 -145.444ZM1956.42 -488.583C1957.04 -487.168 1959.77 -483.966 1962.49 -481.466C1965.2 -478.967 1973.66 -470.606 1981.28 -462.886C1988.91 -455.167 1996.41 -448.23 1997.95 -447.471C1999.49 -446.713 2004.07 -445.749 2008.12 -445.329C2012.18 -444.91 2016.11 -444.329 2016.87 -444.038C2018 -443.606 2018.25 -444.082 2018.25 -446.632C2018.25 -449.71 2018.21 -449.749 2015.48 -449.237C2013.86 -448.933 2010.81 -449.279 2008.13 -450.069C2002.19 -451.823 1998.3 -455.907 1992.06 -466.978C1988.23 -473.756 1987 -476.904 1985.84 -482.873C1985.05 -486.966 1983.87 -490.929 1983.23 -491.678C1981.74 -493.414 1973.02 -496.282 1966.95 -497.032C1962.19 -497.621 1956.08 -496.032 1956.08 -494.208C1956.08 -493.76 1955.91 -492.889 1955.69 -492.274C1955.48 -491.659 1955.81 -489.998 1956.42 -488.583ZM1973.11 -291.708C1974.69 -288.636 1976.57 -287.762 1979.12 -288.923C1982.35 -290.397 1981.96 -293.995 1977.77 -301.364C1975.02 -306.203 1974.02 -307.341 1973.15 -306.621C1971.71 -305.43 1971.68 -294.477 1973.11 -291.708ZM1976.2 -316.83C1976.64 -316.83 1977.3 -317.329 1977.67 -317.939C1978.04 -318.549 1980.49 -320.649 1983.1 -322.606C1989.26 -327.213 1990.2 -329.436 1985.97 -329.428C1983.34 -329.424 1978.96 -326.43 1977.08 -323.348C1975.33 -320.478 1974.84 -316.83 1976.2 -316.83ZM1980.63 39.1727C1982.39 42.8323 1984.52 40.5329 1983.02 36.5868C1982.55 35.3527 1981.59 34.342 1980.89 34.342C1979.42 34.342 1979.3 36.4255 1980.63 39.1727ZM2010.41 -397.692C2010.94 -396.377 2013.32 -396.345 2016.11 -397.617C2018.19 -398.565 2018.25 -398.815 2018.25 -406.858C2018.25 -411.404 2017.91 -415.124 2017.48 -415.124C2016.33 -415.124 2012.26 -410.022 2010.98 -406.96C2009.86 -404.292 2009.58 -399.736 2010.41 -397.692ZM2012.72 -375.218C2013.33 -373.832 2014.83 -371.781 2016.04 -370.661L2018.25 -368.624V-375.056C2018.25 -381.213 2018.16 -381.51 2016.15 -382.014C2011.69 -383.134 2010.36 -380.513 2012.72 -375.218ZM2016.17 -493.239C2017.89 -491.814 2018.42 -492.541 2018.1 -495.855C2017.84 -498.488 2017.76 -498.547 2016.36 -497.135C2014.56 -495.322 2014.52 -494.607 2016.17 -493.239Z" fill="#FDABCA"/>
<path d="M1914.5 161.859C1919 152.359 1929.43 152.104 1939.9 149.806C1948.86 147.841 1954.61 145.599 1956.87 143.193C1958.76 141.175 1958.77 141.116 1957.72 130.487C1956.85 121.565 1956.28 119.063 1954.27 115.295C1952.94 112.815 1951.32 108.481 1950.66 105.665C1949.15 99.1895 1947.89 97.8394 1941.32 95.6509C1937.6 94.4151 1935.21 92.9851 1933.4 90.9226L1930.8 87.9662L1931.02 78.5871L1931.23 69.2071L1927.76 63.9345C1923.04 56.754 1922.73 54.0723 1925.35 43.2053C1929.66 25.3098 1935.59 17.984 1948.2 14.9545C1954.13 13.5305 1956.24 12.0073 1955.92 9.37857C1955.48 5.68035 1952.11 3.94968 1945.36 3.94968C1936.13 3.94968 1933.18 5.66016 1926.09 15.1191C1915.69 28.9929 1914.36 33.6489 1917.05 46.8792C1918.87 55.8466 1918.18 59.4298 1913.71 64.1664C1909.96 68.1427 1907.95 67.6378 1900 60.721C1893.06 54.6864 1889.41 53.4069 1885.83 55.7567C1884.62 56.5481 1881.69 57.8529 1879.32 58.656C1875.41 59.9809 1874.98 60.3724 1874.74 62.9045C1874.12 69.2004 1878.11 74.9141 1885.52 78.3435C1889.87 80.3589 1890.71 82.3861 1891.46 92.6978C1891.84 97.799 1892.54 103.293 1893.03 104.907C1895.37 112.677 1893.38 118.569 1885.48 127.263C1877.11 136.462 1873.75 141.036 1873.75 143.214C1873.75 144.735 1874.2 145.238 1875.58 145.238C1879.54 145.238 1884.73 141.5 1894.72 131.446C1903.44 122.666 1906.03 120.57 1911.05 118.244C1916.12 115.894 1917.98 115.474 1923.46 115.447C1928.7 115.42 1930.35 115.74 1932.23 117.146C1938.65 121.937 1939.71 128.108 1935.45 135.942C1932.14 142.026 1928.38 144.545 1918.53 147.276C1909.45 147.276 1911.59 147.509 1908 157.359V159.359L1908.5 160.359L1911 161.359L1914.5 161.859Z" fill="#FDABCA"/>
<path d="M1121.85 -895.5C1122.08 -894.847 1122.32 -894.189 1122.58 -893.546C1124.87 -887.726 1125.31 -887.182 1130.98 -883.337C1138.12 -878.487 1138.35 -877.436 1133.6 -871.12C1131.75 -868.66 1130.24 -866.131 1130.24 -865.501C1130.24 -863.517 1133.53 -862.416 1137.69 -863.009C1144.21 -863.942 1160.15 -868.344 1168.74 -871.585C1178.56 -875.292 1183.51 -875.838 1190.6 -873.995C1194.29 -873.035 1198.81 -872.662 1205.31 -872.781C1211.71 -872.899 1217.13 -872.461 1222.36 -871.405C1229.6 -869.941 1230.14 -869.935 1232.21 -871.288C1235.12 -873.197 1237.15 -876.42 1237.15 -879.149C1237.15 -880.764 1236.02 -882.36 1233.05 -884.956C1229.58 -887.99 1229.09 -888.769 1229.87 -890.068L1214.81 -900.075L1193.2 -893.546C1182.53 -894.626 1156.5 -896.786 1137.69 -896.786C1127.95 -896.786 1123.49 -896.208 1121.85 -895.5Z" fill="#FDABCA"/>
<path d="M1288.6 -890.697C1304.91 -887.069 1310.49 -886.131 1320.54 -885.325C1326.56 -884.842 1334.69 -883.883 1338.61 -883.194C1347.56 -881.619 1355.45 -881.59 1359.12 -883.12C1360.96 -883.891 1363.15 -886.076 1365.4 -889.392L1350.5 -896.786L1320.54 -893.546L1288.6 -890.697Z" fill="#FDABCA"/>
<path d="M1014.11 153.767C1005.79 153.368 993.697 152.254 987.228 151.289C978.751 150.026 971.982 149.577 962.992 149.684L950.519 149.832L943.812 146.346C940.123 144.429 936.36 142.859 935.451 142.859C932.625 142.859 928.593 145.378 924.215 149.879C921.902 152.256 918.656 155.207 917.002 156.437C925.04 160.79 933.717 162.545 937.05 162.879L948.05 164.057L969.55 162.879L1001.08 160.379L1016.62 158.879L1027.05 156.979V154.587C1024.29 154.287 1020.27 154.062 1014.11 153.767Z" fill="#FDABCA"/>
</g>
<defs>
<clipPath id="clip0_2768_22">
<rect width="1920" height="255" fill="white"/>
</clipPath>
</defs>
</svg>
