<svg width="1920" height="1080" viewBox="0 0 1920 1080" fill="none" xmlns="http://www.w3.org/2000/svg">
<g clip-path="url(#clip0_2688_1060)">
<path fill-rule="evenodd" clip-rule="evenodd" d="M2.7304 1268.33C4.23254 1268.02 7.13433 1267.03 9.18087 1266.15C13.9494 1264.08 12.9572 1263.02 5.61119 1262.33L0 1261.81L0 1265.36L0 1268.9L2.7304 1268.33ZM0.398219 1026.82C0.617491 1026.82 1.41561 1025.62 2.17256 1024.16C3.83853 1020.93 3.44367 1014.55 1.39545 1011.63C0.0562882 1009.72 0 1009.98 0 1018.23C0 1022.95 0.178946 1026.82 0.398219 1026.82ZM27.5556 232.736C30.0556 238.236 27.5813 238.106 33.936 239.199C40.2898 240.292 46.4236 241.799 47.5661 242.547C49.9739 244.126 51.2475 246.998 51.2475 250.851C51.2475 253.733 49.7286 255.491 41.8482 261.732C36.8991 265.651 36.1749 267.654 38.7272 270.371C41.1745 272.975 46.1581 274.437 61.329 276.997C85.1432 281.017 93.9922 281.247 97.309 277.93C98.5768 276.663 98.5709 276.251 97.2267 272.469C94.8651 265.818 95.1927 264.623 101.174 258.105C104.779 254.176 107.154 250.675 108.314 247.573C109.271 245.017 110.694 241.948 111.478 240.751C112.819 238.706 112.819 238.514 111.475 237.532C109.619 236.174 94.209 235.156 85.8926 235.841C78.4978 236.45 71.5298 235.6 61.3173 232.845C54.8483 231.099 53.7595 230.483 48.6482 225.683C42.1028 219.536 43.5159 221.408 33.936 218.859C30.0941 217.837 28.5556 217.736 28.5556 217.736C28.0556 217.736 27.5556 218.859 27.5556 218.859L27.0556 222.236V226.236V228.736L27.5556 232.736ZM3.57053 172.054C7.65773 171.401 8.83222 170.544 8.13408 168.723C7.71486 167.633 1.81131 164.008 0.453667 164.008C0.20415 164.008 0 165.947 0 168.317L0 172.625L3.57053 172.054ZM44.0009 1051.39C47.8402 1051.39 54.1521 1051.64 58.0267 1051.94C63.8606 1052.4 65.0048 1052.29 64.6805 1051.32C63.806 1048.69 58.7703 1046.81 52.6844 1046.83C46.9875 1046.86 38.5174 1048.96 37.5 1050.61C37.2211 1051.06 39.9473 1051.39 44.0009 1051.39ZM35.6855 969.426C36.0619 969.659 38.5352 970.659 41.1816 971.65C45.0059 973.081 46.2434 973.241 47.2171 972.433C48.6352 971.256 48.841 966.376 47.5725 964.006C45.7099 960.527 35 963.383 35 967.359C35 968.263 35.3083 969.193 35.6855 969.426ZM28.2693 1264.85C35.4919 1266.9 56.563 1265.75 70.3982 1262.54C75.3448 1261.39 81.5214 1260.04 84.1233 1259.53C89.3337 1258.52 95.9329 1255.49 96.4244 1253.88C96.6176 1253.25 93.5562 1253.94 88.4852 1255.68C77.6879 1259.37 72.4304 1260.15 48.3903 1261.6C29.9899 1262.71 24.0973 1263.66 28.2693 1264.85ZM54.4812 777.719C56.7235 781.372 65.9001 789.77 79.8159 800.903C93.1924 811.603 112.895 826.325 117.814 829.294C121.573 831.562 124.894 831.428 124.477 829.025C123.88 825.588 116.963 816.794 107.204 807.067C99.143 799.031 94.3669 795.152 84.1712 788.359C69.3035 778.453 60.8283 773.954 56.5521 773.699C52.906 773.481 52.438 774.389 54.4812 777.719ZM77.0788 1020.66C81.8642 1022.66 89.5849 1021.73 99.1346 1018.01C111.666 1013.12 117.915 1009.46 125.255 1002.7C129 999.252 134.606 994.786 137.713 992.776C140.821 990.766 143.902 988.471 144.562 987.677C145.365 986.71 145.96 982.874 146.363 976.069C146.694 970.48 147.217 963.267 147.524 960.042C148.042 954.605 147.979 954.262 146.667 955.35C145.889 955.996 143.791 959.014 142.004 962.056C138.494 968.033 134.568 972.137 128.396 976.282C124.424 978.949 123.896 979.899 121.789 988.17C119.986 995.253 118.51 997.191 109.89 1003.8C100.275 1011.17 97.0662 1012.58 84.5786 1014.95C79.6286 1015.89 75.207 1016.88 74.7542 1017.16C73.1613 1018.15 73.9628 1019.35 77.0788 1020.66ZM79.8941 1157.87C83.9578 1168.13 84.7584 1169.64 86.1421 1169.64C87.7745 1169.64 89.8932 1164.76 89.8932 1161.01C89.8932 1156.85 86.0816 1149.85 82.6715 1147.74C76.7932 1144.11 75.8312 1147.62 79.8941 1157.87ZM78.2676 594.362C78.9103 596.121 79.6656 596.672 81.4315 596.672C86.0236 596.672 88.2374 591.241 84.6651 588.739C82.0767 586.925 80.136 587.104 78.5995 589.298C77.12 591.41 77.1301 591.247 78.2676 594.362ZM81.6861 1190.08C82.527 1191.21 84.6047 1191.83 89.3883 1192.36C96.8511 1193.2 100.877 1195.19 106.57 1200.86C113 1204.41 110 1200.86 114 1202.86C116.5 1204.36 125 1201.86 125 1201.86C125 1201.86 125.964 1201.63 127 1201.36C129.736 1200.64 131.433 1197.86 132 1196.86C140.899 1181.18 129.337 1196.94 116.154 1189.22C113.007 1187.37 110.848 1186.86 104.224 1186.4C94.8197 1185.75 92.6362 1184.81 89.0649 1179.87C87.6224 1177.88 85.9934 1176.4 85.4448 1176.58C82.3851 1177.6 79.6647 1187.37 81.6861 1190.08ZM100.036 573.455C102.193 576.199 103.335 576.277 103.335 573.682C103.335 571.623 100.442 567.268 99.0733 567.268C97.6543 567.268 98.2659 571.206 100.036 573.455ZM102.081 1123.65C103.56 1129.52 105.34 1133.18 108.209 1136.24C112.594 1140.93 113.538 1138.57 111.316 1128.47C109.745 1121.33 109.759 1115.1 111.363 1106.65C112.989 1098.07 112.744 1093.73 110.612 1093.33C108.639 1092.95 105.346 1096.02 103.098 1100.33C100.833 1104.66 100.312 1116.63 102.081 1123.65ZM114.99 1082.2C115.668 1083.21 116.595 1083.04 120.803 1081.15C126.729 1078.49 127.173 1078.46 135.064 1080.31C143.904 1082.38 144.816 1081.87 148.804 1072.6C153.305 1062.15 153.239 1061.72 146.63 1058.63C143.465 1057.15 140.538 1056.3 139.614 1056.59C138.743 1056.87 135.8 1058.83 133.075 1060.94C130.349 1063.06 125.63 1066.24 122.588 1068.02C119.546 1069.8 116.57 1071.84 115.974 1072.56C114.589 1074.23 113.935 1080.63 114.99 1082.2ZM120.863 650.056C124.59 656.168 136.327 662.819 141.63 661.825C153.062 659.68 147.754 645.887 132.981 639.353C127.42 636.893 122.917 636.916 120.894 639.413C118.855 641.931 118.841 646.74 120.863 650.056ZM137.916 615.575C140.334 619.966 145.232 623.958 150.796 626.074C154.243 627.385 153.386 625.218 148.186 619.471C143.417 614.2 139.249 611.307 137.756 612.229C136.729 612.864 136.759 613.472 137.916 615.575ZM143.555 72.3785C145.855 73.6085 149.892 73.5027 153.191 72.124C158.346 69.9699 164.847 60.3497 163.507 56.8582C162.719 54.8032 161.503 55.4602 158.784 59.4121C156.04 63.3993 153.572 65.0183 146.644 67.3715C142.074 68.924 140.84 70.9251 143.555 72.3785ZM150.592 692.981C154.429 698.723 160.359 702.528 165.469 702.528C170.113 702.528 171.999 700.953 173.077 696.176C174.098 691.65 172.855 689.27 168.456 687.324C164.42 685.539 152.619 683.837 149.654 684.613C147.06 685.291 147.384 688.181 150.592 692.981ZM150.938 923.27C151.808 925.424 153.707 924.215 154.586 920.947C155.596 917.198 155.02 912.601 153.254 910.292C152.243 908.972 151.986 908.939 151.251 910.038C150.396 911.315 150.16 921.34 150.938 923.27ZM159.565 1004.13C160.368 1008.15 161.832 1010.64 163.746 1011.25C164.628 1011.53 168.142 1012.07 171.552 1012.45C174.964 1012.84 179.026 1013.81 180.58 1014.61C185.125 1016.96 198.905 1030.79 199.996 1034.1C202.077 1040.41 199.17 1044.95 189.438 1050.61C179.927 1056.14 179.641 1057.8 187.584 1061.37C191.583 1063.17 193.186 1063.35 205.83 1063.42C222.487 1063.51 225.574 1064.44 235.235 1072.19C238.7 1074.97 245.541 1079.31 250.438 1081.83C259.866 1086.67 261.588 1088.04 261.138 1090.33C259.812 1097.07 237.487 1099.24 207.041 1095.6C188.294 1093.35 180.408 1094.26 188.959 1097.68C195.897 1100.46 210.544 1102.73 244.476 1106.3C254.747 1107.38 259.784 1109.2 278.744 1118.69C289.238 1123.95 301.037 1130.41 304.965 1133.06C312.362 1138.04 332.481 1148.22 339.83 1150.7C345.618 1152.66 351.626 1153.3 352.4 1152.05C353.41 1150.41 347.132 1145.24 337.678 1139.91C331.796 1136.6 326.833 1132.98 322.608 1128.91C317.232 1123.74 315.444 1122.56 310.426 1120.92C299.095 1117.21 295.634 1114.47 291.853 1106.21C289.732 1101.57 286.482 1087.72 286.482 1083.31C286.482 1078.95 288.675 1075.59 292.671 1073.83C297.984 1071.48 336.605 1069.89 345.156 1071.68C361.011 1074.98 381.653 1087.75 384.044 1095.73C385.449 1100.42 383.688 1102.66 375.726 1106.29C366.617 1110.44 366.218 1111.68 372.854 1115.26C380.031 1119.13 391.55 1122.74 396.965 1122.82C401.488 1122.89 402.795 1122.47 409.542 1118.79L417.072 1114.69L428.438 1114.17C441.01 1113.6 442.536 1113.1 449.046 1107.47C454.367 1102.86 457.311 1101.48 462.848 1100.98C468.219 1100.49 474.483 1101.88 484.728 1105.83C496.361 1110.31 502.394 1116.24 502.394 1123.18C502.394 1129.03 499.481 1133.64 488.335 1145.43C484.978 1148.98 482.231 1152.25 482.231 1152.69C482.231 1154.19 486.453 1154.56 493.533 1153.68C501.132 1152.73 506.146 1151.24 510.673 1148.57C515.358 1145.8 523.058 1138.7 524.516 1135.8C525.674 1133.5 527.068 1126.24 529.005 1112.45C529.498 1108.93 527.009 1105.39 521.892 1102.34C506.479 1093.14 509.131 1082.31 529.276 1072.18C541.109 1066.23 561.755 1060.77 569.69 1061.49C579.075 1062.34 590.718 1070.68 595.179 1079.74C596.43 1082.28 598.237 1085.2 599.195 1086.23C601.469 1088.67 606 1090.12 609.354 1089.49C613.037 1088.79 617.491 1085.94 617.491 1084.27C617.491 1083.52 614.372 1079.71 610.56 1075.81C606.59 1071.75 602.007 1065.96 599.833 1062.26C594.156 1052.6 593.669 1052.43 571.75 1052.72C562.071 1052.84 549.997 1053.49 544.919 1054.16C531.724 1055.9 526.648 1055.78 523.931 1053.64C521.343 1051.6 521.273 1051.11 523.055 1047.35C524.83 1043.61 530.304 1040.27 540.751 1036.55C561.864 1029.03 579.653 1021.13 588.064 1015.53C597.801 1009.05 600.101 1007.99 610.35 1005.27C614.748 1004.1 623.359 1000.63 630.933 996.963C645.792 989.774 660.226 985.601 675.459 984.091C693.446 982.309 713.822 987.807 718.081 995.592C721.2 1001.29 721.162 1003.7 717.784 1014.38C713.555 1027.76 714.471 1028.69 728.385 1025.14C732.002 1024.21 738.693 1023.14 743.252 1022.76C748.568 1022.31 752.313 1021.55 753.688 1020.65C756.494 1018.81 758.393 1015.29 757.333 1013.89C756.892 1013.31 754.403 1009.62 751.801 1005.7C740.787 989.112 740.705 985.781 751.042 975.12C759.639 966.254 761.111 961.317 757.725 952.706C755.416 946.832 754.295 945.725 748.673 943.763C746.064 942.853 741.966 941.254 739.566 940.209C735.697 938.524 734.819 938.424 731.833 939.318C727.221 940.699 724.229 943.418 718.329 951.592C709.552 963.751 705.974 965.982 693.177 967.278C688.746 967.726 680.962 969.064 675.88 970.251C669.888 971.65 663.062 972.559 656.469 972.837L646.3 973.265L643.867 970.215C642.212 968.141 640.749 967.167 639.289 967.167C635.668 967.167 629.383 971.913 617.743 983.436C606.427 994.639 600.13 999.091 595.604 999.091C594.299 999.091 590.799 998.527 587.825 997.838C579.88 995.995 577.734 996.926 565.189 1007.65C562.068 1010.32 557.961 1013.3 556.063 1014.26C552.464 1016.1 536.384 1020.07 532.498 1020.09C531.266 1020.09 527.763 1018.77 524.715 1017.15C521.666 1015.54 518.516 1014.22 517.714 1014.22C515.069 1014.24 507.901 1018.16 505.248 1021.04C503.815 1022.6 501.439 1026.02 499.969 1028.65C497.201 1033.59 489.803 1041.02 485.362 1043.32C483.558 1044.25 481.174 1044.54 477.189 1044.32C472.276 1044.04 470.952 1043.58 466.739 1040.67C462.528 1037.77 461.31 1037.35 457.161 1037.33C452.807 1037.32 452.383 1037.48 452.128 1039.29C451.909 1040.83 453.401 1042.74 459.059 1048.15L466.269 1055.04V1059.35C466.269 1065.81 464.295 1067.59 448.38 1075.49C438.305 1080.5 433.38 1082.47 429.442 1083.07C423.726 1083.93 417.246 1083.13 413.422 1081.09C412.223 1080.45 408.783 1078.59 405.78 1076.95C401.909 1074.84 397.627 1073.44 391.078 1072.15C377.201 1069.39 374.574 1067.68 370.074 1058.48C367.03 1052.26 365.516 1051.66 355.814 1052.87C343.201 1054.43 338.707 1054.03 328.736 1050.41C323.748 1048.6 315.937 1045.41 311.378 1043.33C301.639 1038.87 293.11 1037.08 288.644 1038.56C285.492 1039.6 285.204 1040.14 284.38 1046.65C283.464 1053.89 279.088 1058.95 271.407 1061.66C258.922 1066.07 249.418 1057.09 252.313 1043.62C252.891 1040.93 252.552 1040.16 248.327 1034.58C241.441 1025.49 241.209 1021.58 247.044 1012.99C250.903 1007.3 251.797 1004.61 250.39 1002.91C249.842 1002.25 246.68 1000.69 243.365 999.447C236.045 996.697 233.554 994.621 233.554 991.271C233.554 989.202 235.233 987.142 243.533 979.026C252.539 970.218 254.51 968.741 263.748 963.867C277.342 956.693 278.078 955.771 278.089 945.889C278.096 939.552 278.449 937.436 280.078 933.982C282.445 928.963 284.43 927.038 291.085 923.305C293.848 921.755 296.684 919.459 297.386 918.202C298.559 916.103 298.525 915.656 296.984 912.767C295.632 910.234 294.757 909.566 292.503 909.349C289.565 909.068 289.518 909.108 277.392 922.22C275.682 924.068 272.208 926.675 269.671 928.014C267.135 929.352 259.388 933.962 252.457 938.26C241.08 945.313 238.917 946.327 230.194 948.688C224.88 950.126 220.189 951.644 219.769 952.06C219.311 952.512 219.597 955.327 220.48 959.082C223.25 970.844 219.897 976.905 207.511 982.518C204.507 983.879 199.214 986.337 195.749 987.981C188.185 991.567 182.928 991.898 177.5 989.129C175.56 988.139 172.819 987.33 171.41 987.33C168.13 987.33 161.618 990.378 160.018 992.662C158.735 994.494 158.553 999.075 159.565 1004.13ZM160.289 232.664C161.829 235.042 168.369 236.354 178.526 236.32C188.674 236.287 209.508 237.686 235.326 240.134C248.045 241.339 250.797 241.338 266.411 240.122C289.454 238.327 293.427 237.113 288.666 233.317C285.629 230.896 277.686 228.242 268.525 226.589C264.425 225.85 257.998 224.281 254.243 223.103C245.819 220.46 232.12 213.543 229.146 210.431C226.1 207.244 224.461 200.929 225.815 197.598C228.727 190.435 228.706 190.571 227.37 187.448L226.076 184.422L216.416 183.845C211.104 183.528 203.618 182.715 199.782 182.041C187.555 179.888 172.209 180.813 171.074 183.771C170.84 184.381 171.815 186.64 173.239 188.791C175.489 192.187 179.059 203.417 181.998 216.342C182.8 219.872 179.976 222.24 171.184 225.41C163.101 228.325 159.172 230.939 160.289 232.664ZM162.16 1238.35C163.633 1241.64 167.34 1244.53 168.544 1243.33C169.215 1242.66 166.168 1237.76 163.545 1235.3C160.799 1232.72 160.214 1234.01 162.16 1238.35ZM178.557 1284.31C179.313 1285.96 179.652 1289.4 179.539 1294.26C179.379 1301.15 179.508 1301.8 181.35 1303.29C186.026 1307.08 189.868 1304.54 189.868 1297.67C189.868 1290.05 183.969 1280.53 179.244 1280.53C177.002 1280.53 176.952 1280.81 178.557 1284.31ZM200.79 27.4883C201.252 27.2026 201.63 26.8028 201.63 26.5986C201.63 26.3945 201.252 26.2281 200.79 26.2281C200.327 26.2281 199.949 26.6288 199.949 27.1178C199.949 27.6067 200.327 27.7739 200.79 27.4883ZM203.304 742.954C204.461 744.905 208.8 746.495 211.275 745.873C214.313 745.11 214.011 742.372 210.661 740.302C205.842 737.326 201.003 739.07 203.304 742.954ZM239.225 184.969C256.103 186.819 261.419 186.931 268.478 185.59C279.181 183.557 284.452 181.176 290.306 175.729C293.176 173.06 296.608 170.321 297.934 169.642C303.952 166.562 321.115 161.546 329.665 160.368C339.462 159.018 342.964 157.395 343.47 153.967C344.038 150.124 342.811 148.192 337.939 145.263C325.755 137.938 316.349 136.935 308.766 142.152C303.001 146.118 299.761 147.056 286.901 148.481C280.723 149.166 274.74 150.08 273.605 150.512C272.469 150.944 269.597 153.023 267.222 155.133C262.331 159.475 257.77 161.958 248.691 165.217C239.707 168.443 237.128 170.244 235.973 174.097C235.437 175.886 233.729 178.58 232.177 180.085C230.624 181.59 229.354 183.061 229.354 183.354C229.354 183.647 233.796 184.375 239.225 184.969ZM262.78 1177.46C266.066 1180.43 274.913 1182.61 276.651 1180.87C277.74 1179.78 275.31 1177 271.922 1175.46C268.346 1173.84 264.98 1173.44 262.608 1174.35C260.887 1175.01 260.93 1175.78 262.78 1177.46ZM281.026 707.225C282.222 707.525 283.409 707.561 283.665 707.305C284.487 706.483 283.073 705.048 281.441 705.048C278.933 705.048 278.632 706.624 281.026 707.225ZM285.432 274.68C292.399 274.207 299.331 272.39 302.039 270.325C304.721 268.28 302.156 267.174 296.144 267.781C286.178 268.789 278.921 271.314 278.921 273.774C278.921 274.932 279.835 275.058 285.432 274.68ZM282.313 632.797C282.792 632.797 286.479 631.533 290.505 629.987C294.53 628.442 301.321 626.32 305.595 625.272C309.869 624.225 313.366 623.013 313.366 622.579C313.366 620.607 298.688 616.419 294.783 617.277C291.8 617.932 287.17 621.79 283.817 626.412C281.425 629.712 280.698 632.797 282.313 632.797ZM284.869 1009.38C287.32 1013.59 295.642 1008.67 309.273 994.94C319.113 985.032 321.908 981.309 320.535 979.936C320.234 979.636 316.136 981.35 311.426 983.745C306.717 986.14 300.45 989.055 297.5 990.223C290.732 992.9 286.632 996.008 285.133 999.595C283.768 1002.86 283.648 1007.29 284.869 1009.38ZM303.779 88.7291C304.506 89.0089 307.064 89.2374 309.463 89.2374C313.091 89.2374 314.349 89.6709 316.955 91.8191C318.677 93.2389 320.087 95.1409 320.087 96.0465C320.087 98.6097 317.696 103.712 315.345 106.167C312.196 109.453 313.017 111.123 319.29 114.197C329.911 119.402 342.876 119.568 352.835 114.625C356.754 112.68 358.153 111.28 362.247 105.2C367.778 96.985 377.184 87.6958 382.652 85.0486C387.911 82.5022 398.787 80.7824 408.39 80.9773C417.957 81.1722 420.494 80.0884 421.366 75.4366C422.51 69.3399 418.255 63.176 410.67 59.9407C403.491 56.8784 393.14 53.9521 389.484 53.9521C385.488 53.9521 384.679 54.6158 381.167 60.7739C378.248 65.8903 375.358 67.1496 363.03 68.6761C342.76 71.1856 339.411 72.1451 333.949 77.0085C327.27 82.9549 317.636 86.717 309.083 86.717C303.58 86.717 301.042 87.6798 303.779 88.7291ZM304.936 446.692C306.162 447.45 311.762 444.276 314.782 441.113C318.135 437.601 323.448 428.829 323.448 426.807C323.448 425.971 322.975 425.29 322.397 425.294C320.376 425.31 312.792 430.223 310.155 433.226C305.393 438.65 302.79 445.366 304.936 446.692ZM310.381 241.809C316.92 247.977 318.425 253.824 315.412 261.354C314.179 264.436 314.137 265.113 315.132 265.795C316.55 266.766 327.316 266.067 330.69 264.785C335.576 262.927 336.004 261.982 335.46 254.262C335.041 248.332 335.258 246.365 336.852 241.646L338.74 236.056L336.952 234.267C332.706 230.021 306.548 232.403 306.685 237.024C306.706 237.759 308.37 239.912 310.381 241.809ZM321.977 32.4198C327.673 33.9463 333.156 32.2333 332.563 29.113C331.919 25.7248 320.087 26.9766 320.087 30.4329C320.087 31.2579 320.924 32.1375 321.977 32.4198ZM325.671 726.313C327.573 728.216 339.83 725.059 339.83 722.667C339.83 721.703 338.903 721.497 335.63 721.73C328.561 722.236 323.789 724.431 325.671 726.313ZM370.243 1270.92C371.43 1272.11 372.809 1272.28 378.434 1271.92C391.563 1271.1 420.322 1259.15 418.046 1255.47C416.081 1252.29 382.789 1256.65 373.723 1261.28C368.871 1263.75 367.334 1268.01 370.243 1270.92ZM389.52 556.608C389.838 556.927 391.137 557.186 392.408 557.186C394.504 557.186 394.804 556.791 395.629 552.944C396.737 547.776 396.802 544.322 395.778 544.955C395.361 545.213 393.754 547.599 392.208 550.255C388.663 556.35 388.841 555.929 389.52 556.608ZM394.347 153.664C394.878 157.909 395.576 161.647 395.899 161.969C397.063 163.132 401.828 160.29 404.198 157.019C407.592 152.333 407.372 149.761 403.257 146.043C401.082 144.078 399.064 143.005 397.544 143.005C395.387 143.005 393.034 144.373 393.28 145.484C393.337 145.738 393.816 149.419 394.347 153.664ZM396.182 581.55C397.085 584.69 397.353 587.799 397.019 591.252C396.666 594.894 396.854 596.782 397.682 597.915C398.798 599.442 398.872 599.431 399.857 597.59C400.516 596.36 400.676 594.228 400.311 591.572C399.597 586.384 401.565 582.866 407.767 578.241C414.071 573.54 417.026 572.196 426.271 569.822C435.658 567.411 437.223 566.121 435.178 562.477C433.352 559.221 427.287 556.408 420.787 555.802C414.619 555.225 398.51 557.475 396.765 559.157C395.022 560.837 394.623 576.129 396.182 581.55ZM397.696 742.49C398.809 746.68 400.547 752.029 401.557 754.379C403.609 759.146 406.941 762.856 407.851 761.384C408.163 760.878 408.638 751.479 408.906 740.495C409.421 719.384 408.792 713.234 405.842 710.565C404.478 709.33 404.185 709.36 402.182 710.935C399.141 713.327 396.444 721.051 396.024 728.572C395.755 733.407 396.143 736.643 397.696 742.49ZM402.839 826.026C404.74 827.604 406.77 825.555 406.453 822.381C406.11 818.954 404.478 818.655 402.889 821.73C401.289 824.823 401.29 824.74 402.839 826.026ZM409.413 41.1478C409.993 42.1913 411.26 43.6002 412.228 44.2782C414.788 46.0719 435.839 51.6032 437.771 50.9907C438.673 50.7042 440.689 48.4712 442.252 46.0289C445.466 41.0033 447.931 39.0189 454.646 36.0491C462.11 32.7482 461.94 32.2308 452.827 30.5144C438.834 27.8773 419.333 27.1371 414.715 29.0669C409.282 31.3369 406.935 36.6851 409.413 41.1478ZM425.923 531.551C428.364 533.059 432.352 533.585 435.309 532.789C438.841 531.838 443.845 528.042 443.118 526.865C441.844 524.804 425.712 527.271 425.272 529.594C425.128 530.359 425.421 531.24 425.923 531.551ZM429.513 795.145C433.394 798.74 436.024 800.44 436.024 799.353C436.024 798.511 427.39 789.901 426.547 789.901C424.998 789.901 426.262 792.135 429.513 795.145ZM445.115 808.485C448.879 811.966 453.526 815.156 458.379 817.59C467.97 822.401 468.077 822.43 464.588 819.312C456.617 812.188 440.769 801.678 439.664 802.783C439.475 802.972 441.929 805.538 445.115 808.485ZM452.448 6.61707C453.684 7.09174 459.358 6.79688 472.633 5.56946C477.697 5.10151 479.747 5.36527 486.495 7.35132C495.929 10.1296 501.477 10.3439 513.316 8.38892C526.175 6.26508 527.798 5.64594 534.52 0.303589C543.111 -6.52158 544.347 -7.23999 550.588 -9.02441C557.112 -10.8903 564.287 -11.212 579.304 -10.3123C592.271 -9.53514 594.652 -10.2586 598.98 -16.2839C602.602 -21.3289 606.48 -23.7274 614.55 -25.915C626.794 -29.2344 627.824 -30.271 630.469 -41.9327C631.555 -46.724 633.105 -52.2873 633.914 -54.2969C635.155 -57.386 635.201 -58.0665 634.208 -58.6949C632.37 -59.8594 615.092 -59.5662 609.616 -58.2775C602.766 -56.6661 600.435 -54.7253 599.542 -49.8921C598.387 -43.6458 595.636 -41.5431 585.647 -39.2789C581.032 -38.2321 574.873 -36.2024 571.96 -34.7683C567.238 -32.4437 566.423 -31.6589 564.445 -27.5398C560.862 -20.0761 559.585 -19.304 547.667 -17.4163C541.943 -16.5098 532.155 -15.1925 525.917 -14.4885C508.34 -12.5067 494.793 -8.84277 487.329 -4.05322C480.787 0.144876 477.273 1.17891 467.12 1.89722C457.079 2.60712 451.146 3.86736 451.146 5.29053C451.146 5.74587 451.732 6.34234 452.448 6.61707ZM456.185 862.859C459.525 873.74 460.577 875.74 462.134 874.183C463.715 872.602 464.642 866.555 463.847 863.017C462.436 856.734 457.129 849.549 453.9 849.549C452.339 849.549 452.644 851.326 456.185 862.859ZM455.832 1165.49C458.989 1168.11 468.923 1165.22 471.79 1160.84C473.894 1157.63 472.643 1156.74 466.858 1157.35C461.428 1157.92 457.508 1159.74 455.632 1162.58C454.615 1164.12 454.641 1164.5 455.832 1165.49ZM469.3 556.917C470.843 557.51 478.569 555.266 480.928 553.541C483.516 551.648 482.01 549.625 478.015 549.625C474.074 549.625 470.069 551.433 468.814 553.78C467.657 555.94 467.714 556.309 469.3 556.917ZM474.023 190.682C474.989 192.704 477.536 193.212 478.542 191.584C478.878 191.04 479.373 188.299 479.642 185.493L480.131 180.391L489.294 178.091C499.417 175.551 502.023 174.017 500.633 171.419C499.165 168.677 494.724 166.535 490.497 166.532C485.713 166.528 483.449 168.79 480.989 176.025C479.997 178.944 478.768 180.997 477.835 181.293C474.767 182.267 472.578 187.659 474.023 190.682ZM508.1 1313.55C511.41 1316.78 513.316 1317.49 513.316 1315.5C513.316 1314.23 506.857 1307.42 505.655 1307.42C503.869 1307.42 505.175 1310.69 508.1 1313.55ZM529.955 1259.18C533.799 1268.63 534.789 1270.3 535.886 1269.19C537.039 1268.03 543.55 1251.05 543.555 1249.2C543.563 1246.89 538.028 1238.75 536.017 1238.11C533.926 1237.45 532.44 1238.52 529.138 1243.06C526.027 1247.34 526.154 1249.83 529.955 1259.18ZM541.227 1339.71C543.532 1341.33 545.573 1341.38 546.832 1339.87C548.979 1337.28 545.486 1334.48 541.399 1335.5C538.853 1336.14 538.777 1338 541.227 1339.71ZM552.018 575.283C553.611 576.269 554.004 574.832 552.541 573.369C551.232 572.059 551.121 572.056 551.121 573.339C551.121 574.104 551.524 574.979 552.018 575.283ZM583.551 1259.38C585.214 1260.75 590.187 1263.9 594.602 1266.37C599.016 1268.85 604.497 1272.57 606.782 1274.65L610.935 1278.44L611.766 1286.42C612.223 1290.8 613.036 1294.82 613.573 1295.33C618.205 1299.79 633.431 1298.47 634.104 1293.55C634.239 1292.57 632.427 1289.35 629.693 1285.73C624.487 1278.83 624.108 1276.93 626.476 1269.6C627.882 1265.24 627.877 1265.17 626.064 1263.7C620.718 1259.37 602.865 1253.91 591.395 1253.09C580.532 1252.32 577.719 1254.57 583.551 1259.38ZM588.774 430.328C590.539 430.328 594.036 429.723 596.545 428.983C601.614 427.49 622.913 416.245 627.697 412.535C631.812 409.345 635.446 403.413 637.587 396.395C639.063 391.556 640.226 389.682 644.682 384.958C647.612 381.851 651.2 376.928 652.653 374.019C655.2 368.924 656.125 363.958 654.528 363.958C652.679 363.958 646.39 372.627 642.57 380.441C640.284 385.117 637.582 389.71 636.564 390.648C635.546 391.585 631.311 394.35 627.152 396.792C621.849 399.905 617.459 403.408 612.45 408.521C607.382 413.695 603.114 417.088 597.748 420.211C590.43 424.469 585.566 428.236 585.566 429.645C585.566 430.02 587.01 430.328 588.774 430.328ZM598.126 14.0244C601.326 15.6795 607.458 15.6627 611.427 13.9891L614.55 12.6719L612.593 11.0698C610.612 9.44839 605.716 7.75877 602.972 7.75037C600.361 7.74196 595.648 10.1296 595.648 11.4612C595.648 12.166 596.763 13.3196 598.126 14.0244ZM618.901 272.214C619.242 273.064 621.334 273.178 628.385 272.732C636.883 272.194 637.708 272.286 641.991 274.247C644.5 275.395 647.907 277.524 649.563 278.979C651.991 281.11 652.753 281.406 653.5 280.506C655.711 277.842 654.976 273.035 651.806 269.424C647.893 264.968 643.455 263.036 635.945 262.521C625.996 261.84 621.933 262.707 619.967 265.932C618.34 268.6 618.076 270.156 618.901 272.214ZM628.223 327.25C628.806 329.919 632.061 330.423 639.55 329.001C647.639 327.465 651.756 327.916 656.833 330.891C658.833 332.063 660.663 332.828 660.9 332.591C662.006 331.484 659.819 328.334 655.864 325.336C653.473 323.523 651.097 321.353 650.583 320.515C649.715 319.094 647.767 312.792 646.551 307.459C645.775 304.065 643.999 304.587 638.507 309.825C630.867 317.113 627.321 323.12 628.223 327.25ZM629.814 1391.64C630.188 1393.01 632.486 1393.11 662.919 1393.11H695.622V1390.15C695.622 1385.46 693.838 1385.07 678.186 1386.37C666.778 1387.31 662.934 1387.28 650.256 1386.14C633.416 1384.64 629.738 1384.98 629.542 1388.1C629.471 1389.24 629.593 1390.83 629.814 1391.64ZM649.122 -58.8655C657.38 -56.2493 660.463 -55.847 664.314 -56.8837C668.15 -57.917 672.657 -62.3731 675.497 -67.9406L677.288 -71.4506L675.507 -73.2291C673.879 -74.8539 672.809 -75.0061 663.041 -74.996C654.32 -74.9867 651.771 -74.6969 649.176 -73.4165C645.395 -71.5506 644.649 -70.3332 643.92 -64.843L643.369 -60.6886L649.122 -58.8655ZM656.942 214.977C658.244 220.444 663.612 227.615 664.826 225.51C665.479 224.379 666.333 198.866 665.767 197.403C664.288 193.58 659.298 197.457 657.345 203.947C656.042 208.276 655.949 210.808 656.942 214.977ZM676.638 309.77C678.237 313.393 680.961 315.51 684.022 315.51C689.506 315.51 694.245 305.79 692.293 298.543C691.25 294.671 689.506 293.387 685.29 293.387C678.185 293.387 673.403 302.441 676.638 309.77ZM693.27 269.696C694.707 271.133 696.187 270.943 696.872 269.234C697.872 266.735 699.701 259.381 699.397 259.077C698.537 258.216 695.292 260.284 693.888 262.588C692.036 265.625 691.809 268.235 693.27 269.696ZM709.539 333.734C710.724 334.185 712.331 334.554 713.11 334.555C717.099 334.559 731.196 338.736 734.046 340.759C735.785 341.993 738.493 343.937 740.063 345.078C743.333 347.457 745.923 347.688 749.366 345.908C752.313 344.384 755.491 340.099 755.117 338.156C754.806 336.538 752.131 335.6 747.473 335.478C743.22 335.365 738.895 333.465 737.279 330.999C736.553 329.89 735.721 327.244 735.428 325.116C734.978 321.829 735.364 320.164 738.004 314.019C740.355 308.546 741.109 305.645 741.109 302.08C741.109 295.232 740.084 294.837 735.287 299.84C730.454 304.881 726.536 306.421 720.495 305.655C711.517 304.516 711.986 304.402 712.171 307.67C712.88 320.239 712.847 320.534 710.075 325.918C708.595 328.793 707.384 331.543 707.384 332.03C707.384 332.517 708.354 333.283 709.539 333.734ZM724.521 907.785C725.629 908.813 729.27 910.533 732.612 911.609C736.782 912.953 739.789 914.582 742.2 916.803C748.18 922.316 752.185 923.025 759.111 919.8C764.267 917.399 768.028 913.049 769.865 907.362C771.465 902.409 771.568 900.109 770.337 896.861C768.12 891.008 763.404 889.122 759.22 892.413C755.464 895.368 750.091 896.809 740.569 897.413C730.749 898.035 725.154 899.94 723.374 903.265C722.185 905.486 722.23 905.662 724.521 907.785ZM725.928 1240.51C727.545 1242.57 728.14 1242.73 734.261 1242.73C737.886 1242.73 741.471 1242.49 742.227 1242.2C743.944 1241.54 752.751 1229.74 752.751 1228.09C752.751 1226.13 748.701 1223.52 742.885 1221.72C730.057 1217.76 724.187 1221.41 724.187 1233.35C724.187 1237.09 724.613 1238.84 725.928 1240.51ZM771.864 862.312C775.488 865.692 777.432 866.355 783.57 866.305C789.601 866.254 794.835 864.913 795.368 863.279C795.793 861.977 786.847 855.644 782.922 854.469C778.849 853.248 774.079 854.188 771.56 856.708C769.021 859.246 769.046 859.683 771.864 862.312ZM826.472 957.882C835.54 963.429 836.865 965.328 838.732 975.45L839.761 981.029L845.318 980.807C850.633 980.595 850.973 980.7 853.092 983.219C855.93 986.591 857.557 990.487 859.195 997.831C861.19 1006.77 864.018 1011.79 870.705 1018.28C877.232 1024.6 883.271 1028.12 889.707 1029.34C894.199 1030.19 896.412 1029.78 896.412 1028.1C896.412 1027.51 892.853 1024.69 888.503 1021.82C879.186 1015.68 871.09 1007.58 868.575 1001.9C865.634 995.246 865.483 985.803 868.166 976.448C870.551 968.134 870.824 965.867 869.533 965.07C869.074 964.786 865.593 966.464 861.797 968.801C858.002 971.136 853.935 973.046 852.761 973.043C850.698 973.039 843.686 966.009 833.134 953.368C829.805 949.38 827.45 948.604 824.106 950.394C821.064 952.022 822.064 955.186 826.472 957.882ZM825.715 988.102C828.038 989.345 830.519 989.241 833.342 987.781C836.01 986.401 837.398 983.969 835.517 983.969C834.055 983.969 824.888 986.323 824.382 986.829C824.182 987.03 824.781 987.602 825.715 988.102ZM830.82 349.314C833.147 352.813 838.363 356.886 843.692 359.367C848.212 361.47 852.726 362.09 852.726 360.607C852.726 360.149 850.797 357.644 848.438 355.041C839.975 345.695 839.745 340.776 847.521 335.439C851.009 333.045 850.829 330.693 846.961 328.092C837.388 321.656 830.487 326.435 829.553 340.147C829.165 345.841 829.337 347.085 830.82 349.314ZM846.647 1131.49C848.728 1134.61 855.534 1135.27 858.837 1132.67C860.012 1131.75 862.365 1128.44 864.066 1125.32C865.766 1122.2 868.323 1118.43 869.747 1116.94C871.997 1114.59 872.216 1113.97 871.418 1112.21C870.913 1111.11 869.376 1109.81 868.002 1109.33C864.891 1108.24 863.272 1109.02 855.341 1115.43C848.018 1121.35 844.371 1128.09 846.647 1131.49ZM862.177 1051.73C865.176 1054.55 871.628 1058.99 873.939 1059.83C876.362 1060.71 875.743 1057.01 872.889 1053.55C868.99 1048.82 859.447 1044.93 859.447 1048.07C859.447 1048.68 860.676 1050.32 862.177 1051.73ZM872.931 1393.08C882.883 1393.04 883.272 1392.98 880.975 1391.73C878.039 1390.14 865.196 1390.38 863.521 1392.06C862.681 1392.9 864.563 1393.1 872.931 1393.08ZM911.201 1090.45C912.048 1092.33 913.719 1091.57 916.583 1088.01C918.128 1086.09 922.916 1080.78 927.224 1076.23C931.533 1071.67 935.058 1067.39 935.058 1066.73C935.058 1064.54 932.074 1063.66 928.077 1064.67C919.595 1066.8 911.761 1076.15 911.075 1084.95C910.883 1087.4 910.94 1089.88 911.201 1090.45ZM912.077 943.905C912.395 944.224 914.103 944.483 915.875 944.483C919.591 944.483 920.442 942.333 917.061 941.484C913.475 940.584 910.298 942.128 912.077 943.905ZM936.846 1393.08C942.641 1393.05 942.904 1392.97 940.939 1391.85C938.159 1390.26 933.016 1390.26 931.697 1391.85C930.783 1392.95 931.433 1393.11 936.846 1393.08ZM936.228 1138.55C937.334 1138.55 941.02 1138 944.419 1137.32C947.818 1136.64 951.92 1135.98 953.534 1135.85C960.633 1135.28 955.048 1129.32 947.407 1129.31C942.652 1129.31 939.442 1130.79 936.418 1134.39C933.692 1137.62 933.65 1138.55 936.228 1138.55ZM975.763 1014.73C977.461 1015.39 978.744 1014.42 978.744 1012.48C978.744 1010.77 978.081 1010.52 975.873 1011.36C974.207 1012 974.139 1014.11 975.763 1014.73ZM989.305 1032.61C992.565 1036.49 996.069 1038.01 1001.85 1038.07C1007.98 1038.14 1013.47 1035.78 1013.88 1032.91C1014.03 1031.87 1013.96 1031.02 1013.74 1031.02C1013.51 1031.02 1008.49 1030.05 1002.58 1028.88C996.664 1027.7 990.871 1026.85 989.704 1026.99C986.787 1027.33 986.637 1029.44 989.305 1032.61ZM993.189 1374.93C997.748 1379.3 1009.3 1385.41 1014.17 1386.02C1016.95 1386.37 1018.46 1386.07 1020.55 1384.76C1023.98 1382.61 1026.53 1377.67 1025.26 1375.63C1024.07 1373.71 1006.45 1367.93 1000.17 1367.4C994.198 1366.9 990.196 1367.87 989.8 1369.93C989.628 1370.82 990.968 1372.8 993.189 1374.93ZM1010.63 1236.59C1012.84 1240.22 1015.03 1241.51 1025.59 1245.46C1044.53 1252.54 1046.35 1253.1 1048.6 1252.54C1053.8 1251.23 1051.68 1247.3 1043.58 1243.22C1040.5 1241.67 1034.78 1238.46 1030.88 1236.08C1024.34 1232.11 1017.35 1229.29 1014.06 1229.29C1012.29 1229.29 1008.99 1231.64 1008.99 1232.9C1008.99 1233.45 1009.73 1235.11 1010.63 1236.59ZM1058.81 1351.94C1061.53 1351.94 1070.42 1338.99 1073.3 1330.83C1075.54 1324.46 1074.25 1312.69 1070.62 1306.47C1068.57 1302.95 1062.29 1298.08 1060.64 1298.72C1058.94 1299.37 1059.08 1302.59 1061.17 1311.34C1063.36 1320.46 1062.98 1329.07 1059.84 1341.43C1057.4 1351.04 1057.31 1351.94 1058.81 1351.94ZM1073.68 1378.92C1074.78 1380.8 1081.47 1383.54 1087.67 1384.66C1099.04 1386.71 1109.24 1381.21 1117.36 1368.66C1122.81 1360.21 1123.22 1356.56 1120.73 1338.08C1120.17 1333.92 1119.17 1329.49 1118.52 1328.22C1117.04 1325.35 1113.61 1324.38 1110.7 1326.01C1107.6 1327.74 1107.5 1331.44 1110.38 1337.86C1113.78 1345.43 1113.54 1350.63 1109.38 1359.03C1104.15 1369.62 1097.05 1376.29 1088.26 1378.86C1085.22 1379.75 1084.1 1379.65 1079.48 1378.09C1072.41 1375.71 1071.85 1375.79 1073.68 1378.92ZM1081.8 1088.42C1082.82 1089.45 1090.95 1089 1095.4 1087.68C1102.01 1085.72 1104.88 1082.74 1105.4 1077.32C1105.64 1074.84 1105.37 1071.51 1104.79 1069.74C1103.84 1066.86 1103.95 1066.23 1106.04 1062.21C1109.19 1056.19 1109.65 1051.42 1107.36 1048.52C1103.53 1043.67 1094.55 1041.24 1088.97 1043.55C1085.29 1045.07 1085.55 1047.12 1089.85 1050.41C1096.2 1055.28 1098.99 1058.24 1101.06 1062.28C1102.17 1064.46 1103.08 1066.41 1103.08 1066.61C1103.08 1066.81 1098.17 1071.19 1092.16 1076.35C1081.99 1085.09 1080.36 1086.99 1081.8 1088.42ZM1105.9 33.1315C1107.86 40.1347 1117.13 54.3462 1123.97 60.8546C1131.98 68.4653 1137.56 71.1369 1144.2 70.5354C1153.21 69.718 1164.29 61.9333 1160.11 59.3524C1159.6 59.034 1154.75 58.4662 1149.35 58.0907C1137.99 57.301 1132.5 55.5635 1124.73 50.3093C1117.02 45.0838 1116.09 43.4354 1116.19 35.1913C1116.31 26.601 1118.32 17.1968 1120.87 13.3851C1124.92 7.34296 1138.54 -7.25581 1143.19 -10.5289C1149.43 -14.9203 1152.38 -18.0599 1151.29 -19.1504C1150.75 -19.6973 1148.9 -19.215 1145.89 -17.7389C1142.56 -16.1082 1137.87 -12.0446 1128.68 -2.82593C1121.73 4.14374 1114.32 11.2471 1112.2 12.9601C1105.84 18.1042 1103.65 25.1066 1105.9 33.1315ZM1122.2 1037.72C1122.54 1037.7 1124.53 1035.01 1126.61 1031.73C1129.21 1027.62 1132.81 1023.69 1138.19 1019.05C1145.51 1012.75 1149.06 1008.39 1147.86 1007.18C1146.78 1006.1 1142.15 1006.71 1138.71 1008.37C1129.35 1012.9 1121.57 1024.19 1121.57 1033.23C1121.57 1035.71 1121.85 1037.73 1122.2 1037.72ZM1125.47 306.973C1127.7 307.956 1131.15 308.944 1133.15 309.169C1136.26 309.52 1137.12 309.252 1139.19 307.266C1140.52 305.993 1142.08 303.812 1142.66 302.417C1143.58 300.178 1143.52 299.741 1142.09 298.667C1139.96 297.068 1133.08 297.817 1126.72 300.338C1120.46 302.822 1120.13 304.608 1125.47 306.973ZM1151.6 217.069C1158.95 223.235 1174.29 227.599 1175.7 223.926C1176.01 223.111 1175.25 220.561 1173.89 217.888C1170.73 211.632 1167.63 209.972 1160.03 210.463C1151.81 210.993 1147.96 214.012 1151.6 217.069ZM1163.67 -57.3113C1166.88 -55.6504 1171.1 -56.2645 1173.32 -58.7168C1174.86 -60.418 1174.86 -60.4819 1173.27 -61.6404C1171.64 -62.8359 1164.83 -63.2577 1162.38 -62.3151C1160.16 -61.4632 1160.86 -58.7689 1163.67 -57.3113ZM1174.94 1188.13C1184.84 1191.39 1210.26 1189.94 1211.76 1186.02C1212.94 1182.96 1201.8 1180.17 1188.35 1180.15C1175.91 1180.14 1171.97 1181.24 1171.97 1184.76C1171.97 1186.75 1172.47 1187.31 1174.94 1188.13ZM1178.06 293.18C1181.01 295.93 1192.19 300.949 1195.38 300.949C1196.95 300.949 1199.64 300.529 1201.35 300.016C1203.9 299.253 1204.95 299.334 1207.12 300.458C1210.11 302.003 1221.71 315.599 1226.43 323.084C1232.14 332.156 1234.52 334.888 1237.78 336.13C1240.6 337.202 1241.11 337.19 1242.28 336.019C1244.03 334.269 1242.98 331.262 1237.53 322.359C1231.34 312.232 1226.72 302.056 1225.35 295.496C1223.41 286.229 1224.66 279.973 1230.59 269.113C1235.77 259.642 1246.3 246.784 1250.57 244.724C1252.13 243.968 1257.99 243.256 1266.49 242.791C1291.77 241.405 1296.43 243.052 1306.95 257.085C1314.39 267.022 1327.28 282.196 1329.53 283.669C1334.49 286.923 1335.48 283.915 1332.02 276.084C1327.89 266.747 1329.96 259.956 1336.67 260.856C1343.64 261.791 1356.15 272.804 1358.83 280.368C1359.65 282.677 1360.87 286.14 1361.54 288.064C1362.94 292.078 1366.01 293.876 1375.38 296.182C1386.74 298.977 1394.37 303.968 1396.32 309.87C1397.48 313.399 1396.97 315.813 1393.72 322.127C1392.36 324.765 1391.24 327.515 1391.24 328.237C1391.24 328.959 1392.74 331.171 1394.57 333.153C1401.94 341.154 1401.5 346.971 1392.65 358.299C1390.57 360.963 1388.02 364.883 1386.99 367.012C1385.44 370.219 1384.36 371.216 1380.68 372.841C1374.84 375.426 1362.44 384.285 1359.77 387.785C1358.61 389.313 1357.42 391.726 1357.14 393.147C1356.61 395.787 1357.98 401.357 1359.37 402.217C1359.8 402.479 1361.57 401.566 1363.3 400.187C1365.04 398.809 1368.81 396.898 1371.69 395.941C1384.21 391.772 1402.98 395.556 1407.4 403.141C1408.77 405.502 1408.83 406.397 1407.96 411.675C1406.78 418.815 1407.37 421.711 1410.22 422.795C1411.4 423.241 1416.04 423.847 1420.54 424.142C1430.51 424.794 1432.41 424.088 1432.41 419.741C1432.41 416.256 1433.3 414.362 1437.17 409.566C1440.43 405.531 1444.4 403.986 1448.49 405.158C1449.93 405.57 1453.31 408.014 1456.01 410.591C1458.71 413.166 1463.07 416.257 1465.69 417.459C1472.6 420.62 1473.91 419.935 1478.74 410.625C1480.88 406.491 1482.47 402.678 1482.27 402.153C1481.4 399.888 1475.35 398.218 1464.18 397.157C1451.89 395.989 1452.28 396.124 1440.5 388.899C1437.79 387.233 1431.95 384.666 1427.53 383.193C1417.94 379.998 1415.61 378.042 1415.61 373.182C1415.61 369.142 1416.55 367.051 1420.03 363.376C1422.27 361.002 1422.49 360.327 1421.95 357.496C1421.62 355.736 1421.03 352.595 1420.64 350.516C1419.45 344.128 1420.76 341.243 1427.81 334.753C1431.26 331.568 1434.09 328.361 1434.09 327.626C1434.09 326.891 1432.67 325.442 1430.94 324.406C1423.51 319.969 1420.97 315.344 1423.3 310.502C1424.86 307.256 1428.8 304.811 1436.71 302.176C1444.3 299.649 1448.12 296.959 1447.26 294.738C1445.81 290.939 1419.59 283.631 1403.38 282.505C1393.48 281.817 1391.99 281.348 1388.77 277.906C1387.04 276.057 1386.65 274.606 1386.25 268.665C1385.83 262.273 1385.53 261.318 1383.06 258.39C1381.56 256.614 1379.29 253.461 1378.02 251.381C1374.76 246.058 1374.92 239.503 1378.59 228.278C1383.83 212.247 1388.37 206.912 1401.42 201.466C1421.07 193.272 1426.53 190.292 1426.53 187.775C1426.53 184.874 1409.31 180.283 1402.08 181.255C1395.98 182.074 1393.35 184.197 1389.92 191.076C1385.32 200.275 1383.65 202.041 1374.15 207.697C1367.98 211.375 1362.46 215.665 1355.29 222.372C1342.78 234.075 1338.8 236.259 1330.02 236.259C1324.88 236.259 1321.95 235.649 1314.01 232.925C1308.66 231.091 1301.27 228.68 1297.57 227.569C1293.87 226.457 1287.64 224.183 1283.71 222.517C1275.23 218.921 1273.13 218.778 1269.34 221.536C1266.78 223.4 1255.71 231.052 1250.26 234.731C1249.1 235.507 1244.92 237.155 1240.95 238.392C1236.98 239.629 1231.57 241.734 1228.92 243.071C1223.11 246.005 1219.82 246.117 1209.75 243.723C1201.97 241.874 1198.56 242.035 1197.69 244.289C1197.41 245.016 1197.94 249.066 1198.86 253.288C1200.84 262.348 1200.96 266.387 1199.37 270.201C1197.55 274.557 1195.17 275.745 1188.27 275.745C1184.47 275.745 1181.95 276.132 1181.41 276.795C1180.24 278.248 1176.17 288.616 1176.17 290.156C1176.17 290.849 1177.02 292.209 1178.06 293.18ZM1218.88 401.877C1220.83 404.065 1221.91 404.553 1224.97 404.621C1228.22 404.694 1228.71 404.467 1228.95 402.794C1229.32 400.194 1226.74 392.677 1224.81 390.753C1222.84 388.778 1219.96 389.859 1217.9 393.354C1215.91 396.717 1216.15 398.83 1218.88 401.877ZM1225.57 1274.65C1229.77 1274.65 1253.21 1260.75 1258.01 1255.43C1259.58 1253.67 1259.58 1253.65 1257.87 1253.65C1256.91 1253.65 1253.07 1254.82 1249.32 1256.25C1236 1261.33 1218.82 1274.65 1225.57 1274.65ZM1248.17 1360.13C1248.81 1361.85 1255.6 1361.35 1260.9 1359.2C1267.32 1356.59 1285.94 1344.76 1287.6 1342.24C1289.35 1339.55 1288.38 1338.27 1285.1 1338.96C1283.64 1339.26 1277.16 1341.78 1270.69 1344.56C1254.72 1351.41 1246.92 1356.81 1248.17 1360.13ZM1249.71 67.6168C1252.49 71.6998 1257.29 74.1151 1262.62 74.1151C1264.92 74.1151 1267.04 73.7429 1267.32 73.2876C1267.6 72.8323 1266.12 71.2562 1264.04 69.7852C1258.64 65.9811 1257.34 62.7743 1257.9 54.6436C1258.45 46.559 1257.6 46.2181 1251.66 52.1519C1247.89 55.9249 1247.58 56.544 1247.58 60.3582C1247.58 63.3893 1248.15 65.3149 1249.71 67.6168ZM1272.18 1311.59C1272.83 1312.87 1274.85 1314.3 1277.42 1315.31C1293.07 1321.42 1294.06 1321.97 1297.53 1326.63L1300.9 1331.14L1306.37 1330.74C1313.17 1330.25 1322.35 1326.01 1322.35 1323.37C1322.35 1320.75 1316.7 1317.29 1304.57 1312.5C1292.3 1307.65 1284.86 1305.77 1277.79 1305.75C1271.47 1305.73 1269.99 1307.27 1272.18 1311.59ZM1303.59 850.389C1304.35 850.389 1307.77 847.489 1311.18 843.946C1321.52 833.188 1328.56 820.985 1324.42 820.985C1321.79 820.985 1315.9 825.031 1311.89 829.591C1304.85 837.602 1299.74 850.389 1303.59 850.389ZM1367.09 420.044C1370.1 422.866 1377.83 424.984 1377.79 422.977C1377.78 422.308 1370.52 418.109 1367.18 416.841C1364.56 415.845 1364.51 417.628 1367.09 420.044ZM1409.59 1189.38C1411.85 1195.77 1414 1197.84 1418.38 1197.84C1422.41 1197.84 1425.63 1195.73 1427.69 1191.75C1428.91 1189.39 1428.91 1188.8 1427.69 1184.89C1426.95 1182.54 1425.77 1178.45 1425.06 1175.8C1423.59 1170.34 1421.76 1168.84 1417.5 1169.64C1411.92 1170.68 1407.77 1176.05 1407.9 1182.06C1407.94 1183.57 1408.69 1186.87 1409.59 1189.38ZM1413.24 855.518C1416.15 857.082 1427.45 857.515 1429.24 856.133C1431.53 854.368 1429.85 852.951 1424.41 852.066C1416.03 850.703 1408.57 853.007 1413.24 855.518ZM1449.91 24.5546C1451.55 26.3205 1454.41 27.6496 1460.56 29.5146C1465.18 30.916 1469.81 32.6626 1470.85 33.3969C1474.29 35.8164 1475.49 39.3408 1474.86 45.1696L1474.3 50.4246L1477.66 50.9916C1483.47 51.9745 1504.05 48.9131 1510.91 46.0458C1516.43 43.7371 1516.37 42.6811 1510.37 36.9204C1504.34 31.1286 1502.98 28.052 1505.05 24.8906C1507.19 21.6284 1509.6 20.5421 1521.49 17.4664C1548.33 10.527 1571.03 1.18742 1571.03 -2.91406C1571.03 -4.46577 1561.48 -4.36165 1552.97 -2.71753C1549.27 -2.00258 1541.03 -0.686997 1534.66 0.206055C1528.28 1.09995 1518.08 3.15076 1511.97 4.76379C1504.9 6.63559 1493.73 8.63168 1481.14 10.2783C1459.87 13.0591 1454.03 14.3395 1450.71 16.9514C1447.52 19.4625 1447.28 21.7317 1449.91 24.5546ZM1459.72 328.674C1462.91 329.887 1467.33 329.703 1468.49 328.311C1470.05 326.434 1466.64 325.028 1462.16 325.699C1457.71 326.367 1456.75 327.544 1459.72 328.674ZM1482.88 196.24C1484.85 198.745 1488.46 199.218 1489.28 197.079C1490.4 194.157 1485.53 190.282 1482.66 191.816C1480.71 192.859 1480.75 193.527 1482.88 196.24ZM1485.65 449.073C1486.29 449.316 1491.05 450.192 1496.23 451.018C1505.48 452.493 1505.71 452.491 1508.66 450.876C1512.24 448.922 1514.77 444.404 1514.96 439.658C1515.15 434.848 1514.11 434.068 1509.13 435.31C1503.39 436.74 1489.8 442.814 1486.93 445.236C1484.23 447.501 1483.93 448.413 1485.65 449.073ZM1495.44 876.332C1501.22 888.561 1505.77 891.523 1522.01 893.627C1537.87 895.682 1547.26 899.592 1551.42 905.881C1553.2 908.581 1553.71 910.567 1554.13 916.634C1554.44 920.894 1555.14 924.659 1555.79 925.439C1556.41 926.189 1559.06 927.851 1561.67 929.132C1566.11 931.312 1567.3 931.491 1580.27 931.917C1593.14 932.34 1594.44 932.532 1598.4 934.587C1601.26 936.072 1603.88 938.416 1606.34 941.693C1610.46 947.165 1617.94 956.365 1620.98 959.69C1623.46 962.405 1628.1 964.604 1641.1 969.233C1646.69 971.224 1653.64 973.748 1656.54 974.841C1661.12 976.564 1661.92 976.662 1662.6 975.575C1663.65 973.881 1662.99 971.417 1659.14 962.755C1655.44 954.399 1654.99 950.793 1657.57 950.118C1658.5 949.875 1661.81 950.209 1664.93 950.86C1671.85 952.31 1678.73 952.39 1680.08 951.036C1680.63 950.482 1681.09 949.012 1681.09 947.772C1681.09 945.207 1680.36 944.779 1667.65 939.886C1658.9 936.521 1651.02 934.434 1646.99 934.414C1642.68 934.393 1634.79 929.779 1626.23 922.26C1616.91 914.079 1615.97 913.528 1606.32 910.583C1601.93 909.244 1595.12 906.078 1588.67 902.38C1573.62 893.744 1550.98 882.93 1540.76 879.489C1515.13 870.864 1498.09 866.497 1494.5 867.637C1492.3 868.337 1492.49 870.095 1495.44 876.332ZM1499.71 405.091C1508.35 411.349 1517.79 412.529 1523.62 408.079C1527.72 404.954 1533.38 396.14 1533.05 393.384C1532.84 391.576 1532.32 391.222 1529.54 390.994C1523.47 390.497 1501.32 396.607 1497.87 399.724C1495.63 401.758 1495.8 402.257 1499.71 405.091ZM1531.72 857.716C1537.31 862.199 1556.58 867.559 1573.13 869.238C1580.13 869.947 1586.7 868.545 1590.77 865.473C1606.87 853.323 1607.49 853.166 1643.28 852.108C1668.84 851.353 1677.92 850.437 1679.12 848.488C1680.28 846.611 1673.42 842.171 1663.22 838.199C1657.57 836 1648.03 832.118 1642.02 829.575C1627.67 823.499 1625.22 823.269 1617.1 827.229C1611.67 829.875 1609.6 830.399 1602.05 831.015C1596.24 831.489 1591.46 832.427 1587.83 833.8C1580.98 836.396 1569.07 839.83 1561.32 841.439C1554.94 842.764 1538.29 849.406 1533.86 852.397C1530.85 854.423 1530.06 856.386 1531.72 857.716ZM1546.05 1088.19C1550.09 1094.2 1559.24 1099.2 1562.75 1097.32C1564.82 1096.22 1564.75 1095.82 1561.72 1091.25C1557.29 1084.55 1548.82 1078.74 1545.41 1080.05C1543.54 1080.76 1543.87 1084.96 1546.05 1088.19ZM1550.34 1169.64C1550.98 1169.64 1556.74 1166.19 1563.16 1161.98C1569.57 1157.77 1579.35 1152.13 1584.89 1149.46C1600.75 1141.8 1606.29 1136.54 1603.93 1131.37C1602.4 1128.01 1599.19 1128.66 1594.22 1133.35C1591.68 1135.75 1586.12 1139.38 1580.56 1142.26C1569.61 1147.95 1559.51 1155.64 1553.47 1162.89C1549.03 1168.23 1548.38 1169.64 1550.34 1169.64ZM1563.07 1211.9C1566.59 1213.58 1568.79 1213.74 1568.31 1212.27C1567.86 1210.9 1561.71 1208.86 1560.8 1209.78C1560.41 1210.17 1561.43 1211.12 1563.07 1211.9ZM1575.73 519.92C1579.88 523.085 1586.96 523.65 1591.76 521.201C1603.5 515.213 1605.33 501.241 1596.67 483.675C1592.98 476.172 1582.13 463.479 1580.66 464.944C1580.48 465.123 1582.21 471.292 1584.51 478.652C1586.97 486.56 1588.67 493.591 1588.66 495.836C1588.62 503.226 1584.11 509.395 1576.29 512.747C1571.78 514.68 1571.62 516.78 1575.73 519.92ZM1579.85 348.288C1582.34 350.786 1586.98 351.606 1595.33 351.027C1599.76 350.721 1609.43 350.124 1616.82 349.701C1627.58 349.085 1631.43 348.518 1636.14 346.862C1639.4 345.715 1646.88 344.186 1652.94 343.427C1667.51 341.604 1678.12 339.054 1680.83 336.725C1682.89 334.958 1682.99 334.466 1682.84 327.496C1682.73 322.448 1683.12 318.789 1684.1 315.856C1685.22 312.492 1685.33 311.027 1684.61 308.994C1684.11 307.572 1682.87 302.82 1681.86 298.434C1680.06 290.654 1679.88 290.324 1674.66 284.917C1670.23 280.323 1668.99 278.381 1667.43 273.569L1665.55 267.764L1660.92 266.263C1654.89 264.304 1653.04 262.136 1653.73 257.826C1654.02 256.032 1654.8 253.5 1655.48 252.198C1656.71 249.819 1664.41 239.872 1670.34 232.99C1674.1 228.634 1674.28 226.898 1671.34 223.396C1669.47 221.179 1669.22 220.257 1669.64 217.182C1670.46 211.202 1673.04 207.249 1678.57 203.492C1685.32 198.905 1686.32 197.181 1686.71 189.372C1687.36 176.603 1688.44 174.639 1698.38 168.165C1703.17 165.042 1704.47 164.578 1708.2 164.663C1710.57 164.717 1714.34 165.2 1716.57 165.737C1719.59 166.46 1721.59 166.472 1724.34 165.78C1730.01 164.353 1735.44 164.685 1743.09 166.929C1750.66 169.152 1759.2 170.398 1761.31 169.589C1763.34 168.81 1761.23 165.375 1755.14 159.568C1748.84 153.567 1745.94 152.319 1735.23 151.002C1724.94 149.739 1718.48 146.9 1708.39 139.204C1696.65 130.243 1692.56 128.827 1688.24 132.227C1684.5 135.17 1682.81 139.957 1682.79 147.683C1682.76 159.017 1681.28 162.4 1672.64 170.936C1663.78 179.697 1662.82 181.945 1664.77 189.473C1665.48 192.202 1665.82 195.525 1665.53 196.856C1664.8 200.19 1655.98 207.964 1646.52 213.617C1637.5 219.009 1631.52 224.549 1631.52 227.522C1631.52 229.748 1632.79 230.527 1639 232.098C1641.04 232.613 1643.78 234.109 1645.09 235.422C1649.69 240.019 1648.02 244.621 1637.91 255.162C1628.83 264.625 1622.82 273.366 1621.44 279.103C1620.46 283.183 1620.51 283.59 1622.17 285.255C1623.74 286.824 1625.29 287.104 1635.09 287.594C1641.21 287.9 1646.98 288.445 1647.9 288.805C1653.85 291.125 1657.88 297.134 1657.75 303.487C1657.63 308.927 1656.75 310.741 1648.77 321.869C1639.51 334.785 1636.25 336.418 1625.98 333.302C1621.18 331.846 1613.22 331.692 1608.42 332.962C1606.57 333.451 1600.87 333.924 1595.75 334.013C1584.8 334.203 1582.72 335.137 1580.22 340.978C1578.26 345.541 1578.21 346.65 1579.85 348.288ZM1583.05 -5.75793C1585.26 -4.91781 1597.29 -2.98552 1600.39 -2.97375C1603.15 -2.96367 1606.49 -6.90466 1606.15 -9.78796C1605.82 -12.6578 1601.63 -14.7515 1594.79 -15.4664C1587.92 -16.1839 1585.97 -15.5487 1583.34 -11.7581C1580.61 -7.81956 1580.56 -6.70643 1583.05 -5.75793ZM1601.21 1184.41C1602.74 1190.62 1604.17 1190.43 1609.76 1183.29C1612.2 1180.17 1617.18 1174.5 1620.82 1170.68C1628.63 1162.5 1628.92 1160.95 1622.69 1160.54C1617.19 1160.19 1613.3 1161.42 1608.63 1164.98C1602.83 1169.41 1599.6 1177.87 1601.21 1184.41ZM1620.87 1060.28L1622.82 1062.11L1627.56 1058.42C1630.85 1055.87 1633.46 1054.57 1636.05 1054.18C1640.41 1053.52 1644.91 1050.75 1646.41 1047.79C1648.59 1043.48 1647.18 1038.14 1643.3 1036.07C1640.07 1034.34 1638.53 1036.49 1635.83 1046.56C1635.33 1048.41 1633.95 1050.96 1632.77 1052.23C1630.93 1054.2 1629.94 1054.54 1626.09 1054.54C1623.61 1054.54 1620.98 1054.77 1620.25 1055.05C1618.33 1055.78 1618.61 1058.16 1620.87 1060.28ZM1625.45 1112.18C1626.25 1113.16 1630.1 1116.11 1634.01 1118.74C1639.64 1122.53 1641.56 1123.41 1643.25 1122.99C1646.38 1122.22 1649.02 1119.43 1651.78 1113.97C1653.17 1111.23 1657.33 1105.88 1661.41 1101.57C1667.84 1094.78 1671.78 1088.83 1671.83 1085.81C1671.87 1083.35 1668.81 1084.04 1658.64 1088.76C1652.73 1091.5 1643.77 1095.22 1638.72 1097.03C1628.28 1100.78 1623.95 1104 1623.98 1107.99C1623.99 1109.32 1624.65 1111.21 1625.45 1112.18ZM1625.01 -16.3964C1626.66 -14.2188 1629.82 -13.4014 1643.56 -11.5968C1656.87 -9.84766 1663.9 -7.87076 1673.95 -3.05518C1682.88 1.22693 1686.51 0.95294 1694.53 -4.60364C1703.04 -10.503 1705.48 -11.3868 1715.98 -12.3815C1725.61 -13.2938 1730.04 -14.9918 1730.48 -17.9297C1730.61 -18.8353 1728.77 -23.5416 1726.39 -28.3892C1721.6 -38.1346 1721.05 -41.6866 1723.64 -46.1687C1726.24 -50.6726 1729.72 -51.9 1739.9 -51.905C1747.07 -51.9084 1749.2 -52.2067 1751.33 -53.5013C1754.86 -55.6579 1755.48 -58.2858 1752.84 -60.0106C1751.03 -61.2011 1748.49 -61.2431 1728.76 -60.4088C1705.28 -59.4149 1701.35 -58.8034 1698.2 -55.653C1695.77 -53.2242 1695.72 -51.5665 1697.89 -45.4009C1700.22 -38.7832 1700.04 -36.5375 1696.93 -32.998C1693.67 -29.2738 1692.35 -28.5597 1686.81 -27.5095C1681.64 -26.5299 1673.02 -27.7977 1657.64 -31.7992C1645.96 -34.8379 1638.34 -35.1353 1633.03 -32.7611C1628.58 -30.7692 1626.89 -28.9235 1625.24 -24.2423C1623.68 -19.83 1623.64 -18.2043 1625.01 -16.3964ZM1630.21 883.994C1633.83 883.994 1634.84 882.577 1632 881.496C1629.49 880.543 1627.32 881.16 1627.32 882.824C1627.32 883.598 1628.3 883.994 1630.21 883.994ZM1646.29 1159.89C1647.02 1160.17 1649.07 1160.4 1650.84 1160.4C1654.86 1160.4 1656.72 1159.71 1656.72 1158.23C1656.72 1155.26 1646.53 1153.1 1645.47 1155.84C1644.63 1158.05 1644.89 1159.35 1646.29 1159.89ZM1646.72 527.273C1650.37 537.874 1657.91 546.348 1682.01 566.888C1694.97 577.941 1703.32 584.238 1708.56 586.902C1711.4 588.348 1713.87 588.694 1713.83 587.641C1713.81 587.294 1710.5 583.206 1706.48 578.556C1696.86 567.456 1676.25 547.778 1665.62 539.534C1660.96 535.923 1655.63 531.406 1653.78 529.497C1650.7 526.313 1650.39 525.562 1650 520.459C1649.53 514.2 1648.25 512.934 1646.27 516.765C1644.6 520.006 1644.65 521.246 1646.72 527.273ZM1660.4 82.986C1662.77 88.0788 1671.77 98.0645 1671.82 95.6559C1671.86 93.3212 1666.98 84.6361 1663.24 80.3792C1658.1 74.5386 1656.95 75.587 1660.4 82.986ZM1681.36 451.21C1686.16 455.194 1701.09 456.328 1708.07 453.239C1714.57 450.365 1723.48 441.295 1721.62 439.441C1721.06 438.883 1717.87 440.03 1712.07 442.872C1700.87 448.358 1695.85 449.323 1687.91 447.516C1684.64 446.773 1681.58 446.404 1681.11 446.697C1679.89 447.45 1680.04 450.112 1681.36 451.21ZM1696.42 611.642C1699.31 614.756 1703.46 619.643 1705.64 622.502C1711.21 629.807 1714.68 631.456 1724.35 631.391C1728.51 631.362 1735.88 630.673 1740.74 629.858C1747.43 628.732 1751.38 628.529 1757.12 629.011C1765.83 629.742 1769.65 629.744 1772.55 629.016C1776.2 628.099 1772.84 626.302 1765.52 625.256C1755.82 623.869 1747.53 621.47 1736.54 616.868C1725.3 612.166 1716.02 608.785 1704.02 605.033C1695.24 602.288 1691.17 602.184 1691.17 604.703C1691.17 605.405 1693.53 608.528 1696.42 611.642ZM1693.12 1015.99C1695.9 1023.44 1698.81 1026.6 1711.99 1036.48C1716.93 1040.17 1722.07 1044.78 1723.42 1046.72C1725.66 1049.95 1725.92 1051.09 1726.49 1060.17C1727.14 1070.4 1728.07 1074.3 1730.84 1078.27C1733.35 1081.88 1735.42 1082.56 1745.78 1083.19C1754.37 1083.72 1756.4 1084.17 1764.1 1087.23C1768.87 1089.13 1775.1 1091.91 1777.96 1093.4L1783.16 1096.13L1801.61 1096.38C1811.76 1096.52 1820.83 1096.44 1821.77 1096.2C1822.72 1095.95 1824.12 1094.63 1824.89 1093.26C1825.87 1091.52 1827.33 1090.49 1829.72 1089.84C1831.61 1089.33 1833.69 1088.08 1834.33 1087.06C1835.03 1085.97 1835.75 1081.57 1836.08 1076.38C1836.39 1071.53 1837.24 1065.29 1837.96 1062.52C1839.67 1055.91 1839.62 1045.93 1837.83 1041.1C1834.13 1031.07 1826.4 1022.97 1818.5 1020.83C1812.1 1019.1 1800.81 1021.3 1800.81 1024.27C1800.81 1025.02 1803.49 1026.53 1807.72 1028.18C1811.52 1029.66 1815.75 1031.67 1817.12 1032.65C1820.38 1034.97 1825.14 1042.89 1827.73 1050.29C1830.98 1059.61 1830.4 1063.11 1824.1 1072C1819.88 1077.96 1817.12 1079.74 1812.15 1079.74C1805.76 1079.74 1800.18 1075.07 1799.13 1068.85C1798.24 1063.61 1796.64 1062.94 1784.87 1062.93C1776.06 1062.93 1774.22 1062.67 1770.55 1060.97C1762.46 1057.2 1758.38 1049.85 1761.15 1044.04C1761.87 1042.52 1764.19 1039.34 1766.3 1036.96C1768.41 1034.58 1770.14 1032.31 1770.14 1031.9C1770.14 1029.03 1766.25 1025.98 1762.59 1025.98C1761.62 1025.98 1758.54 1027.17 1755.74 1028.63C1749.55 1031.84 1744.36 1032.26 1741.54 1029.76C1740.5 1028.83 1738.8 1026.19 1737.76 1023.88C1735.35 1018.5 1733.48 1016.85 1724.98 1012.61C1720.44 1010.35 1716.82 1007.8 1714.48 1005.24C1707.89 998.022 1707.28 997.481 1705.22 996.964C1702.23 996.213 1697.62 998.462 1694.93 1001.98C1692.16 1005.61 1691.42 1011.41 1693.12 1015.99ZM1730.29 306.35C1733.55 309.6 1741.85 306.63 1747.7 300.128C1752.61 294.667 1754.91 286.221 1752.51 282.466C1751.51 280.908 1750.53 281.456 1740.98 288.891C1729.68 297.684 1726.62 302.678 1730.29 306.35ZM1730.38 249.512C1730.61 250.101 1733.7 252.804 1737.24 255.518C1740.78 258.232 1745.36 262.193 1747.42 264.319C1749.48 266.445 1751.6 268.184 1752.12 268.184C1753.24 268.184 1755.02 264.586 1755.02 262.328C1755.02 259.873 1751.09 255.799 1747.64 254.681C1745.92 254.124 1741.59 252.209 1738.02 250.424C1730.04 246.433 1729.09 246.321 1730.38 249.512ZM1763.3 370.295C1766.97 376.309 1775.12 380.891 1785.07 382.527C1796.16 384.352 1794.75 382.337 1777.48 371.664C1769.87 366.964 1763.22 363.118 1762.69 363.118C1761.21 363.118 1761.58 367.464 1763.3 370.295ZM1768.55 471.926C1771.07 476.717 1776.05 482.472 1785.81 491.882C1790.84 496.741 1796.34 503.09 1799.25 507.411C1805.17 516.217 1809.51 519.601 1815.02 519.719C1822.2 519.873 1825.34 513.829 1822.75 504.889C1820.72 497.914 1819.36 496.69 1812.14 495.324C1808.71 494.677 1805.14 493.637 1804.2 493.013C1803.26 492.388 1800.22 488.709 1797.44 484.836C1791.52 476.591 1785.7 472.252 1775.18 468.235C1766.24 464.821 1765.13 465.443 1768.55 471.926ZM1781.87 187.112C1785.24 193.964 1790.78 200.026 1798.07 204.844C1804.65 209.191 1804.72 209.204 1816.35 208.109C1821.77 207.599 1823.7 207.822 1830.19 209.71C1842.89 213.405 1856.67 214.525 1856.67 211.862C1856.67 211.398 1855.76 209.609 1854.65 207.887C1852 203.778 1851.28 199.979 1852.47 196.369C1853.73 192.532 1856.37 190.561 1863.23 188.324C1873.93 184.834 1876.52 182.848 1872.85 180.951C1867.61 178.246 1859.26 179.249 1849.05 183.809C1837.39 189.018 1823.3 190.623 1812.89 187.926C1810.16 187.219 1803.4 184.948 1797.87 182.881C1786.33 178.561 1779.93 177.689 1779.6 180.391C1779.48 181.315 1780.51 184.339 1781.87 187.112ZM1868.59 1030.99C1871.88 1033 1875.77 1033.19 1878.23 1031.46C1880.68 1029.74 1889.44 1014.16 1889.44 1011.52C1889.44 1008.28 1885.05 1003.95 1882.12 1004.28C1880.13 1004.51 1879.67 1005.07 1879.08 1007.91C1877 1017.95 1875.73 1020 1869.18 1023.89C1865.25 1026.23 1865.03 1028.82 1868.59 1030.99ZM1899.74 891.556C1901.49 891.556 1909.76 885.623 1913.8 881.466C1918.55 876.591 1922.77 869.099 1921.49 867.821C1919.57 865.905 1907.47 876.887 1901.4 886.054C1898.43 890.535 1898.13 891.556 1899.74 891.556ZM1907.42 548.417C1908.04 549.832 1910.77 553.034 1913.49 555.534C1916.2 558.033 1924.66 566.394 1932.28 574.114C1939.91 581.833 1947.41 588.77 1948.95 589.529C1950.49 590.287 1955.07 591.251 1959.12 591.671C1963.18 592.09 1967.11 592.671 1967.87 592.962C1969 593.394 1969.25 592.918 1969.25 590.368C1969.25 587.29 1969.21 587.251 1966.48 587.763C1964.86 588.067 1961.81 587.721 1959.13 586.931C1953.19 585.177 1949.3 581.093 1943.06 570.022C1939.23 563.244 1938 560.096 1936.84 554.127C1936.05 550.034 1934.87 546.071 1934.23 545.322C1932.74 543.586 1924.02 540.718 1917.95 539.968C1913.19 539.379 1907.08 540.968 1907.08 542.792C1907.08 543.24 1906.91 544.111 1906.69 544.726C1906.48 545.341 1906.81 547.002 1907.42 548.417ZM1924.11 745.292C1925.69 748.364 1927.57 749.238 1930.12 748.077C1933.35 746.603 1932.96 743.005 1928.77 735.636C1926.02 730.797 1925.02 729.659 1924.15 730.379C1922.71 731.57 1922.68 742.523 1924.11 745.292ZM1927.2 720.17C1927.64 720.17 1928.3 719.671 1928.67 719.061C1929.04 718.451 1931.49 716.351 1934.1 714.394C1940.26 709.787 1941.2 707.564 1936.97 707.572C1934.34 707.576 1929.96 710.57 1928.08 713.652C1926.33 716.522 1925.84 720.17 1927.2 720.17ZM1931.63 1076.17C1933.39 1079.83 1935.52 1077.53 1934.02 1073.59C1933.55 1072.35 1932.59 1071.34 1931.89 1071.34C1930.42 1071.34 1930.3 1073.43 1931.63 1076.17ZM1961.41 639.308C1961.94 640.623 1964.32 640.655 1967.11 639.383C1969.19 638.435 1969.25 638.185 1969.25 630.142C1969.25 625.596 1968.91 621.876 1968.48 621.876C1967.33 621.876 1963.26 626.978 1961.98 630.04C1960.86 632.708 1960.58 637.264 1961.41 639.308ZM1963.72 661.782C1964.33 663.168 1965.83 665.219 1967.04 666.339L1969.25 668.376V661.944C1969.25 655.787 1969.16 655.49 1967.15 654.986C1962.69 653.866 1961.36 656.487 1963.72 661.782ZM1967.17 543.761C1968.89 545.186 1969.42 544.459 1969.1 541.145C1968.84 538.512 1968.76 538.453 1967.36 539.865C1965.56 541.678 1965.52 542.393 1967.17 543.761Z" fill="#FDABCA"/>
<path d="M1865.5 1198.86C1870 1189.36 1880.43 1189.1 1890.9 1186.81C1899.86 1184.84 1905.61 1182.6 1907.87 1180.19C1909.76 1178.18 1909.77 1178.12 1908.72 1167.49C1907.85 1158.57 1907.28 1156.06 1905.27 1152.3C1903.94 1149.81 1902.32 1145.48 1901.66 1142.67C1900.15 1136.19 1898.89 1134.84 1892.32 1132.65C1888.6 1131.42 1886.21 1129.99 1884.4 1127.92L1881.8 1124.97L1882.02 1115.59L1882.23 1106.21L1878.76 1100.93C1874.04 1093.75 1873.73 1091.07 1876.35 1080.21C1880.66 1062.31 1886.59 1054.98 1899.2 1051.95C1905.13 1050.53 1907.24 1049.01 1906.92 1046.38C1906.48 1042.68 1903.11 1040.95 1896.36 1040.95C1887.13 1040.95 1884.18 1042.66 1877.09 1052.12C1866.69 1065.99 1865.36 1070.65 1868.05 1083.88C1869.87 1092.85 1869.18 1096.43 1864.71 1101.17C1860.96 1105.14 1858.95 1104.64 1851 1097.72C1844.06 1091.69 1840.41 1090.41 1836.83 1092.76C1835.62 1093.55 1832.69 1094.85 1830.32 1095.66C1826.41 1096.98 1825.98 1097.37 1825.74 1099.9C1825.12 1106.2 1829.11 1111.91 1836.52 1115.34C1840.87 1117.36 1841.71 1119.39 1842.46 1129.7C1842.84 1134.8 1843.54 1140.29 1844.03 1141.91C1846.37 1149.68 1844.38 1155.57 1836.48 1164.26C1828.11 1173.46 1824.75 1178.04 1824.75 1180.21C1824.75 1181.74 1825.2 1182.24 1826.58 1182.24C1830.54 1182.24 1835.73 1178.5 1845.72 1168.45C1854.44 1159.67 1857.03 1157.57 1862.05 1155.24C1867.12 1152.89 1868.98 1152.47 1874.46 1152.45C1879.7 1152.42 1881.35 1152.74 1883.23 1154.15C1889.65 1158.94 1890.71 1165.11 1886.45 1172.94C1883.14 1179.03 1879.38 1181.55 1869.53 1184.28C1860.45 1184.28 1862.59 1184.51 1859 1194.36V1196.36L1859.5 1197.36L1862 1198.36L1865.5 1198.86Z" fill="#FDABCA"/>
<path d="M1072.85 141.5C1073.08 142.153 1073.32 142.811 1073.58 143.454C1075.87 149.274 1076.31 149.818 1081.98 153.663C1089.12 158.513 1089.35 159.564 1084.6 165.88C1082.75 168.34 1081.24 170.869 1081.24 171.499C1081.24 173.483 1084.53 174.584 1088.69 173.991C1095.21 173.058 1111.15 168.656 1119.74 165.415C1129.56 161.708 1134.51 161.162 1141.6 163.005C1145.29 163.965 1149.81 164.338 1156.31 164.219C1162.71 164.101 1168.13 164.539 1173.36 165.595C1180.6 167.059 1181.14 167.065 1183.21 165.712C1186.12 163.803 1188.15 160.58 1188.15 157.851C1188.15 156.236 1187.02 154.64 1184.05 152.044C1180.58 149.01 1180.09 148.231 1180.87 146.932L1165.81 136.925L1144.2 143.454C1133.53 142.374 1107.5 140.214 1088.69 140.214C1078.95 140.214 1074.49 140.792 1072.85 141.5Z" fill="#FDABCA"/>
<path d="M1239.6 146.303C1255.91 149.931 1261.49 150.869 1271.54 151.675C1277.56 152.158 1285.69 153.117 1289.61 153.806C1298.56 155.381 1306.45 155.41 1310.12 153.88C1311.96 153.109 1314.15 150.924 1316.4 147.608L1301.5 140.214L1271.54 143.454L1239.6 146.303Z" fill="#FDABCA"/>
<path d="M965.112 1190.77C956.795 1190.37 944.697 1189.25 938.228 1188.29C929.751 1187.03 922.982 1186.58 913.992 1186.68L901.519 1186.83L894.812 1183.35C891.123 1181.43 887.36 1179.86 886.451 1179.86C883.625 1179.86 879.593 1182.38 875.215 1186.88C872.902 1189.26 869.656 1192.21 868.002 1193.44C876.04 1197.79 884.717 1199.55 888.05 1199.88L899.05 1201.06L920.55 1199.88L952.083 1197.38L967.62 1195.88L978.05 1193.98V1191.59C975.29 1191.29 971.274 1191.06 965.112 1190.77Z" fill="#FDABCA"/>
<path d="M1206 29L1208.92 37.9828H1218.36L1210.72 43.5344L1213.64 52.5172L1206 46.9656L1198.36 52.5172L1201.28 43.5344L1193.64 37.9828H1203.08L1206 29Z" fill="#363636"/>
</g>
<defs>
<clipPath id="clip0_2688_1060">
<rect width="1920" height="1080" fill="white"/>
</clipPath>
</defs>
</svg>
